<svg width="12" height="42" viewBox="0 0 12 42" fill="none" xmlns="http://www.w3.org/2000/svg">
<g opacity="0.89">
<circle cx="1.26506" cy="40.7347" r="1.26506" transform="rotate(-90 1.26506 40.7347)" fill="white"/>
<circle cx="5.9633" cy="40.7347" r="1.26506" transform="rotate(-90 5.9633 40.7347)" fill="white"/>
<circle cx="10.6625" cy="40.7347" r="1.26506" transform="rotate(-90 10.6625 40.7347)" fill="white"/>
<g opacity="0.8">
<circle cx="1.26506" cy="34.1568" r="1.26506" transform="rotate(-90 1.26506 34.1568)" fill="white"/>
<circle cx="5.9633" cy="34.1566" r="1.26506" transform="rotate(-90 5.9633 34.1566)" fill="white"/>
<circle cx="10.6625" cy="34.1568" r="1.26506" transform="rotate(-90 10.6625 34.1568)" fill="white"/>
</g>
<g opacity="0.7">
<circle cx="1.26506" cy="27.5782" r="1.26506" transform="rotate(-90 1.26506 27.5782)" fill="white"/>
<circle cx="5.9633" cy="27.5782" r="1.26506" transform="rotate(-90 5.9633 27.5782)" fill="white"/>
<circle cx="10.6625" cy="27.5782" r="1.26506" transform="rotate(-90 10.6625 27.5782)" fill="white"/>
</g>
<g opacity="0.6">
<circle cx="1.26506" cy="21.0001" r="1.26506" transform="rotate(-90 1.26506 21.0001)" fill="white"/>
<circle cx="5.9633" cy="20.9998" r="1.26506" transform="rotate(-90 5.9633 20.9998)" fill="white"/>
<circle cx="10.6625" cy="21.0001" r="1.26506" transform="rotate(-90 10.6625 21.0001)" fill="white"/>
</g>
<g opacity="0.5">
<circle cx="1.26506" cy="14.4215" r="1.26506" transform="rotate(-90 1.26506 14.4215)" fill="white"/>
<circle cx="5.9633" cy="14.4215" r="1.26506" transform="rotate(-90 5.9633 14.4215)" fill="white"/>
<circle cx="10.6625" cy="14.4215" r="1.26506" transform="rotate(-90 10.6625 14.4215)" fill="white"/>
</g>
<g opacity="0.3">
<circle cx="1.26506" cy="7.84358" r="1.26506" transform="rotate(-90 1.26506 7.84358)" fill="white"/>
<circle cx="5.9633" cy="7.84334" r="1.26506" transform="rotate(-90 5.9633 7.84334)" fill="white"/>
<circle cx="10.6625" cy="7.84358" r="1.26506" transform="rotate(-90 10.6625 7.84358)" fill="white"/>
</g>
<g opacity="0.1">
<circle cx="1.26506" cy="1.26497" r="1.26506" transform="rotate(-90 1.26506 1.26497)" fill="white"/>
<circle cx="5.9633" cy="1.26497" r="1.26506" transform="rotate(-90 5.9633 1.26497)" fill="white"/>
<circle cx="10.6625" cy="1.26497" r="1.26506" transform="rotate(-90 10.6625 1.26497)" fill="white"/>
</g>
</g>
</svg>
