<svg width="69" height="20" viewBox="0 0 69 20" fill="none" xmlns="http://www.w3.org/2000/svg">
<circle cx="2.07831" cy="2.07831" r="2.07831" fill="#D5D5D5"/>
<circle cx="2.07831" cy="9.7978" r="2.07831" fill="#D5D5D5"/>
<circle cx="2.07831" cy="17.517" r="2.07831" fill="#D5D5D5"/>
<g opacity="0.8">
<circle cx="12.8859" cy="2.07831" r="2.07831" fill="#D5D5D5"/>
<circle cx="12.8859" cy="9.7978" r="2.07831" fill="#D5D5D5"/>
<circle cx="12.8859" cy="17.517" r="2.07831" fill="#D5D5D5"/>
</g>
<g opacity="0.7">
<circle cx="23.6935" cy="2.07831" r="2.07831" fill="#D5D5D5"/>
<circle cx="23.6935" cy="9.7978" r="2.07831" fill="#D5D5D5"/>
<circle cx="23.6935" cy="17.517" r="2.07831" fill="#D5D5D5"/>
</g>
<g opacity="0.6">
<circle cx="34.5002" cy="2.07831" r="2.07831" fill="#D5D5D5"/>
<circle cx="34.5002" cy="9.7978" r="2.07831" fill="#D5D5D5"/>
<circle cx="34.5002" cy="17.517" r="2.07831" fill="#D5D5D5"/>
</g>
<g opacity="0.5">
<circle cx="45.3078" cy="2.07831" r="2.07831" fill="#D5D5D5"/>
<circle cx="45.3078" cy="9.7978" r="2.07831" fill="#D5D5D5"/>
<circle cx="45.3078" cy="17.517" r="2.07831" fill="#D5D5D5"/>
</g>
<g opacity="0.3">
<circle cx="56.1144" cy="2.07831" r="2.07831" fill="#D5D5D5"/>
<circle cx="56.1144" cy="9.7978" r="2.07831" fill="#D5D5D5"/>
<circle cx="56.1144" cy="17.517" r="2.07831" fill="#D5D5D5"/>
</g>
<g opacity="0.1">
<circle cx="66.9221" cy="2.07831" r="2.07831" fill="#D5D5D5"/>
<circle cx="66.9221" cy="9.7978" r="2.07831" fill="#D5D5D5"/>
<circle cx="66.9221" cy="17.517" r="2.07831" fill="#D5D5D5"/>
</g>
</svg>
