<svg width="25" height="25" viewBox="0 0 25 25" fill="none" xmlns="http://www.w3.org/2000/svg">
<path fill-rule="evenodd" clip-rule="evenodd" d="M1.16883 1.16883C1.62021 0.718354 2.14754 0.5 2.77778 0.5H22.2222C22.8526 0.5 23.38 0.718431 23.8314 1.16907C24.2817 1.6204 24.5 2.14765 24.5 2.77778V22.2222C24.5 22.8525 24.2816 23.3798 23.8312 23.8312C23.3798 24.2816 22.8525 24.5 22.2222 24.5H2.77778C2.14765 24.5 1.6204 24.2817 1.16907 23.8314C0.718431 23.38 0.5 22.8526 0.5 22.2222V2.77778C0.5 2.14754 0.718354 1.62021 1.16883 1.16883ZM22.7222 2.27778H2.27778V22.7222H22.7222V2.27778ZM17.3611 6.81822L19.3056 4.87377L20.0568 5.625L18.1185 7.5633L20.0629 9.57718L19.3056 10.3346L17.3611 8.39012L15.4167 10.3346L14.6593 9.57718L16.6037 7.5633L14.6654 5.625L15.4167 4.87377L17.3611 6.81822ZM5.01389 8.11111V7.02778H10.9583V8.11111H5.01389ZM7.44444 16.4722V13.6944H8.52778V16.4722H11.3056V17.5556H8.52778V20.3333H7.44444V17.5556H4.66667V16.4722H7.44444ZM14.3889 15.8194V14.7361H20.3333V15.8194H14.3889ZM14.3889 19.2917V18.2083H20.3333V19.2917H14.3889Z" fill="white"/>
</svg>
