<svg width="49" height="49" viewBox="0 0 49 49" fill="none" xmlns="http://www.w3.org/2000/svg">
<path d="M24.4539 0C10.9481 0 0 10.9688 0 24.5C0 38.0312 10.9481 49 24.4539 49C37.9596 49 48.9078 38.0312 48.9078 24.5C48.9078 10.9688 37.9596 0 24.4539 0ZM24.4539 45.4779C12.9068 45.4779 3.51544 36.0664 3.51544 24.5C3.51544 12.9337 12.9093 3.52206 24.4539 3.52206C35.9985 3.52206 45.3923 12.9337 45.3923 24.5C45.3923 36.0664 35.9985 45.4779 24.4539 45.4779Z" fill="#182360"/>
<path d="M18.4808 18.8478C18.912 17.0057 17.7712 15.1622 15.9326 14.7302C14.094 14.2981 12.2539 15.4411 11.8227 17.2832C11.3915 19.1253 12.5323 20.9688 14.3709 21.4008C16.2095 21.8329 18.0496 20.6898 18.4808 18.8478Z" fill="#182360"/>
<path d="M35.839 20.7791C37.3316 19.62 37.6037 17.4681 36.4468 15.9726C35.2898 14.4772 33.142 14.2046 31.6494 15.3637C30.1568 16.5229 29.8847 18.6748 31.0416 20.1702C32.1986 21.6656 34.3464 21.9382 35.839 20.7791Z" fill="#182360"/>
<path d="M33.173 33.2406H15.7348C14.4282 33.2406 13.3693 32.1797 13.3693 30.8706C13.3693 29.5615 14.4282 28.5006 15.7348 28.5006H33.173C34.4796 28.5006 35.5385 29.5615 35.5385 30.8706C35.5385 32.1797 34.4796 33.2406 33.173 33.2406Z" fill="#182360"/>
</svg>
