<svg width="49" height="49" viewBox="0 0 49 49" fill="none" xmlns="http://www.w3.org/2000/svg">
<path d="M24.4539 0C10.9481 0 0 10.9688 0 24.5C0 38.0312 10.9481 49 24.4539 49C37.9596 49 48.9078 38.0312 48.9078 24.5C48.9078 10.9688 37.9596 0 24.4539 0ZM24.4539 45.4779C12.9068 45.4779 3.51544 36.0664 3.51544 24.5C3.51544 12.9337 12.9093 3.52206 24.4539 3.52206C35.9985 3.52206 45.3923 12.9337 45.3923 24.5C45.3923 36.0664 35.9985 45.4779 24.4539 45.4779Z" fill="#182360"/>
<path d="M18.5805 18.0711C18.5805 19.9625 17.049 21.497 15.1611 21.497C13.2732 21.497 11.7417 19.9625 11.7417 18.0711C11.7417 16.1797 13.2732 14.6453 15.1611 14.6453C17.049 14.6453 18.5805 16.1797 18.5805 18.0711Z" fill="#182360"/>
<path d="M35.2642 21.1409C36.956 20.3002 37.6473 18.2447 36.8082 16.5496C35.9691 14.8546 33.9174 14.162 32.2256 15.0027C30.5337 15.8434 29.8425 17.899 30.6815 19.594C31.5206 21.289 33.5724 21.9816 35.2642 21.1409Z" fill="#182360"/>
<path d="M35.2681 34.5699C35.2377 34.5142 35.2049 34.456 35.1695 34.4028C32.8292 30.706 28.821 28.5006 24.4513 28.5006C20.0817 28.5006 16.076 30.7085 13.7332 34.4028C13.6978 34.4585 13.6649 34.5142 13.6346 34.5699C12.8941 35.9828 13.9985 37.6742 15.5907 37.6742H33.3069C34.8991 37.6742 36.006 35.9828 35.263 34.5699H35.2681Z" fill="#182360"/>
</svg>
