<svg width="33" height="25" viewBox="0 0 33 25" fill="none" xmlns="http://www.w3.org/2000/svg">
<path fill-rule="evenodd" clip-rule="evenodd" d="M0.333374 3.125C0.333374 1.67588 1.50926 0.5 2.95837 0.5H30.0417C31.4908 0.5 32.6667 1.67588 32.6667 3.125V21.875C32.6667 23.3241 31.4908 24.5 30.0417 24.5H2.95837C1.50926 24.5 0.333374 23.3241 0.333374 21.875V3.125ZM30.5417 2.625H2.45837V6.01841L2.64204 6.16846C4.10497 7.36363 6.43959 9.21561 11.4128 13.1083C11.5772 13.2375 11.7816 13.4079 12.0127 13.6006L12.0128 13.6007L12.0128 13.6007C12.4877 13.9967 13.0758 14.487 13.6631 14.9083C14.1103 15.229 14.5852 15.5319 15.0566 15.7543C15.5198 15.9729 16.0162 16.1314 16.5 16.1251C16.9839 16.1314 17.4803 15.9729 17.9435 15.7543C18.4148 15.5319 18.8898 15.229 19.337 14.9083C19.9243 14.487 20.5124 13.9967 20.9873 13.6007L20.9873 13.6007C21.2186 13.4078 21.4231 13.2372 21.5876 13.108C26.5606 9.21552 28.8951 7.3636 30.358 6.16846L30.5417 6.01841V2.625ZM3.27051 9.40106L2.45837 8.75206V22.375H30.5417V8.75206L29.7296 9.40106C28.2407 10.5908 26.1266 12.2561 22.904 14.7821C22.6713 14.9644 22.425 15.1686 22.1639 15.385C21.553 15.8917 20.8611 16.4653 20.0729 16.9817C18.9594 17.7111 17.7487 18.2558 16.5024 18.25L16.4977 18.25C15.2425 18.2558 14.0208 17.702 12.9037 16.9668C12.114 16.4471 11.4255 15.873 10.8242 15.3717L10.8242 15.3716C10.5659 15.1563 10.3238 14.9544 10.0966 14.776L10.0958 14.7754C6.87338 12.2561 4.75923 10.5907 3.27051 9.40106Z" fill="white"/>
</svg>
