<svg width="22" height="19" viewBox="0 0 22 19" fill="none" xmlns="http://www.w3.org/2000/svg">
<path d="M21.8201 7.2618C22.4334 10.7157 20.5132 14.0168 17.0399 15.6344C17.589 17.0061 16.5162 18.4583 14.9989 18.4583C14.4399 18.4579 13.9023 18.2532 13.497 17.8865C13.0918 17.5197 12.8497 17.0189 12.8207 16.4872C12.5487 16.4948 10.1089 16.4872 9.59659 16.4614C9.58501 16.7344 9.51705 17.0026 9.3966 17.2506C9.27615 17.4985 9.10557 17.7215 8.89461 17.9066C8.68364 18.0918 8.43643 18.2355 8.1671 18.3296C7.89778 18.4237 7.61162 18.4664 7.32498 18.4551C5.89477 18.4004 4.87724 17.0536 5.33975 15.7229C3.76804 15.1955 2.27574 14.3201 1.13191 12.8748C0.582808 12.1796 1.11164 11.1932 2.01217 11.1932C3.96826 11.1932 3.37311 9.01412 3.83478 6.75775C4.61324 2.97878 8.76617 0.436401 12.7776 0.436401C17.1062 0.436401 21.105 3.27928 21.8201 7.2618ZM16.3856 14.7687C18.1597 13.9971 19.8209 12.4874 20.4528 10.6598C22.1627 5.70822 17.7432 1.48795 12.7776 1.48795C9.25276 1.48795 5.58347 3.71736 4.91821 6.95889C4.51567 8.92642 5.1294 12.2428 2.01428 12.2428C3.06772 13.5747 4.47808 14.3595 5.97334 14.8193C7.01495 13.9424 8.67113 14.197 9.34527 15.3962C9.9459 15.4364 12.6902 15.4437 13.0581 15.4292C13.2066 15.1528 13.4183 14.9117 13.6775 14.7234C13.9367 14.5351 14.2369 14.4045 14.556 14.3412C14.8752 14.2778 15.2051 14.2833 15.5217 14.3573C15.8383 14.4313 16.1335 14.5718 16.3856 14.7687ZM9.27304 6.6769C9.27304 5.27939 11.4205 5.27899 11.4205 6.6769C11.4205 8.0748 9.27304 8.0744 9.27304 6.6769ZM14.1968 6.6769C14.1968 5.27939 16.3451 5.27899 16.3451 6.6769C16.3451 8.0748 14.1968 8.0748 14.1968 6.6769ZM9.01791 9.52058C8.87261 8.83913 9.95477 8.62833 10.1001 9.311L10.1026 9.32226C10.2775 10.1839 11.3634 11.0923 12.811 11.0549C14.3181 11.017 15.3136 10.1614 15.5189 9.33433C15.7073 8.68867 16.7269 8.91757 16.5947 9.57569C16.3738 10.4679 15.2765 12.0698 12.7316 12.106C10.9343 12.106 9.31528 10.9861 9.01876 9.52138L9.01791 9.52058Z" fill="white"/>
</svg>
