<svg width="28" height="28" viewBox="0 0 28 28" fill="none" xmlns="http://www.w3.org/2000/svg">
<path d="M10.0448 7.34239C10.0448 6.68009 9.50789 6.14319 8.84559 6.14319C8.18329 6.14319 7.64639 6.68009 7.64639 7.34239V25.8192C7.64639 26.4815 8.18329 27.0184 8.84559 27.0184C9.50789 27.0184 10.0448 26.4815 10.0448 25.8192V7.34239Z" stroke="#423200" stroke-width="1.4" stroke-miterlimit="10"/>
<path d="M17.9552 25.8192C17.9552 26.4815 18.4921 27.0184 19.1544 27.0184C19.8167 27.0184 20.3536 26.4815 20.3536 25.8192L20.3536 7.34237C20.3536 6.68007 19.8167 6.14317 19.1544 6.14317C18.4921 6.14317 17.9552 6.68007 17.9552 7.34237L17.9552 25.8192Z" stroke="#423200" stroke-width="1.4" stroke-miterlimit="10"/>
<path d="M5.20801 15.0784H4.03521C3.63675 15.0784 3.2546 15.2367 2.97285 15.5184C2.69109 15.8002 2.53281 16.1823 2.53281 16.5808V16.5808C2.53365 16.9787 2.69232 17.36 2.97398 17.6411C3.25564 17.9221 3.6373 18.08 4.03521 18.08H5.20801" stroke="#423200" stroke-width="1.4" stroke-miterlimit="10"/>
<path d="M7.64639 10.348C7.64639 9.6857 7.10949 9.1488 6.44719 9.1488C5.78489 9.1488 5.24799 9.6857 5.24799 10.348V22.8128C5.24799 23.4751 5.78489 24.012 6.44719 24.012C7.10949 24.012 7.64639 23.4751 7.64639 22.8128V10.348Z" stroke="#423200" stroke-width="1.4" stroke-miterlimit="10"/>
<path d="M22.792 18.08H23.9648C24.3633 18.08 24.7454 17.9217 25.0271 17.64C25.3089 17.3582 25.4672 16.9761 25.4672 16.5776C25.4672 16.1791 25.3089 15.797 25.0271 15.5152C24.7454 15.2335 24.3633 15.0752 23.9648 15.0752H22.792" stroke="#423200" stroke-width="1.4" stroke-miterlimit="10"/>
<path d="M10.0456 18.0832H17.9544" stroke="#423200" stroke-width="1.4" stroke-miterlimit="10"/>
<path d="M17.9544 15.0784H10.0456" stroke="#423200" stroke-width="1.4" stroke-miterlimit="10"/>
<path d="M20.3536 22.8136C20.3536 23.4759 20.8905 24.0128 21.5528 24.0128C22.2151 24.0128 22.752 23.4759 22.752 22.8136V10.3488C22.752 9.68652 22.2151 9.14962 21.5528 9.14962C20.8905 9.14962 20.3536 9.68652 20.3536 10.3488V22.8136Z" stroke="#423200" stroke-width="1.4" stroke-miterlimit="10"/>
</svg>
