<svg width="20" height="69" viewBox="0 0 20 69" fill="none" xmlns="http://www.w3.org/2000/svg">
<circle cx="2.23237" cy="66.9216" r="2.07831" transform="rotate(-90 2.23237 66.9216)" fill="#ADADAD"/>
<circle cx="9.95179" cy="66.9216" r="2.07831" transform="rotate(-90 9.95179 66.9216)" fill="#ADADAD"/>
<circle cx="17.6711" cy="66.9216" r="2.07831" transform="rotate(-90 17.6711 66.9216)" fill="#ADADAD"/>
<g opacity="0.8">
<circle cx="2.23237" cy="56.1145" r="2.07831" transform="rotate(-90 2.23237 56.1145)" fill="#ADADAD"/>
<circle cx="9.95179" cy="56.1145" r="2.07831" transform="rotate(-90 9.95179 56.1145)" fill="#ADADAD"/>
<circle cx="17.6711" cy="56.1145" r="2.07831" transform="rotate(-90 17.6711 56.1145)" fill="#ADADAD"/>
</g>
<g opacity="0.7">
<circle cx="2.23237" cy="45.3072" r="2.07831" transform="rotate(-90 2.23237 45.3072)" fill="#ADADAD"/>
<circle cx="9.95179" cy="45.3072" r="2.07831" transform="rotate(-90 9.95179 45.3072)" fill="#ADADAD"/>
<circle cx="17.6711" cy="45.3072" r="2.07831" transform="rotate(-90 17.6711 45.3072)" fill="#ADADAD"/>
</g>
<g opacity="0.6">
<circle cx="2.23237" cy="34.5001" r="2.07831" transform="rotate(-90 2.23237 34.5001)" fill="#ADADAD"/>
<circle cx="9.95179" cy="34.5001" r="2.07831" transform="rotate(-90 9.95179 34.5001)" fill="#ADADAD"/>
<circle cx="17.6711" cy="34.5001" r="2.07831" transform="rotate(-90 17.6711 34.5001)" fill="#ADADAD"/>
</g>
<g opacity="0.5">
<circle cx="2.23237" cy="23.6927" r="2.07831" transform="rotate(-90 2.23237 23.6927)" fill="#ADADAD"/>
<circle cx="9.95179" cy="23.6927" r="2.07831" transform="rotate(-90 9.95179 23.6927)" fill="#ADADAD"/>
<circle cx="17.6711" cy="23.6927" r="2.07831" transform="rotate(-90 17.6711 23.6927)" fill="#ADADAD"/>
</g>
<g opacity="0.3">
<circle cx="2.23237" cy="12.8856" r="2.07831" transform="rotate(-90 2.23237 12.8856)" fill="#ADADAD"/>
<circle cx="9.95179" cy="12.8856" r="2.07831" transform="rotate(-90 9.95179 12.8856)" fill="#ADADAD"/>
<circle cx="17.6711" cy="12.8856" r="2.07831" transform="rotate(-90 17.6711 12.8856)" fill="#ADADAD"/>
</g>
<g opacity="0.1">
<circle cx="2.23237" cy="2.0783" r="2.07831" transform="rotate(-90 2.23237 2.0783)" fill="#ADADAD"/>
<circle cx="9.95179" cy="2.0783" r="2.07831" transform="rotate(-90 9.95179 2.0783)" fill="#ADADAD"/>
<circle cx="17.6711" cy="2.0783" r="2.07831" transform="rotate(-90 17.6711 2.0783)" fill="#ADADAD"/>
</g>
</svg>
