<svg width="18" height="18" viewBox="0 0 18 18" fill="none" xmlns="http://www.w3.org/2000/svg">
<path d="M5 15H6.5V13H8.5V11.5H6.5V9.5H5V11.5H3V13H5V15ZM10 14.25H15V12.75H10V14.25ZM10 11.75H15V10.25H10V11.75ZM11.1 7.95L12.5 6.55L13.9 7.95L14.95 6.9L13.55 5.45L14.95 4.05L13.9 3L12.5 4.4L11.1 3L10.05 4.05L11.45 5.45L10.05 6.9L11.1 7.95ZM3.25 6.2H8.25V4.7H3.25V6.2ZM2 18C1.45 18 0.979 17.8043 0.587 17.413C0.195667 17.021 0 16.55 0 16V2C0 1.45 0.195667 0.979 0.587 0.587C0.979 0.195667 1.45 0 2 0H16C16.55 0 17.021 0.195667 17.413 0.587C17.8043 0.979 18 1.45 18 2V16C18 16.55 17.8043 17.021 17.413 17.413C17.021 17.8043 16.55 18 16 18H2ZM2 16H16V2H2V16ZM2 2V16V2Z" fill="white"/>
</svg>
