<svg width="78" height="90" viewBox="0 0 78 90" fill="none" xmlns="http://www.w3.org/2000/svg">
<g filter="url(#filter0_f_811_8606)">
<path d="M17.9387 49.9065C17.9377 53.6322 18.9112 57.2702 20.7623 60.4767L17.7617 71.4323L28.9735 68.4926C32.0745 70.1807 35.549 71.0653 39.0797 71.0655H39.089C50.7447 71.0655 60.2327 61.5809 60.2377 49.9232C60.2399 44.2742 58.042 38.9622 54.0487 34.9658C50.056 30.9697 44.7459 28.7678 39.0881 28.7652C27.4311 28.7652 17.9437 38.2493 17.9389 49.9065" fill="url(#paint0_linear_811_8606)"/>
<path d="M17.1839 49.8996C17.1827 53.7594 18.1911 57.5274 20.1082 60.8487L17 72.1971L28.6138 69.152C31.8137 70.8967 35.4166 71.8166 39.0827 71.818H39.0921C51.166 71.818 60.9948 61.9922 61 49.9172C61.0021 44.0652 58.7251 38.5622 54.5891 34.4226C50.4525 30.2835 44.9525 28.0024 39.0921 28C27.0162 28 17.1889 37.8244 17.1841 49.8996H17.1839ZM24.1002 60.2768L23.6665 59.5884C21.8436 56.6899 20.8815 53.3404 20.8828 49.901C20.8868 39.8644 29.055 31.6988 39.099 31.6988C43.9631 31.7008 48.5342 33.5969 51.9724 37.0372C55.4105 40.4778 57.3023 45.0514 57.3011 49.9158C57.2966 59.9524 49.1282 68.1191 39.0921 68.1191H39.0849C35.817 68.1173 32.6121 67.2397 29.8171 65.5813L29.1519 65.1869L22.2601 66.9938L24.1002 60.2766V60.2768Z" fill="url(#paint1_linear_811_8606)"/>
<path d="M33.6164 40.7442C33.2063 39.8327 32.7747 39.8143 32.3847 39.7983C32.0654 39.7846 31.7003 39.7856 31.3356 39.7856C30.9705 39.7856 30.3774 39.923 29.876 40.4704C29.3741 41.0183 27.96 42.3424 27.96 45.0356C27.96 47.7288 29.9216 50.3315 30.195 50.6971C30.4688 51.062 33.9819 56.7655 39.5459 58.9597C44.17 60.7831 45.111 60.4204 46.1146 60.329C47.1184 60.2379 49.3534 59.0052 49.8094 57.727C50.2657 56.4489 50.2657 55.3534 50.1289 55.1244C49.9921 54.8964 49.627 54.7594 49.0796 54.4858C48.532 54.212 45.8408 52.8877 45.3391 52.705C44.8372 52.5224 44.4723 52.4313 44.1073 52.9794C43.7422 53.5267 42.6939 54.7594 42.3744 55.1244C42.0553 55.4904 41.7357 55.5359 41.1885 55.2621C40.6407 54.9875 38.8778 54.4101 36.7863 52.5455C35.1589 51.0945 34.0603 49.3027 33.741 48.7546C33.4216 48.2073 33.7068 47.9107 33.9813 47.6379C34.2272 47.3926 34.5289 46.9987 34.8028 46.6792C35.0758 46.3595 35.1669 46.1314 35.3494 45.7664C35.5321 45.401 35.4406 45.0813 35.304 44.8075C35.1669 44.5337 34.1031 41.8266 33.6164 40.7444" fill="white"/>
</g>
<path d="M8.3659 31.864C8.3644 37.2833 9.7804 42.5748 12.4729 47.2388L8.1084 63.1743L24.4164 58.8983C28.927 61.3538 33.9807 62.6405 39.1164 62.6408H39.1299C56.0836 62.6408 69.8844 48.845 69.8916 31.8883C69.8949 23.6715 66.6979 15.945 60.8894 10.132C55.0819 4.31954 47.3582 1.11679 39.1287 1.11304C22.1729 1.11304 8.37315 14.908 8.36615 31.864" fill="url(#paint2_linear_811_8606)"/>
<path d="M7.2675 31.854C7.26575 37.4683 8.7325 42.949 11.521 47.78L7 64.2868L23.8927 59.8575C28.5472 62.3952 33.7878 63.7332 39.1203 63.7352H39.134C56.696 63.7352 70.9925 49.4432 71 31.8795C71.003 23.3675 67.691 15.3632 61.675 9.342C55.6582 3.3215 47.6582 0.0035 39.134 0C21.569 0 7.27475 14.29 7.26775 31.854H7.2675ZM17.3275 46.948L16.6967 45.9468C14.0452 41.7308 12.6457 36.8588 12.6477 31.856C12.6535 17.2573 24.5345 5.38 39.144 5.38C46.219 5.383 52.868 8.141 57.869 13.145C62.8697 18.1495 65.6215 24.802 65.6198 31.8775C65.6133 46.4763 53.732 58.355 39.134 58.355H39.1235C34.3703 58.3525 29.7085 57.076 25.643 54.6637L24.6755 54.09L14.651 56.7183L17.3275 46.9478V46.948Z" fill="url(#paint3_linear_811_8606)"/>
<path d="M31.1689 18.537C30.5724 17.2113 29.9447 17.1845 29.3774 17.1613C28.9129 17.1413 28.3819 17.1428 27.8514 17.1428C27.3204 17.1428 26.4577 17.3425 25.7284 18.1388C24.9984 18.9358 22.9414 20.8618 22.9414 24.779C22.9414 28.6965 25.7947 32.4823 26.1924 33.014C26.5907 33.5448 31.7007 41.8408 39.7937 45.0323C46.5197 47.6845 47.8884 47.157 49.3482 47.024C50.8082 46.8915 54.0592 45.0985 54.7224 43.2393C55.3862 41.3803 55.3862 39.7868 55.1872 39.4538C54.9882 39.122 54.4572 38.9228 53.6609 38.5248C52.8644 38.1265 48.9499 36.2003 48.2202 35.9345C47.4902 35.669 46.9594 35.5365 46.4284 36.3338C45.8974 37.1298 44.3727 38.9228 43.9079 39.4538C43.4437 39.986 42.9789 40.0523 42.1829 39.654C41.3862 39.2545 38.8219 38.4148 35.7797 35.7025C33.4127 33.592 31.8147 30.9858 31.3502 30.1885C30.8857 29.3925 31.3004 28.961 31.6997 28.5643C32.0574 28.2075 32.4962 27.6345 32.8947 27.1698C33.2917 26.7048 33.4242 26.373 33.6897 25.842C33.9554 25.3105 33.8224 24.8455 33.6237 24.4473C33.4242 24.049 31.8769 20.1115 31.1689 18.5373" fill="white"/>
<defs>
<filter id="filter0_f_811_8606" x="0" y="11" width="78" height="78.1971" filterUnits="userSpaceOnUse" color-interpolation-filters="sRGB">
<feFlood flood-opacity="0" result="BackgroundImageFix"/>
<feBlend mode="normal" in="SourceGraphic" in2="BackgroundImageFix" result="shape"/>
<feGaussianBlur stdDeviation="8.5" result="effect1_foregroundBlur_811_8606"/>
</filter>
<linearGradient id="paint0_linear_811_8606" x1="38.9997" y1="71.4323" x2="38.9997" y2="28.7652" gradientUnits="userSpaceOnUse">
<stop stop-color="#1FAF38"/>
<stop offset="1" stop-color="#60D669"/>
</linearGradient>
<linearGradient id="paint1_linear_811_8606" x1="39" y1="72.1971" x2="39" y2="28" gradientUnits="userSpaceOnUse">
<stop stop-color="#F9F9F9"/>
<stop offset="1" stop-color="white"/>
</linearGradient>
<linearGradient id="paint2_linear_811_8606" x1="39" y1="63.1743" x2="39" y2="1.11304" gradientUnits="userSpaceOnUse">
<stop stop-color="#1FAF38"/>
<stop offset="1" stop-color="#60D669"/>
</linearGradient>
<linearGradient id="paint3_linear_811_8606" x1="39" y1="64.2868" x2="39" y2="0" gradientUnits="userSpaceOnUse">
<stop stop-color="#F9F9F9"/>
<stop offset="1" stop-color="white"/>
</linearGradient>
</defs>
</svg>
