<svg width="21" height="21" viewBox="0 0 21 21" fill="none" xmlns="http://www.w3.org/2000/svg">
<path d="M6.22346 7.35491L6.75836 7.75609C6.83286 7.65675 6.87823 7.53863 6.88938 7.41495C6.90053 7.29128 6.87703 7.16695 6.8215 7.05589C6.76596 6.94483 6.6806 6.85142 6.57498 6.78614C6.46935 6.72086 6.34763 6.68628 6.22346 6.68628V7.35491ZM4.21758 10.0294L3.68267 9.62824C3.60817 9.72758 3.5628 9.8457 3.55165 9.96937C3.5405 10.093 3.56401 10.2174 3.61954 10.3284C3.67507 10.4395 3.76043 10.5329 3.86606 10.5982C3.97168 10.6635 4.0934 10.698 4.21758 10.698V10.0294ZM17.2371 3.81653L17.7479 4.24846L17.2371 3.81653ZM2.88032 8.02354H6.22346V6.68628H2.88032V8.02354ZM5.68856 6.95373L3.68267 9.62824L4.75248 10.4306L6.75836 7.75609L5.68856 6.95373ZM4.21758 10.698H4.8862V9.36079H4.21758V10.698ZM4.8862 12.0353H2.88032V13.3726H4.8862V12.0353ZM5.55483 11.3667C5.55483 11.544 5.48439 11.7141 5.35899 11.8395C5.2336 11.9649 5.06353 12.0353 4.8862 12.0353V13.3726C5.4182 13.3726 5.9284 13.1612 6.30458 12.785C6.68075 12.4089 6.89208 11.8987 6.89208 11.3667H5.55483ZM4.8862 10.698C5.06353 10.698 5.2336 10.7685 5.35899 10.8939C5.48439 11.0193 5.55483 11.1893 5.55483 11.3667H6.89208C6.89208 10.8347 6.68075 10.3245 6.30458 9.9483C5.9284 9.57212 5.4182 9.36079 4.8862 9.36079V10.698ZM10.9038 6.68628H10.2352V8.02354H10.9038V6.68628ZM8.22934 8.69216V10.0294H9.56659V8.69216H8.22934ZM8.22934 10.0294V11.3667H9.56659V10.0294H8.22934ZM10.2352 9.36079H8.89797V10.698H10.2352V9.36079ZM12.2411 11.3667C12.2411 10.8347 12.0298 10.3245 11.6536 9.9483C11.2774 9.57212 10.7672 9.36079 10.2352 9.36079V10.698C10.4126 10.698 10.5826 10.7685 10.708 10.8939C10.8334 11.0193 10.9038 11.1893 10.9038 11.3667H12.2411ZM10.2352 13.3726C10.7672 13.3726 11.2774 13.1612 11.6536 12.785C12.0298 12.4089 12.2411 11.8987 12.2411 11.3667H10.9038C10.9038 11.544 10.8334 11.7141 10.708 11.8395C10.5826 11.9649 10.4126 12.0353 10.2352 12.0353V13.3726ZM10.2352 12.0353C10.0579 12.0353 9.88782 11.9649 9.76243 11.8395C9.63704 11.7141 9.56659 11.544 9.56659 11.3667H8.22934C8.22934 11.8987 8.44067 12.4089 8.81685 12.785C9.19302 13.1612 9.70323 13.3726 10.2352 13.3726V12.0353ZM10.2352 6.68628C9.70323 6.68628 9.19302 6.89761 8.81685 7.27379C8.44067 7.64997 8.22934 8.16017 8.22934 8.69216H9.56659C9.56659 8.51483 9.63704 8.34476 9.76243 8.21937C9.88782 8.09398 10.0579 8.02354 10.2352 8.02354V6.68628ZM16.2529 8.69216V11.3667H17.5901V8.69216H16.2529ZM14.9156 11.3667V8.69216H13.5784V11.3667H14.9156ZM15.5842 12.0353C15.4069 12.0353 15.2368 11.9649 15.1115 11.8395C14.9861 11.7141 14.9156 11.544 14.9156 11.3667H13.5784C13.5784 11.8987 13.7897 12.4089 14.1659 12.785C14.542 13.1612 15.0522 13.3726 15.5842 13.3726V12.0353ZM16.2529 11.3667C16.2529 11.544 16.1824 11.7141 16.057 11.8395C15.9316 11.9649 15.7616 12.0353 15.5842 12.0353V13.3726C16.1162 13.3726 16.6264 13.1612 17.0026 12.785C17.3788 12.4089 17.5901 11.8987 17.5901 11.3667H16.2529ZM15.5842 8.02354C15.7616 8.02354 15.9316 8.09398 16.057 8.21937C16.1824 8.34476 16.2529 8.51483 16.2529 8.69216H17.5901C17.5901 8.16017 17.3788 7.64997 17.0026 7.27379C16.6264 6.89761 16.1162 6.68628 15.5842 6.68628V8.02354ZM15.5842 6.68628C15.0522 6.68628 14.542 6.89761 14.1659 7.27379C13.7897 7.64997 13.5784 8.16017 13.5784 8.69216H14.9156C14.9156 8.51483 14.9861 8.34476 15.1115 8.21937C15.2368 8.09398 15.4069 8.02354 15.5842 8.02354V6.68628ZM10.2352 18.7216C7.92992 18.7216 5.71903 17.8058 4.08894 16.1757C2.45884 14.5456 1.54307 12.3347 1.54307 10.0294H0.205811C0.205811 12.6894 1.26248 15.2404 3.14336 17.1213C5.02424 19.0022 7.57526 20.0588 10.2352 20.0588V18.7216ZM18.9274 10.0294C18.9274 11.1709 18.7025 12.3012 18.2657 13.3558C17.8289 14.4103 17.1886 15.3686 16.3815 16.1757C15.5744 16.9828 14.6161 17.6231 13.5616 18.0599C12.507 18.4967 11.3767 18.7216 10.2352 18.7216V20.0588C12.8952 20.0588 15.4462 19.0022 17.3271 17.1213C19.208 15.2404 20.2646 12.6894 20.2646 10.0294H18.9274ZM10.2352 5.54138e-06C7.57526 5.54138e-06 5.02424 1.05667 3.14336 2.93755C1.26248 4.81843 0.205811 7.36945 0.205811 10.0294H1.54307C1.54307 7.72411 2.45884 5.51323 4.08894 3.88313C5.71903 2.25304 7.92992 1.33726 10.2352 1.33726V5.54138e-06ZM18.2588 4.01177C18.4361 4.01177 18.6062 4.08222 18.7315 4.20761C18.8569 4.333 18.9274 4.50307 18.9274 4.6804H20.2646C20.2646 4.1484 20.0533 3.6382 19.6771 3.26202C19.3009 2.88585 18.7907 2.67452 18.2588 2.67452V4.01177ZM18.2588 5.34903C18.0814 5.34903 17.9114 5.27858 17.786 5.15319C17.6606 5.0278 17.5901 4.85773 17.5901 4.6804H16.2529C16.2529 5.21239 16.4642 5.7226 16.8404 6.09877C17.2166 6.47495 17.7268 6.68628 18.2588 6.68628V5.34903ZM17.5901 4.6804C17.5901 4.51592 17.649 4.36614 17.7479 4.24846L16.7276 3.3846C16.4321 3.73362 16.2529 4.18695 16.2529 4.6804H17.5901ZM17.7479 4.24846C17.8106 4.1741 17.8888 4.11437 17.9771 4.07348C18.0653 4.03259 18.1615 4.01152 18.2588 4.01177V2.67452C17.6436 2.67452 17.094 2.95133 16.7276 3.3846L17.7479 4.24846ZM10.2352 1.33726C12.8215 1.33726 15.1443 2.4659 16.737 4.2605L17.7372 3.37256C16.7971 2.31096 15.6421 1.46128 14.3488 0.879852C13.0554 0.298421 11.6533 -0.0014867 10.2352 5.54138e-06V1.33726ZM18.0635 6.24499C18.6171 7.38968 18.9274 8.6721 18.9274 10.0294H20.2646C20.2646 8.46483 19.9062 6.98449 19.267 5.66328L18.0635 6.24632V6.24499ZM18.9274 4.6804C18.9276 4.82235 18.8826 4.96068 18.7989 5.07536C18.7152 5.19004 18.5973 5.27511 18.462 5.31827L18.8685 6.59134C19.2738 6.46201 19.6275 6.20719 19.8784 5.86369C20.1294 5.52019 20.2646 5.1058 20.2646 4.6804H18.9274ZM18.462 5.31827C18.3963 5.33894 18.3277 5.34931 18.2588 5.34903V6.68628C18.4656 6.68671 18.6713 6.65513 18.8685 6.59267L18.462 5.31827Z" fill="white"/>
</svg>
