<svg width="53" height="37" viewBox="0 0 53 37" fill="none" xmlns="http://www.w3.org/2000/svg">
<path d="M3.03679 36.7582V36.8549H0.950195V36.7582H1.09577C1.19282 36.7582 1.28987 36.7582 1.38692 36.7098C1.43545 36.6615 1.43545 36.6131 1.48397 36.5647C1.48397 36.5164 1.5325 36.3713 1.5325 36.1778V33.566C1.5325 33.3726 1.5325 33.2275 1.48397 33.1791C1.48397 33.1307 1.43545 33.0824 1.3384 33.034C1.28987 32.9856 1.19282 32.9856 1.09577 32.9856H0.950195V32.8889H3.03679V32.9856H2.89121C2.79416 32.9856 2.69711 32.9856 2.60006 33.034C2.55153 33.0824 2.50301 33.1307 2.50301 33.1791C2.50301 33.2275 2.45448 33.3726 2.45448 33.566V36.1778C2.45448 36.3713 2.45448 36.5164 2.50301 36.5647C2.50301 36.6131 2.55153 36.6615 2.64858 36.7098C2.69711 36.7582 2.79416 36.7582 2.89121 36.7582H3.03679Z" fill="#1B1B1A"/>
<path d="M5.26924 32.8889L7.25878 35.3556V33.6628C7.25878 33.4209 7.21026 33.2758 7.16173 33.1791C7.06468 33.0824 6.9191 33.034 6.67648 33.034V32.8889H7.98666V32.9856C7.84109 32.9856 7.69551 33.034 7.64698 33.0824C7.59846 33.1307 7.54993 33.1791 7.50141 33.2275C7.45288 33.3242 7.45288 33.4209 7.45288 33.6144V36.9033H7.35583L4.63841 33.6144V36.1294C4.63841 36.3713 4.68693 36.5164 4.78398 36.6131C4.92956 36.7098 5.02661 36.7582 5.17219 36.7582H5.26924V36.8549H3.862V36.7582C4.10463 36.7582 4.25021 36.7098 4.29873 36.6131C4.39578 36.5164 4.44431 36.3713 4.44431 36.1778V33.3726L4.34726 33.2758C4.25021 33.1791 4.20168 33.0824 4.10463 33.0824C4.0561 33.034 3.95905 33.034 3.81348 33.034V32.8889H5.26924Z" fill="#1B1B1A"/>
<path d="M11.626 35.5007L12.6936 32.8889H14.2949V32.9856H14.1493C14.0523 32.9856 13.9552 32.9856 13.8582 33.034C13.8096 33.0824 13.7611 33.1307 13.7611 33.1791C13.7611 33.2275 13.7126 33.3242 13.7126 33.566V36.1778C13.7126 36.3713 13.7126 36.5164 13.7611 36.5647C13.7611 36.6131 13.8096 36.6615 13.9067 36.7098C13.9552 36.7582 14.0523 36.7582 14.1978 36.7582H14.3434V36.8549H12.2568V36.7582H12.4024C12.4995 36.7582 12.5965 36.7582 12.6936 36.7098C12.7421 36.6615 12.7906 36.6131 12.7906 36.5647C12.7906 36.5164 12.8391 36.3713 12.8391 36.1778V33.2275L11.2863 36.8549H11.2378L9.68498 33.2758V36.0811C9.68498 36.2745 9.68498 36.4196 9.68498 36.4196C9.73351 36.5164 9.78203 36.6131 9.83056 36.6615C9.92761 36.7098 10.0732 36.7582 10.2188 36.7582V36.8549H8.86005V36.7582H8.90857C9.00562 36.7582 9.10268 36.7582 9.1512 36.7098C9.24825 36.6615 9.29678 36.6615 9.3453 36.5647C9.39383 36.5164 9.39383 36.4196 9.44235 36.3713C9.44235 36.3713 9.44235 36.2262 9.44235 36.0811V33.566C9.44235 33.3726 9.44235 33.2275 9.39383 33.1791C9.39383 33.1307 9.3453 33.0824 9.24825 33.034C9.19973 32.9856 9.10268 32.9856 8.9571 32.9856H8.81152V32.8889H10.4614L11.626 35.5007Z" fill="#1B1B1A"/>
<path d="M17.3512 32.8405C17.9821 32.8405 18.5159 32.9856 18.9041 33.3725C19.2923 33.7595 19.4864 34.2431 19.4864 34.8719C19.4864 35.3555 19.3408 35.8392 19.0496 36.2261C18.6614 36.7582 18.0791 37 17.3998 37C16.6719 37 16.1381 36.7582 15.7499 36.2745C15.4588 35.8876 15.2646 35.4523 15.2646 34.9202C15.2646 34.3399 15.4588 33.8562 15.847 33.4209C16.2837 32.9856 16.7689 32.7921 17.3512 32.8405ZM17.3998 33.034C17.0116 33.034 16.7689 33.2274 16.5748 33.6144C16.4293 33.9046 16.3322 34.3399 16.3322 34.9202C16.3322 35.5974 16.4293 36.081 16.6719 36.4196C16.8175 36.6614 17.0601 36.7582 17.3512 36.7582C17.5453 36.7582 17.7394 36.7098 17.8365 36.6131C18.0306 36.468 18.1276 36.2745 18.2247 36.0327C18.3217 35.7425 18.3703 35.4039 18.3703 34.9686C18.3703 34.4366 18.3217 34.0497 18.2247 33.8078C18.1276 33.566 17.9821 33.3725 17.8365 33.2758C17.7394 33.0823 17.5939 33.034 17.3998 33.034Z" fill="#1B1B1A"/>
<path d="M22.981 34.7752C23.3692 34.8719 23.6119 34.9687 23.7574 35.1138C24.0001 35.3072 24.0971 35.5007 24.0971 35.7909C24.0971 36.0811 24.0001 36.3229 23.7574 36.5164C23.4663 36.7582 23.0296 36.8549 22.4472 36.8549H20.4092V36.7582C20.6033 36.7582 20.7003 36.7582 20.7974 36.7098C20.8459 36.6615 20.8944 36.6131 20.943 36.5647C20.9915 36.5164 20.9915 36.3713 20.9915 36.1778V33.6144C20.9915 33.4209 20.9915 33.2758 20.943 33.2275C20.8944 33.1791 20.8459 33.1307 20.7974 33.0824C20.7489 33.034 20.6033 33.034 20.4092 33.034V32.8889H22.3017C22.7384 32.8889 23.0781 32.9373 23.2722 33.034C23.4663 33.1307 23.6119 33.2275 23.7089 33.4209C23.806 33.566 23.8545 33.7595 23.8545 33.953C23.8545 34.1464 23.806 34.2915 23.6604 34.485C23.5633 34.5334 23.3207 34.6785 22.981 34.7752ZM21.9135 34.9203V36.1778V36.3229C21.9135 36.4196 21.962 36.5164 22.0105 36.5647C22.059 36.6131 22.1561 36.6615 22.2531 36.6615C22.3987 36.6615 22.5443 36.6131 22.6899 36.5647C22.8355 36.5164 22.9325 36.3713 22.981 36.2745C23.0296 36.1294 23.0781 35.9843 23.0781 35.8392C23.0781 35.6458 23.0296 35.5007 22.9325 35.3556C22.8355 35.2105 22.7384 35.1138 22.5928 35.0654C22.4472 34.9203 22.2046 34.9203 21.9135 34.9203ZM21.9135 34.6785C22.2046 34.6785 22.3987 34.6301 22.5443 34.5817C22.6899 34.5334 22.7869 34.4366 22.8355 34.3399C22.884 34.2432 22.9325 34.0981 22.9325 33.9046C22.9325 33.7111 22.884 33.566 22.8355 33.4693C22.7869 33.3726 22.6899 33.2758 22.5443 33.2275C22.3987 33.1791 22.2046 33.1307 21.9135 33.1307V34.6785Z" fill="#1B1B1A"/>
<path d="M27.154 36.7582V36.8549H25.0674V36.7582H25.213C25.31 36.7582 25.4071 36.7582 25.5041 36.7098C25.5526 36.6615 25.6012 36.6131 25.6012 36.5647C25.6012 36.5164 25.6497 36.3713 25.6497 36.1778V33.566C25.6497 33.3726 25.6497 33.2275 25.6012 33.1791C25.6012 33.1307 25.5526 33.0824 25.4556 33.034C25.4071 32.9856 25.31 32.9856 25.213 32.9856H25.0674V32.8889H27.154V32.9856H27.0084C26.9113 32.9856 26.8143 32.9856 26.7172 33.034C26.6687 33.0824 26.6202 33.1307 26.6202 33.1791C26.6202 33.2275 26.5717 33.3726 26.5717 33.566V36.1778C26.5717 36.3713 26.5717 36.5164 26.6202 36.5647C26.6202 36.6131 26.6687 36.6615 26.7658 36.7098C26.8143 36.7582 26.9113 36.7582 27.0084 36.7582H27.154Z" fill="#1B1B1A"/>
<path d="M31.6664 35.4523L31.5209 36.8549H27.9785V36.7582H28.1241C28.2211 36.7582 28.3182 36.7582 28.4152 36.7098C28.4638 36.6615 28.5123 36.6131 28.5123 36.5647C28.5123 36.5164 28.5608 36.3713 28.5608 36.1778V33.566C28.5608 33.3726 28.5608 33.2275 28.5123 33.1791C28.5123 33.1307 28.4638 33.0824 28.3667 33.034C28.3182 32.9856 28.2211 32.9856 28.1241 32.9856H27.9785V32.8889H30.1136V32.9856H29.9195C29.8225 32.9856 29.7254 32.9856 29.6284 33.034C29.5799 33.0824 29.5313 33.1307 29.5313 33.1791C29.5313 33.2275 29.4828 33.3726 29.4828 33.566V36.0811C29.4828 36.2745 29.4828 36.4196 29.5313 36.468C29.5313 36.5164 29.5799 36.5647 29.6769 36.6131C29.7254 36.6131 29.8225 36.6615 30.0166 36.6615H30.3563C30.5504 36.6615 30.7445 36.6131 30.89 36.5647C31.0356 36.468 31.1327 36.3713 31.2782 36.2262C31.3753 36.0811 31.4723 35.8392 31.5694 35.5007H31.6664V35.4523Z" fill="#1B1B1A"/>
<path d="M34.7243 36.7582V36.8549H32.6377V36.7582H32.7833C32.8803 36.7582 32.9774 36.7582 33.0744 36.7098C33.1229 36.6615 33.1715 36.6131 33.1715 36.5647C33.1715 36.5164 33.22 36.3713 33.22 36.1778V33.566C33.22 33.3726 33.22 33.2275 33.1715 33.1791C33.1715 33.1307 33.1229 33.0824 33.0259 33.034C32.9774 32.9856 32.8803 32.9856 32.7833 32.9856H32.6377V32.8889H34.7243V32.9856H34.5787C34.4817 32.9856 34.3846 32.9856 34.2876 33.034C34.239 33.0824 34.1905 33.1307 34.1905 33.1791C34.1905 33.2275 34.142 33.3726 34.142 33.566V36.1778C34.142 36.3713 34.142 36.5164 34.1905 36.5647C34.1905 36.6131 34.239 36.6615 34.3361 36.7098C34.3846 36.7582 34.4817 36.7582 34.5787 36.7582H34.7243Z" fill="#1B1B1A"/>
<path d="M37.9748 35.7426H36.5676L36.3735 36.1295C36.3249 36.2746 36.2764 36.3713 36.2764 36.4681C36.2764 36.5648 36.3249 36.6615 36.422 36.7099C36.4705 36.7583 36.6161 36.7582 36.8102 36.7582V36.855H35.5V36.7582C35.6456 36.7582 35.7426 36.6615 35.8397 36.5648C35.9367 36.4681 36.0338 36.2746 36.1794 35.9844L37.5866 32.7922H37.6351L39.0909 36.0328C39.2365 36.323 39.3335 36.5164 39.4306 36.6131C39.4791 36.6615 39.5761 36.7099 39.7217 36.7099V36.8066H37.7807V36.7582H37.8777C38.0233 36.7582 38.1204 36.7583 38.2174 36.7099C38.266 36.6615 38.266 36.6132 38.266 36.5648C38.266 36.5164 38.266 36.5164 38.266 36.4681C38.266 36.4681 38.2174 36.3713 38.1689 36.2262L37.9748 35.7426ZM37.8292 35.5007L37.2469 34.1465L36.6161 35.5007H37.8292Z" fill="#1B1B1A"/>
<path d="M42.0026 35.0654V36.1778C42.0026 36.3713 42.0026 36.5164 42.0512 36.5647C42.0997 36.6131 42.1482 36.6615 42.1967 36.7098C42.2453 36.7582 42.3908 36.7582 42.5849 36.7582V36.8549H40.5469V36.7582C40.741 36.7582 40.838 36.7582 40.9351 36.7098C40.9836 36.6615 41.0321 36.6131 41.0807 36.5647C41.1292 36.5164 41.1292 36.3713 41.1292 36.1778V33.6144C41.1292 33.4209 41.1292 33.2758 41.0807 33.2275C41.0321 33.1791 40.9836 33.1307 40.9351 33.0824C40.8866 33.034 40.741 33.034 40.5469 33.034V32.8889H42.3908C42.8761 32.8889 43.2158 32.9373 43.4584 32.9856C43.701 33.034 43.8466 33.1791 43.9922 33.3726C44.1378 33.566 44.1863 33.7595 44.1863 34.0013C44.1863 34.2915 44.0892 34.5334 43.8466 34.7268C43.701 34.8719 43.5069 34.9203 43.2643 35.017L44.2348 36.3713C44.3804 36.5647 44.4289 36.6615 44.526 36.7098C44.623 36.7582 44.7201 36.8066 44.8171 36.8066V36.9033H43.5555L42.2938 35.1138H42.0026V35.0654ZM42.0026 33.0824V34.8236H42.1482C42.4394 34.8236 42.6335 34.7752 42.779 34.7268C42.9246 34.6785 43.0217 34.5817 43.1187 34.4366C43.2158 34.2915 43.2158 34.1464 43.2158 33.9046C43.2158 33.6144 43.1672 33.3726 43.0217 33.2275C42.8761 33.0824 42.6335 33.034 42.3423 33.034H42.0026V33.0824Z" fill="#1B1B1A"/>
<path d="M47.5831 36.7582V36.8549H45.4965V36.7582H45.5935C45.6906 36.7582 45.7876 36.7582 45.8847 36.7098C45.9332 36.6615 45.9817 36.6131 45.9817 36.5647C45.9817 36.5164 46.0302 36.3713 46.0302 36.1778V33.566C46.0302 33.3726 46.0302 33.2275 45.9817 33.1791C45.9817 33.1307 45.9332 33.0824 45.8361 33.034C45.7876 32.9856 45.6906 32.9856 45.545 32.9856H45.3994V32.8889H47.486V32.9856H47.3404C47.2434 32.9856 47.1463 32.9856 47.0493 33.034C47.0008 33.0824 46.9522 33.1307 46.9522 33.1791C46.9522 33.2275 46.9037 33.3726 46.9037 33.566V36.1778C46.9037 36.3713 46.9037 36.5164 46.9522 36.5647C46.9522 36.6131 47.0008 36.6615 47.0978 36.7098C47.1463 36.7582 47.2434 36.7582 47.3404 36.7582H47.5831Z" fill="#1B1B1A"/>
<path d="M50.7856 35.7426H49.3784L49.2328 36.1295C49.1843 36.2746 49.1358 36.3713 49.1358 36.4681C49.1358 36.5648 49.1843 36.6615 49.2814 36.7099C49.3299 36.7583 49.4755 36.7582 49.6696 36.7582V36.855H48.3594V36.7582C48.505 36.7582 48.602 36.6615 48.6991 36.5648C48.7961 36.4681 48.8932 36.2746 49.0387 35.9844L50.446 32.7922H50.4945L51.9503 36.0328C52.0958 36.323 52.1929 36.5164 52.2899 36.6131C52.3385 36.6615 52.4355 36.7099 52.5811 36.7099V36.8066H50.6401V36.7582H50.7371C50.8827 36.7582 50.9798 36.7583 51.0768 36.7099C51.1253 36.6615 51.1253 36.6132 51.1253 36.5648C51.1253 36.5164 51.1253 36.5164 51.1253 36.4681C51.1253 36.4681 51.0768 36.3713 51.0283 36.2262L50.7856 35.7426ZM50.6886 35.5007L50.1063 34.1465L49.4755 35.5007H50.6886Z" fill="#1B1B1A"/>
<path fill-rule="evenodd" clip-rule="evenodd" d="M43.7013 23.9413L44.9144 20.9426C45.4482 21.3295 45.9819 21.6197 46.4187 21.8132C46.8554 22.0066 47.2436 22.1034 47.6318 22.1034C47.923 22.1034 48.1171 22.055 48.2626 21.9583C48.4082 21.8615 48.5053 21.7164 48.5053 21.5713C48.5053 21.2811 48.1171 21.0393 47.3407 20.8942C47.098 20.8458 46.9039 20.7975 46.7584 20.7491C45.9334 20.5556 45.3511 20.2171 44.9144 19.6851C44.4777 19.2014 44.2836 18.5726 44.2836 17.7988C44.2836 16.638 44.7203 15.719 45.5452 14.9935C46.3702 14.2681 47.4862 13.9295 48.7964 13.9295C49.4273 13.9295 50.0096 14.0262 50.6404 14.1713C51.2227 14.3164 51.8535 14.5583 52.4358 14.8968L51.2712 17.702C50.883 17.4118 50.5433 17.2184 50.1551 17.0733C49.7669 16.9282 49.4273 16.8798 49.0391 16.8798C48.7479 16.8798 48.5538 16.9282 48.4082 17.0249C48.2626 17.1217 48.1656 17.2184 48.1656 17.4118C48.1656 17.702 48.6994 17.9922 49.7669 18.2341C49.961 18.2824 50.0581 18.2824 50.1551 18.3308C50.883 18.4759 51.4653 18.8145 51.9021 19.3465C52.3388 19.8785 52.5329 20.4589 52.5329 21.2328C52.5329 22.4419 52.0962 23.4092 51.2227 24.1347C50.3492 24.9086 49.2332 25.2471 47.8744 25.2471C47.1466 25.2471 46.4672 25.1504 45.7393 24.9569C45.1085 24.6667 44.3806 24.3282 43.7013 23.9413ZM43.0219 19.4916C43.0219 20.2654 42.8763 20.9909 42.5852 21.6681C42.294 22.3452 41.9058 22.9739 41.372 23.506C40.8383 24.038 40.2074 24.4249 39.5281 24.7151C38.8002 25.0053 38.0723 25.1504 37.2959 25.1504C36.471 25.1504 35.7431 25.0053 35.0152 24.7151C34.2873 24.4249 33.705 24.038 33.1227 23.506C32.5889 22.9739 32.2007 22.3935 31.9096 21.7164C31.6184 21.0393 31.4729 20.3138 31.4729 19.4916C31.4729 18.7177 31.6184 17.9439 31.9096 17.2668C32.2007 16.5896 32.5889 16.0092 33.1227 15.4772C33.6565 14.9452 34.2873 14.5583 34.9667 14.2681C35.646 13.9779 36.4224 13.8328 37.2474 13.8328C38.0723 13.8328 38.8002 13.9779 39.5281 14.2681C40.256 14.5583 40.8383 14.9452 41.4206 15.4772C41.9543 16.0092 42.3425 16.5896 42.6337 17.2668C42.8763 17.9922 43.0219 18.7177 43.0219 19.4916ZM37.2474 21.523C37.7812 21.523 38.2179 21.3295 38.5576 20.9909C38.8972 20.604 39.0428 20.1203 39.0428 19.54C39.0428 18.9112 38.8972 18.4275 38.5576 18.0406C38.2179 17.6537 37.7812 17.4602 37.2474 17.4602C36.7136 17.4602 36.2769 17.6537 35.9372 18.0406C35.5975 18.4275 35.4519 18.9112 35.4519 19.54C35.4519 20.1687 35.5975 20.6524 35.9372 20.9909C36.2769 21.3295 36.7136 21.523 37.2474 21.523ZM20.6032 24.8602V14.123H24.3881V18.7177L26.8629 14.123H31.2787L28.0275 19.3949L31.764 24.8602H27.057L24.4367 20.3622V24.8602H20.6032ZM14.586 14.123H18.5166V24.8602H14.586V14.123ZM12.8876 19.4916C12.8876 20.2654 12.742 20.9909 12.4509 21.6681C12.1597 22.3452 11.7715 22.9739 11.2378 23.506C10.704 24.038 10.0731 24.4249 9.34526 24.7151C8.61738 25.0053 7.8895 25.1504 7.11309 25.1504C6.28816 25.1504 5.51175 25.0053 4.83239 24.7151C4.10451 24.4249 3.52221 24.038 2.9399 23.506C2.40612 22.9739 2.01792 22.3935 1.72677 21.7164C1.43562 21.0393 1.29004 20.3138 1.29004 19.4916C1.29004 18.7177 1.43562 17.9439 1.72677 17.2668C2.01792 16.5896 2.40612 16.0092 2.9399 15.4772C3.47368 14.9452 4.10451 14.5583 4.78387 14.2681C5.46323 13.9779 6.23963 13.8328 7.06456 13.8328C7.8895 13.8328 8.61738 13.9779 9.34526 14.2681C10.0731 14.5583 10.6554 14.9452 11.2378 15.4772C11.7715 16.0092 12.1597 16.5896 12.4509 17.2668C12.742 17.9922 12.8876 18.7177 12.8876 19.4916ZM7.11309 21.523C7.64687 21.523 8.0836 21.3295 8.42328 20.9909C8.76295 20.604 8.90853 20.1203 8.90853 19.54C8.90853 18.9112 8.76295 18.4275 8.42328 18.0406C8.0836 17.6537 7.64687 17.4602 7.11309 17.4602C6.57931 17.4602 6.14258 17.6537 5.8029 18.0406C5.46323 18.4275 5.31765 18.9112 5.31765 19.54C5.31765 20.1687 5.46323 20.6524 5.8029 20.9909C6.09406 21.3295 6.53078 21.523 7.11309 21.523Z" fill="#1B1B1A"/>
<path fill-rule="evenodd" clip-rule="evenodd" d="M1.38672 7.59339V10.3986L21.4277 2.61169L38.169 10.3502H52.5325L29.2888 0.14502H19.6323L1.38672 7.59339Z" fill="#1A41E5"/>
<path d="M52.6302 27.085H1.33887V30.4706H52.6302V27.085Z" fill="#1A41E5"/>
<path d="M49.7181 0C48.6505 0 47.7285 0.870588 47.7285 1.98301C47.7285 3.04706 48.602 3.96601 49.7181 3.96601C50.7856 3.96601 51.7076 3.09542 51.7076 1.98301C51.6591 0.870588 50.7856 0 49.7181 0ZM49.7181 3.82091C48.699 3.82091 47.8741 2.99869 47.8741 1.98301C47.8741 0.96732 48.699 0.145098 49.7181 0.145098C50.7371 0.145098 51.562 0.96732 51.562 1.98301C51.5135 2.99869 50.6886 3.82091 49.7181 3.82091Z" fill="#1F140F"/>
<path d="M48.8447 3.04708V0.870605H49.7667C50.0093 0.870605 50.1549 0.870605 50.252 0.918971C50.349 0.967337 50.4461 1.0157 50.4946 1.11244C50.5431 1.20917 50.5916 1.3059 50.5916 1.451C50.5916 1.5961 50.5431 1.74119 50.4461 1.83793C50.349 1.93466 50.2034 2.03139 50.0093 2.03139C50.1064 2.07976 50.2034 2.12812 50.252 2.22485C50.3005 2.27322 50.3975 2.41832 50.4946 2.56342L50.7372 2.99871H50.2034L49.8638 2.51505C49.7667 2.36995 49.6647 2.24028 49.6211 2.17649C49.5776 2.11269 49.5737 2.08803 49.5243 2.06035C49.4749 2.03267 49.4333 2.03139 49.3785 2.03139H49.3298V2.99871H48.8931L48.8447 3.04708ZM49.2815 1.78956H49.6211C49.8152 1.78956 49.9608 1.78956 50.0093 1.74119C50.0579 1.74119 50.1064 1.69283 50.1549 1.64446C50.2034 1.5961 50.2034 1.54773 50.2034 1.49936C50.2034 1.40263 50.2034 1.35427 50.1549 1.3059C50.1064 1.25753 50.0579 1.20917 50.0093 1.20917C49.9608 1.20917 49.8638 1.20917 49.6697 1.20917H49.33V1.78956H49.2815Z" fill="#1F140F"/>
<path d="M18.4138 0.759277L21.4509 2.53093L17.6545 4.04949L14.3643 2.27784L18.4138 0.759277Z" fill="url(#paint0_linear_688_5659)"/>
<defs>
<linearGradient id="paint0_linear_688_5659" x1="18.6668" y1="-1.01238" x2="17.4014" y2="3.03712" gradientUnits="userSpaceOnUse">
<stop/>
<stop offset="1" stop-opacity="0"/>
</linearGradient>
</defs>
</svg>
