<svg width="87" height="69" viewBox="0 0 87 69" fill="none" xmlns="http://www.w3.org/2000/svg">
<g clip-path="url(#clip0_423_2679)">
<path d="M6.87189 61.3652V63.6954H6.67797C6.53233 63.0879 6.26116 62.6212 5.86528 62.2978C5.46779 61.9743 5.01799 61.811 4.51589 61.811C4.09587 61.811 3.71044 61.9316 3.36042 62.173C3.0096 62.4144 2.75372 62.7307 2.59119 63.1209C2.38278 63.6198 2.27898 64.175 2.27898 64.7865C2.27898 65.398 2.35462 65.9372 2.5075 66.4312C2.65958 66.9253 2.89695 67.2986 3.22122 67.5513C3.54549 67.8047 3.96471 67.9311 4.48049 67.9311C4.90373 67.9311 5.29157 67.8385 5.644 67.6535C5.99644 67.4676 6.36738 67.1498 6.75682 66.6959V67.2761C6.38025 67.6704 5.98759 67.9552 5.57963 68.1322C5.17087 68.3093 4.69452 68.3978 4.14817 68.3978C3.43123 68.3978 2.79315 68.2537 2.23634 67.9657C1.67952 67.6784 1.24904 67.2656 0.946495 66.7265C0.643949 66.1874 0.492676 65.6137 0.492676 65.0054C0.492676 64.3641 0.660846 63.7558 0.995578 63.1797C1.33192 62.6051 1.78413 62.1586 2.35462 61.8407C2.92431 61.5229 3.53101 61.3652 4.17231 61.3652C4.64544 61.3652 5.14432 61.4674 5.67056 61.6726C5.97471 61.7924 6.16783 61.8512 6.2507 61.8512C6.35611 61.8512 6.44865 61.8126 6.52589 61.7345C6.60314 61.6573 6.65383 61.5334 6.67716 61.3652H6.87108H6.87189Z" fill="#2A3C7F"/>
<path d="M11.3498 61.4255C12.4199 61.3853 13.2914 61.6975 13.96 62.3621C14.6295 63.0268 14.9642 63.8588 14.9642 64.8573C14.9642 65.7111 14.7148 66.4602 14.2159 67.1087C13.5545 67.9681 12.6203 68.3978 11.4133 68.3978C10.2064 68.3978 9.26814 67.9882 8.60672 67.1675C8.08451 66.5205 7.823 65.7513 7.823 64.8613C7.823 63.8636 8.16336 63.0316 8.84248 62.3645C9.5208 61.6991 10.3576 61.3853 11.3489 61.4255H11.3498ZM11.4085 61.7426C10.7929 61.7426 10.3254 62.0572 10.0044 62.6848C9.74288 63.2006 9.61253 63.9408 9.61253 64.9064C9.61253 66.0538 9.81449 66.9027 10.2184 67.4507C10.4992 67.8345 10.8927 68.026 11.3988 68.026C11.7392 68.026 12.0232 67.9439 12.2518 67.7782C12.5422 67.5658 12.7691 67.2286 12.9309 66.7635C13.0934 66.2992 13.1739 65.6942 13.1739 64.9466C13.1739 64.0575 13.0918 63.3921 12.9269 62.9503C12.7611 62.5094 12.5511 62.1972 12.2944 62.0153C12.0385 61.8343 11.7432 61.7426 11.4093 61.7426" fill="#2A3C7F"/>
<path d="M17.8562 61.5197L21.1737 65.6893V62.7982C21.1737 62.3951 21.1158 62.1231 20.9999 61.9799C20.8406 61.7884 20.575 61.6967 20.2017 61.7023V61.5197H22.4233V61.7023C22.1393 61.7385 21.9478 61.786 21.8512 61.8431C21.753 61.9019 21.6774 61.9952 21.6227 62.1264C21.568 62.2567 21.5406 62.4796 21.5406 62.7974V68.3961H21.3716L16.8246 62.7974V67.0725C16.8246 67.4587 16.9123 67.7202 17.0901 67.857C17.2672 67.9914 17.4691 68.0598 17.6976 68.0598H17.857V68.2425H15.4712V68.0598C15.8421 68.0566 16.0996 67.9801 16.2453 67.8313C16.3909 67.6824 16.4633 67.4306 16.4633 67.0725V62.3267L16.3193 62.1481C16.1769 61.9695 16.0521 61.8528 15.9427 61.7965C15.8341 61.7401 15.6772 61.7088 15.4712 61.7015V61.5189H17.857L17.8562 61.5197Z" fill="#2A3C7F"/>
<path d="M27.4321 61.3603L27.4869 63.6013H27.2833C27.1875 63.0396 26.9518 62.5874 26.5768 62.2447C26.2018 61.9027 25.7955 61.7313 25.3586 61.7313C25.0222 61.7313 24.7543 61.8214 24.558 62.0016C24.3608 62.1819 24.2635 62.3895 24.2635 62.6236C24.2635 62.7725 24.2981 62.9053 24.3681 63.0203C24.4638 63.1764 24.6175 63.3293 24.8291 63.4822C24.9844 63.5908 25.3425 63.7847 25.9049 64.0623C26.6919 64.4494 27.2221 64.8139 27.4965 65.1575C27.7685 65.5018 27.9037 65.8953 27.9037 66.3387C27.9037 66.9003 27.684 67.3839 27.2463 67.7894C26.8077 68.195 26.2525 68.3969 25.5774 68.3969C25.3658 68.3969 25.1663 68.3752 24.9772 68.3326C24.7897 68.2899 24.5523 68.2087 24.2683 68.0896C24.109 68.0236 23.9786 67.9906 23.8764 67.9906C23.7903 67.9906 23.6994 68.0236 23.6036 68.0896C23.5071 68.1564 23.4298 68.2569 23.3703 68.3921H23.186V65.8527H23.3703C23.5159 66.5672 23.796 67.1119 24.2103 67.4869C24.6255 67.8619 25.0721 68.0501 25.5517 68.0501C25.9218 68.0501 26.2171 67.9488 26.4368 67.7476C26.6565 67.5464 26.7659 67.3107 26.7659 67.0435C26.7659 66.885 26.7241 66.7305 26.6396 66.5825C26.5551 66.4336 26.4271 66.292 26.2549 66.1584C26.0836 66.0249 25.7794 65.8494 25.3425 65.6354C24.731 65.3345 24.2908 65.0786 24.0237 64.8662C23.7557 64.6562 23.5497 64.4188 23.4065 64.1573C23.2625 63.8958 23.1909 63.6085 23.1909 63.2939C23.1909 62.7588 23.3872 62.3026 23.7807 61.9252C24.1741 61.5486 24.6698 61.3595 25.2685 61.3595C25.4865 61.3595 25.6981 61.3861 25.9033 61.4392C26.0586 61.4786 26.2477 61.5519 26.4714 61.6597C26.6943 61.7675 26.8504 61.8214 26.9397 61.8214C27.029 61.8214 27.0942 61.7949 27.1425 61.7409C27.1924 61.6886 27.239 61.5615 27.2817 61.3595H27.4305L27.4321 61.3603Z" fill="#2A3C7F"/>
<path d="M34.7173 61.6734V63.4935H34.5387C34.4324 63.0734 34.3158 62.7717 34.187 62.5882C34.0575 62.4048 33.8813 62.2591 33.6568 62.1489C33.5304 62.0902 33.3108 62.0604 32.997 62.0604H32.4957V67.2471C32.4957 67.5907 32.515 67.8063 32.5528 67.8916C32.5914 67.9769 32.6646 68.0526 32.7765 68.1177C32.8867 68.1821 33.038 68.2143 33.2303 68.2143H33.4532V68.397H29.9313V68.2143H30.155C30.3497 68.2143 30.5066 68.1797 30.6257 68.1097C30.7118 68.063 30.7794 67.985 30.8284 67.8731C30.8647 67.7935 30.8832 67.5851 30.8832 67.2471V62.0604H30.3972C29.9441 62.0604 29.6158 62.1569 29.4099 62.3468C29.1226 62.6156 28.9408 62.9978 28.8643 63.4935H28.676V61.6734H34.7165H34.7173Z" fill="#2A3C7F"/>
<path d="M37.7815 65.3329V67.2173C37.7815 67.581 37.8032 67.8104 37.8483 67.9045C37.8925 67.9987 37.9714 68.0735 38.084 68.1298C38.1967 68.1861 38.4067 68.2143 38.7133 68.2143V68.397H35.2718V68.2143C35.5824 68.2143 35.7932 68.1853 35.9034 68.1282C36.0145 68.0703 36.0917 67.9946 36.1368 67.9021C36.181 67.8096 36.2036 67.581 36.2036 67.2173V62.8538C36.2036 62.4901 36.181 62.2607 36.1368 62.1666C36.0917 62.0733 36.0137 61.9976 35.901 61.9413C35.7884 61.885 35.5792 61.8568 35.271 61.8568V61.6742H38.3954C39.2081 61.6742 39.8044 61.7305 40.1801 61.8431C40.5575 61.955 40.8641 62.1626 41.1022 62.4643C41.3404 62.7677 41.4595 63.1217 41.4595 63.5289C41.4595 64.0245 41.2809 64.4341 40.9244 64.7584C40.6959 64.9635 40.3773 65.1172 39.9677 65.2194L41.5842 67.4958C41.795 67.7903 41.9463 67.9737 42.0356 68.0461C42.1708 68.1483 42.3277 68.2054 42.5072 68.2151V68.3978H40.3893L38.2224 65.3329H37.7807H37.7815ZM37.7815 62.0354V64.9812H38.0639C38.5234 64.9812 38.8669 64.9394 39.0955 64.8549C39.324 64.7704 39.5034 64.6191 39.6338 64.3987C39.7641 64.179 39.8293 63.8918 39.8293 63.5377C39.8293 63.0252 39.7094 62.647 39.4696 62.4024C39.2298 62.1577 38.8436 62.0354 38.3117 62.0354H37.7815Z" fill="#2A3C7F"/>
<path d="M42.6569 61.514H46.1281V61.6967H45.9543C45.6928 61.6967 45.5134 61.724 45.416 61.7788C45.3186 61.8335 45.2494 61.9083 45.2076 62.0041C45.1666 62.1006 45.1456 62.3404 45.1456 62.7234V66.016C45.1456 66.6179 45.1907 67.017 45.2816 67.2109C45.3726 67.4064 45.523 67.5674 45.7306 67.6969C45.939 67.8257 46.2013 67.8908 46.5192 67.8908C46.8829 67.8908 47.1927 67.8096 47.4485 67.6454C47.7052 67.4813 47.8967 67.256 48.0239 66.9687C48.151 66.6806 48.2154 66.1802 48.2154 65.4656V62.7234C48.2154 62.4225 48.184 62.2068 48.1212 62.0789C48.0585 61.9502 47.9788 61.86 47.883 61.8109C47.7342 61.7345 47.5242 61.6959 47.253 61.6959V61.5132H49.5792V61.6959H49.44C49.2509 61.6959 49.094 61.7345 48.9685 61.8109C48.8422 61.8866 48.7521 62.0008 48.6957 62.1529C48.6531 62.2591 48.6314 62.449 48.6314 62.7234V65.2774C48.6314 66.0675 48.5791 66.6372 48.4745 66.988C48.3699 67.338 48.1164 67.6599 47.7133 67.9552C47.3101 68.2489 46.7598 68.3961 46.0621 68.3961C45.4796 68.3961 45.0306 68.3189 44.7136 68.1636C44.2798 67.9512 43.9749 67.68 43.7963 67.3501C43.6176 67.0186 43.5283 66.5744 43.5283 66.016V62.7234C43.5283 62.3356 43.5066 62.0958 43.4639 62.0016C43.4205 61.9075 43.3465 61.8319 43.2403 61.7763C43.1348 61.7192 42.9393 61.6927 42.6553 61.6967V61.514H42.6569Z" fill="#2A3C7F"/>
<path d="M56.5329 61.3652V63.6954H56.339C56.1942 63.0879 55.923 62.6212 55.5263 62.2978C55.1297 61.9743 54.6799 61.811 54.1778 61.811C53.7577 61.811 53.3723 61.9316 53.0223 62.173C52.6715 62.4144 52.4156 62.7307 52.2531 63.1209C52.0446 63.6198 51.9409 64.175 51.9409 64.7865C51.9409 65.398 52.0165 65.9372 52.1694 66.4312C52.3214 66.9253 52.5588 67.2986 52.8831 67.5513C53.2074 67.8047 53.6266 67.9311 54.1424 67.9311C54.5656 67.9311 54.9534 67.8385 55.3059 67.6535C55.6575 67.4676 56.0284 67.1498 56.4187 66.6959V67.2761C56.0421 67.6704 55.6495 67.9552 55.2407 68.1322C54.8327 68.3093 54.3556 68.3978 53.81 68.3978C53.0931 68.3978 52.455 68.2537 51.8982 67.9657C51.3414 67.6784 50.9109 67.2656 50.6084 66.7265C50.3058 66.1874 50.1545 65.6137 50.1545 65.0054C50.1545 64.3641 50.3227 63.7558 50.6574 63.1797C50.9938 62.6051 51.446 62.1586 52.0165 61.8407C52.5862 61.5229 53.1929 61.3652 53.8334 61.3652C54.3065 61.3652 54.8054 61.4674 55.3316 61.6726C55.6358 61.7924 55.8289 61.8512 55.9118 61.8512C56.018 61.8512 56.1097 61.8126 56.1878 61.7345C56.265 61.6573 56.3157 61.5334 56.3382 61.3652H56.5321H56.5329Z" fill="#2A3C7F"/>
<path d="M63.4954 61.6734V63.4935H63.3167C63.2105 63.0734 63.0938 62.7717 62.9643 62.5882C62.8348 62.4048 62.6585 62.2591 62.434 62.1489C62.3085 62.0902 62.088 62.0604 61.7742 62.0604H61.2729V67.2471C61.2729 67.5907 61.2922 67.8063 61.3301 67.8916C61.3679 67.9769 61.4419 68.0526 61.5538 68.1177C61.664 68.1821 61.8153 68.2143 62.0076 68.2143H62.2305V68.397H58.7093V68.2143H58.933C59.1278 68.2143 59.2847 68.1797 59.4038 68.1097C59.4898 68.063 59.5574 67.985 59.6065 67.8731C59.6427 67.7935 59.6612 67.5851 59.6612 67.2471V62.0604H59.1752C58.7222 62.0604 58.3931 62.1569 58.1879 62.3468C57.9007 62.6156 57.7188 62.9978 57.6424 63.4935H57.4541V61.6734H63.4946H63.4954Z" fill="#2A3C7F"/>
<path d="M67.6016 61.4255C68.6725 61.3853 69.5432 61.6975 70.2126 62.3621C70.8821 63.0268 71.2168 63.8588 71.2168 64.8573C71.2168 65.7111 70.9674 66.4602 70.4685 67.1087C69.8071 67.9681 68.8729 68.3978 67.6667 68.3978C66.4606 68.3978 65.5207 67.9882 64.8601 67.1675C64.3371 66.5205 64.0764 65.7513 64.0764 64.8613C64.0764 63.8636 64.4168 63.0316 65.0959 62.3645C65.775 61.6991 66.6102 61.3853 67.6024 61.4255H67.6016ZM67.6619 61.7426C67.0464 61.7426 66.5789 62.0572 66.2586 62.6848C65.9971 63.2006 65.8667 63.9408 65.8667 64.9064C65.8667 66.0538 66.0687 66.9027 66.4726 67.4507C66.7535 67.8345 67.1477 68.026 67.6531 68.026C67.9934 68.026 68.2783 67.9439 68.506 67.7782C68.7973 67.5658 69.0234 67.2286 69.1851 66.7635C69.3476 66.2992 69.4281 65.6942 69.4281 64.9466C69.4281 64.0575 69.346 63.3921 69.1803 62.9503C69.0145 62.5094 68.8045 62.1972 68.5478 62.0153C68.2919 61.8343 67.9966 61.7426 67.6627 61.7426" fill="#2A3C7F"/>
<path d="M74.276 65.3329V67.2173C74.276 67.581 74.2986 67.8104 74.3428 67.9045C74.3879 67.9987 74.4667 68.0735 74.5786 68.1298C74.6912 68.1861 74.9004 68.2143 75.2078 68.2143V68.397H71.7664V68.2143C72.0769 68.2143 72.2878 68.1853 72.3988 68.1282C72.5098 68.0703 72.5871 67.9946 72.6313 67.9021C72.6764 67.8096 72.6989 67.581 72.6989 67.2173V62.8538C72.6989 62.4901 72.6764 62.2607 72.6313 62.1666C72.5871 62.0733 72.509 61.9976 72.3964 61.9413C72.2837 61.885 72.0737 61.8568 71.7664 61.8568V61.6742H74.8908C75.7035 61.6742 76.2997 61.7305 76.6755 61.8431C77.0529 61.955 77.3602 62.1626 77.5984 62.4643C77.8366 62.7677 77.9557 63.1217 77.9557 63.5289C77.9557 64.0245 77.777 64.4341 77.4198 64.7584C77.1913 64.9635 76.8726 65.1172 76.4623 65.2194L78.0796 67.4958C78.2904 67.7903 78.4417 67.9737 78.531 68.0461C78.6662 68.1483 78.8231 68.2054 79.0025 68.2151V68.3978H76.8839L74.717 65.3329H74.2752H74.276ZM74.276 62.0354V64.9812H74.5593C75.0187 64.9812 75.3623 64.9394 75.5908 64.8549C75.8193 64.7704 75.998 64.6191 76.1283 64.3987C76.2587 64.179 76.3239 63.8918 76.3239 63.5377C76.3239 63.0252 76.204 62.647 75.965 62.4024C75.7252 62.1577 75.339 62.0354 74.8063 62.0354H74.276Z" fill="#2A3C7F"/>
<path d="M83.1384 66.4827H80.7631L80.4807 67.1377C80.3882 67.3557 80.3423 67.536 80.3423 67.6784C80.3423 67.8667 80.4179 68.0051 80.57 68.0952C80.6593 68.1475 80.879 68.1869 81.2298 68.2143V68.397H78.9929V68.2143C79.2343 68.1781 79.4323 68.0767 79.5884 67.9142C79.7436 67.75 79.936 67.4121 80.1637 66.8995L82.5688 61.5341H82.6629L85.0881 67.0484C85.3206 67.5706 85.5105 67.9005 85.6594 68.0357C85.7712 68.1379 85.9297 68.1982 86.1349 68.2143V68.397H82.8818V68.2143H83.0161C83.2776 68.2143 83.4611 68.1781 83.5665 68.1057C83.6389 68.0526 83.6759 67.9769 83.6759 67.8772C83.6759 67.8184 83.6655 67.7565 83.6462 67.6945C83.6397 67.6639 83.5898 67.5408 83.4981 67.3219L83.1409 66.4835L83.1384 66.4827ZM82.9695 66.1166L81.9677 63.8008L80.9361 66.1166H82.9695Z" fill="#2A3C7F"/>
<path fill-rule="evenodd" clip-rule="evenodd" d="M71.4082 41.2L73.4938 36.1058C74.4321 36.76 75.2624 37.2371 75.9955 37.5405C76.7317 37.8422 77.4173 37.9927 78.0521 37.9927C78.5035 37.9927 78.8536 37.909 79.1078 37.7392C79.3677 37.5695 79.4933 37.3401 79.4933 37.0472C79.4933 36.5443 78.8544 36.1581 77.5702 35.895C77.1542 35.8025 76.8307 35.7333 76.6006 35.6818C75.2431 35.3519 74.2035 34.7629 73.4826 33.918C72.7608 33.0747 72.4011 32.023 72.4011 30.763C72.4011 28.8093 73.1004 27.2185 74.4996 25.9922C75.8997 24.7668 77.7359 24.152 80.0034 24.152C81.0519 24.152 82.077 24.288 83.0876 24.5648C84.0966 24.836 85.1169 25.2512 86.1444 25.8064L84.1546 30.5642C83.5285 30.1016 82.8961 29.7459 82.2596 29.5021C81.628 29.2591 81.014 29.1368 80.417 29.1368C79.9616 29.1368 79.6115 29.2124 79.3597 29.3645C79.1086 29.5182 78.9863 29.7314 78.9863 30.0042C78.9863 30.5176 79.8932 30.9722 81.71 31.356C81.9973 31.4244 82.2226 31.4767 82.3795 31.5097C83.6299 31.7889 84.614 32.3666 85.3358 33.2356C86.0559 34.103 86.4164 35.1547 86.4164 36.3906C86.4164 38.4006 85.6914 40.0445 84.2366 41.3207C82.7826 42.5977 80.8909 43.2341 78.5639 43.2341C77.3722 43.2341 76.1797 43.0644 74.9881 42.7256C73.7924 42.3852 72.6007 41.8775 71.4106 41.1992" fill="#1B1B1A"/>
<path fill-rule="evenodd" clip-rule="evenodd" d="M69.3652 29.9535C68.8985 28.8021 68.2169 27.7818 67.3254 26.8951C66.4057 26.0051 65.354 25.322 64.1648 24.8561C62.9827 24.3854 61.7066 24.1512 60.3427 24.1512C58.9788 24.1512 57.6986 24.3854 56.5166 24.8561C55.3298 25.322 54.2829 26.0051 53.3697 26.8951C52.4701 27.7737 51.7837 28.79 51.3227 29.939C50.8584 31.0937 50.6274 32.3441 50.6274 33.6935C50.6274 35.0429 50.8592 36.2893 51.3227 37.4327C51.7837 38.5745 52.4701 39.5867 53.3697 40.4638C54.2902 41.3674 55.3418 42.0545 56.5287 42.5261C57.7115 42.996 58.9845 43.2333 60.3427 43.2333C61.7009 43.2333 62.9489 42.996 64.1382 42.5261C65.3242 42.0545 66.3775 41.3754 67.2876 40.4895C68.2 39.5859 68.8904 38.5584 69.3611 37.4093C69.8319 36.2675 70.07 35.0236 70.07 33.6927C70.07 32.3618 69.8367 31.105 69.366 29.9519L69.3652 29.9535ZM62.5611 36.1863C61.9995 36.8099 61.2624 37.1245 60.3427 37.1245C59.423 37.1245 58.6795 36.8107 58.1146 36.1863C57.553 35.5578 57.2714 34.7315 57.2714 33.6943C57.2714 32.6571 57.553 31.8219 58.1146 31.187C58.6795 30.5465 59.4206 30.2287 60.3427 30.2287C61.2648 30.2287 62.0003 30.5473 62.5611 31.1782C63.1187 31.8154 63.3987 32.6507 63.3987 33.6943C63.3987 34.7379 63.1187 35.5587 62.5611 36.1863Z" fill="#1B1B1A"/>
<path fill-rule="evenodd" clip-rule="evenodd" d="M31.7859 43.2341V24.152H38.1965V32.2854L42.5464 24.152H50.3152L44.5556 33.5487L51.1263 43.2341H42.8232L38.1965 35.2561V43.2341H31.7859Z" fill="#1B1B1A"/>
<path fill-rule="evenodd" clip-rule="evenodd" d="M18.9536 29.9535C18.4885 28.8029 17.8054 27.7834 16.9155 26.8967C15.9949 26.0059 14.9433 25.3236 13.7556 24.8553C12.572 24.387 11.295 24.1528 9.93035 24.1528C8.56568 24.1528 7.28871 24.387 6.10508 24.8553C4.91823 25.3236 3.87219 26.0059 2.95892 26.8967C2.06174 27.7737 1.37619 28.79 0.911104 29.9406C0.449239 31.0953 0.215088 32.3449 0.215088 33.6935C0.215088 35.0421 0.449239 36.2893 0.911104 37.4335C1.37619 38.5745 2.06255 39.5867 2.95892 40.4646C3.87863 41.3682 4.9311 42.0545 6.11795 42.5261C7.30239 42.9976 8.57533 43.235 9.93035 43.235C11.2854 43.235 12.539 42.9976 13.7267 42.5261C14.9143 42.0545 15.966 41.3786 16.876 40.4911C17.7861 39.5875 18.4789 38.5616 18.9504 37.4109C19.4219 36.27 19.6593 35.0268 19.6593 33.6943C19.6593 32.3618 19.4251 31.109 18.9536 29.9543V29.9535ZM12.1496 36.1863C11.5887 36.8099 10.8501 37.1229 9.93035 37.1229C9.01064 37.1229 8.26796 36.8099 7.7039 36.1863C7.13985 35.5562 6.85983 34.7315 6.85983 33.6927C6.85983 32.6539 7.13985 31.8195 7.7039 31.1862C8.26796 30.5465 9.00984 30.2263 9.93035 30.2263C10.8509 30.2263 11.5895 30.5465 12.1496 31.1758C12.7072 31.8122 12.9872 32.6499 12.9872 33.6919C12.9872 34.7339 12.7072 35.5554 12.1496 36.1855V36.1863Z" fill="#1B1B1A"/>
<path fill-rule="evenodd" clip-rule="evenodd" d="M0.214355 13.5106L0.240104 18.2942L33.9595 5.1198L62.2065 18.2097H86.4134L47.2192 0.909096H31.0081L0.214355 13.5106Z" fill="#2A3C7F"/>
<path d="M28.7373 24.152H22.3267V43.2341H28.7373V24.152Z" fill="#1B1B1A"/>
<path d="M83.1052 0.909096C81.2811 0.909096 79.7974 2.39286 79.7974 4.21618C79.7974 6.0395 81.2811 7.52487 83.1052 7.52487C84.9294 7.52487 86.4139 6.04111 86.4139 4.21618C86.4139 2.39125 84.9294 0.909096 83.1052 0.909096ZM83.1052 7.29555C81.4083 7.29555 80.0275 5.91398 80.0275 4.21618C80.0275 2.51838 81.4083 1.13842 83.1052 1.13842C84.8022 1.13842 86.1846 2.51919 86.1846 4.21618C86.1846 5.91317 84.803 7.29555 83.1052 7.29555Z" fill="#1F130E"/>
<path d="M81.6618 6.02341V2.40493H83.2002C83.5865 2.40493 83.8673 2.43792 84.0419 2.5039C84.2165 2.56907 84.3581 2.68414 84.4627 2.84989C84.5681 3.01646 84.6204 3.20555 84.6204 3.42039C84.6204 3.69075 84.5408 3.91685 84.3807 4.09307C84.2221 4.27009 83.9832 4.38194 83.6661 4.427C83.8238 4.52033 83.9534 4.62091 84.0564 4.73195C84.1594 4.84139 84.297 5.03772 84.4716 5.31854L84.9141 6.02421H84.0403L83.5124 5.23727C83.3242 4.95565 83.1962 4.77862 83.127 4.7054C83.0586 4.63298 82.9854 4.58229 82.9074 4.55413C82.8285 4.52677 82.707 4.5139 82.5388 4.5139H82.3924V6.02421H81.6602L81.6618 6.02341ZM82.394 3.93536H82.9331C83.2839 3.93536 83.502 3.92168 83.5905 3.89271C83.6774 3.86214 83.7458 3.81064 83.7957 3.73902C83.8448 3.66661 83.8705 3.57649 83.8705 3.46706C83.8705 3.34475 83.8367 3.24739 83.7732 3.17256C83.7072 3.09692 83.6154 3.05025 83.4972 3.02933C83.4376 3.02289 83.2598 3.01806 82.9637 3.01806H82.3948V3.93536H82.394Z" fill="#1F130E"/>
<path style="mix-blend-mode:multiply" opacity="0.5" d="M33.961 5.11899L24.0969 8.97404L20.6538 5.14554L28.1137 2.09514L33.961 5.11899Z" fill="url(#paint0_linear_423_2679)"/>
<path d="M86.5363 49.0919H0.0910645V55.5025H86.5363V49.0919Z" fill="#1B1B1A"/>
</g>
<defs>
<linearGradient id="paint0_linear_423_2679" x1="25.6024" y1="7.12899" x2="28.3921" y2="3.86214" gradientUnits="userSpaceOnUse">
<stop stop-color="white"/>
<stop offset="0.87" stop-color="#1D1D1B"/>
</linearGradient>
<clipPath id="clip0_423_2679">
<rect width="86.4452" height="67.4887" fill="white" transform="translate(0.0910645 0.909096)"/>
</clipPath>
</defs>
</svg>
