<svg width="30" height="30" viewBox="0 0 30 30" fill="none" xmlns="http://www.w3.org/2000/svg">
<path d="M14.9795 30C12.3566 30 9.77459 29.3033 7.5 27.9918L1.65984 30L2.86885 23.8115C0.983607 21.2295 0 18.1967 0 15C0 6.72131 6.72131 0 15 0C23.2787 0 30 6.72131 30 15C29.9795 23.2582 23.2582 30 14.9795 30ZM7.76639 25.5328L8.21721 25.8197C10.2459 27.0902 12.6025 27.7664 14.9795 27.7664C22.0287 27.7664 27.7459 22.0287 27.7459 15C27.7459 7.95082 22.0082 2.23361 14.9795 2.23361C7.93033 2.23361 2.21311 7.97131 2.21311 15C2.21311 17.8689 3.15574 20.5738 4.91803 22.8484L5.22541 23.2582L4.56967 26.6393L7.76639 25.5328Z" fill="white"/>
<path d="M7.418 9.54917C7.418 9.54917 8.29915 8.01228 9.01636 7.93031C9.73357 7.84835 10.6557 7.84835 10.9016 8.31966C11.1475 8.79097 12.2541 11.5164 12.2541 11.5164C12.2541 11.5164 12.4385 11.9877 12.1516 12.4385C11.8647 12.8893 11.209 13.5451 11.209 13.5451C11.209 13.5451 10.8401 14.0164 11.209 14.5082C11.5778 15 12.1516 15.9221 13.3196 17.0902C14.4877 18.2582 16.7418 19.0983 16.7418 19.0983C16.7418 19.0983 17.0696 19.1393 17.2746 18.9344C17.4795 18.7295 18.586 17.3361 18.586 17.3361C18.586 17.3361 18.9344 16.8647 19.5287 17.1516C20.1229 17.418 22.6844 18.709 22.6844 18.709C22.6844 18.709 22.9918 18.8115 22.9918 19.2828C22.9918 19.7336 22.8073 20.8402 22.4385 21.2295C22.0696 21.5983 20.9631 22.7664 19.3032 22.7664C17.6434 22.7664 13.7295 21.4139 11.6188 19.3238C9.52866 17.2336 7.6639 15.1024 7.23357 13.1762C6.80325 11.2295 6.86472 10.3483 7.418 9.54917Z" fill="white"/>
</svg>
