<svg width="55" height="39" viewBox="0 0 55 39" fill="none" xmlns="http://www.w3.org/2000/svg">
<path d="M2.19939 38.7455V38.8474H0V38.7455H0.153446C0.255744 38.7455 0.358041 38.7455 0.460338 38.6945C0.511487 38.6435 0.511487 38.5925 0.562636 38.5415C0.562636 38.4905 0.613784 38.3376 0.613784 38.1337V35.3807C0.613784 35.1768 0.613784 35.0239 0.562636 34.9729C0.562636 34.9219 0.511487 34.8709 0.40919 34.8199C0.358041 34.769 0.255744 34.769 0.153446 34.769H0V34.667H2.19939V34.769H2.04595C1.94365 34.769 1.84135 34.769 1.73906 34.8199C1.68791 34.8709 1.63676 34.9219 1.63676 34.9729C1.63676 35.0239 1.58561 35.1768 1.58561 35.3807V38.1337C1.58561 38.3376 1.58561 38.4905 1.63676 38.5415C1.63676 38.5925 1.68791 38.6435 1.7902 38.6945C1.84135 38.7455 1.94365 38.7455 2.04595 38.7455H2.19939Z" fill="#1B1B1A"/>
<path d="M4.55222 34.667L6.64932 37.267V35.4827C6.64932 35.2278 6.59817 35.0748 6.54702 34.9729C6.44472 34.8709 6.29128 34.8199 6.03553 34.8199V34.667H7.41655V34.769C7.2631 34.769 7.10966 34.8199 7.05851 34.8709C7.00736 34.9219 6.95621 34.9729 6.90506 35.0239C6.85391 35.1258 6.85391 35.2278 6.85391 35.4317V38.8984H6.75162L3.88729 35.4317V38.0827C3.88729 38.3376 3.93844 38.4905 4.04074 38.5925C4.19418 38.6945 4.29648 38.7455 4.44992 38.7455H4.55222V38.8474H3.06891V38.7455C3.32465 38.7455 3.4781 38.6945 3.52925 38.5925C3.63155 38.4905 3.68269 38.3376 3.68269 38.1337V35.1768L3.5804 35.0748C3.4781 34.9729 3.42695 34.8709 3.32465 34.8709C3.2735 34.8199 3.17121 34.8199 3.01776 34.8199V34.667H4.55222Z" fill="#1B1B1A"/>
<path d="M11.2527 37.42L12.378 34.667H14.0659V34.769H13.9124C13.8101 34.769 13.7078 34.769 13.6055 34.8199C13.5544 34.8709 13.5032 34.9219 13.5032 34.9729C13.5032 35.0239 13.4521 35.1258 13.4521 35.3807V38.1337C13.4521 38.3376 13.4521 38.4905 13.5032 38.5415C13.5032 38.5925 13.5544 38.6435 13.6567 38.6945C13.7078 38.7455 13.8101 38.7455 13.9636 38.7455H14.117V38.8474H11.9176V38.7455H12.0711C12.1734 38.7455 12.2757 38.7455 12.378 38.6945C12.4291 38.6435 12.4803 38.5925 12.4803 38.5415C12.4803 38.4905 12.5314 38.3376 12.5314 38.1337V35.0239L10.8947 38.8474H10.8435L9.20675 35.0748V38.0317C9.20675 38.2356 9.20675 38.3886 9.20675 38.3886C9.2579 38.4905 9.30905 38.5925 9.36019 38.6435C9.46249 38.6945 9.61594 38.7455 9.76938 38.7455V38.8474H8.33722V38.7455H8.38837C8.49067 38.7455 8.59296 38.7455 8.64411 38.6945C8.74641 38.6435 8.79756 38.6435 8.84871 38.5415C8.89986 38.4905 8.89986 38.3886 8.951 38.3376C8.951 38.3376 8.951 38.1847 8.951 38.0317V35.3807C8.951 35.1768 8.951 35.0239 8.89986 34.9729C8.89986 34.9219 8.84871 34.8709 8.74641 34.8199C8.69526 34.769 8.59296 34.769 8.43952 34.769H8.28607V34.667H10.0251L11.2527 37.42Z" fill="#1B1B1A"/>
<path d="M17.2882 34.6156C17.9531 34.6156 18.5158 34.7685 18.925 35.1763C19.3341 35.5842 19.5387 36.094 19.5387 36.7567C19.5387 37.2666 19.3853 37.7764 19.0784 38.1842C18.6692 38.745 18.0554 38.9999 17.3393 38.9999C16.5721 38.9999 16.0095 38.745 15.6003 38.2352C15.2934 37.8273 15.0888 37.3685 15.0888 36.8077C15.0888 36.196 15.2934 35.6862 15.7026 35.2273C16.1629 34.7685 16.6744 34.5646 17.2882 34.6156ZM17.3393 34.8195C16.9302 34.8195 16.6744 35.0234 16.4698 35.4312C16.3164 35.7371 16.2141 36.196 16.2141 36.8077C16.2141 37.5215 16.3164 38.0313 16.5721 38.3881C16.7256 38.643 16.9813 38.745 17.2882 38.745C17.4928 38.745 17.6974 38.694 17.7997 38.592C18.0043 38.4391 18.1066 38.2352 18.2089 37.9803C18.3112 37.6744 18.3623 37.3175 18.3623 36.8587C18.3623 36.2979 18.3112 35.8901 18.2089 35.6352C18.1066 35.3803 17.9531 35.1763 17.7997 35.0744C17.6974 34.8705 17.5439 34.8195 17.3393 34.8195Z" fill="#1B1B1A"/>
<path d="M23.2214 36.6552C23.6306 36.7572 23.8864 36.8592 24.0398 37.0121C24.2956 37.216 24.3979 37.42 24.3979 37.7258C24.3979 38.0317 24.2956 38.2866 24.0398 38.4905C23.7329 38.7455 23.2726 38.8474 22.6588 38.8474H20.5106V38.7455C20.7152 38.7455 20.8175 38.7455 20.9198 38.6945C20.9709 38.6435 21.022 38.5925 21.0732 38.5415C21.1243 38.4905 21.1243 38.3376 21.1243 38.1337V35.4317C21.1243 35.2278 21.1243 35.0748 21.0732 35.0239C21.022 34.9729 20.9709 34.9219 20.9198 34.8709C20.8686 34.8199 20.7152 34.8199 20.5106 34.8199V34.667H22.5054C22.9657 34.667 23.3237 34.718 23.5283 34.8199C23.7329 34.9219 23.8864 35.0239 23.9887 35.2278C24.091 35.3807 24.1421 35.5846 24.1421 35.7886C24.1421 35.9925 24.091 36.1454 23.9375 36.3494C23.8352 36.4003 23.5795 36.5533 23.2214 36.6552ZM22.0962 36.8082V38.1337V38.2866C22.0962 38.3886 22.1473 38.4905 22.1985 38.5415C22.2496 38.5925 22.3519 38.6435 22.4542 38.6435C22.6077 38.6435 22.7611 38.5925 22.9145 38.5415C23.068 38.4905 23.1703 38.3376 23.2214 38.2356C23.2726 38.0827 23.3237 37.9298 23.3237 37.7768C23.3237 37.5729 23.2726 37.42 23.1703 37.267C23.068 37.1141 22.9657 37.0121 22.8123 36.9611C22.6588 36.8082 22.4031 36.8082 22.0962 36.8082ZM22.0962 36.5533C22.4031 36.5533 22.6077 36.5023 22.7611 36.4513C22.9145 36.4003 23.0168 36.2984 23.068 36.1964C23.1191 36.0945 23.1703 35.9415 23.1703 35.7376C23.1703 35.5337 23.1191 35.3807 23.068 35.2788C23.0168 35.1768 22.9145 35.0748 22.7611 35.0239C22.6077 34.9729 22.4031 34.9219 22.0962 34.9219V36.5533Z" fill="#1B1B1A"/>
<path d="M27.6203 38.7455V38.8474H25.4209V38.7455H25.5743C25.6766 38.7455 25.7789 38.7455 25.8812 38.6945C25.9324 38.6435 25.9835 38.5925 25.9835 38.5415C25.9835 38.4905 26.0347 38.3376 26.0347 38.1337V35.3807C26.0347 35.1768 26.0347 35.0239 25.9835 34.9729C25.9835 34.9219 25.9324 34.8709 25.8301 34.8199C25.7789 34.769 25.6766 34.769 25.5743 34.769H25.4209V34.667H27.6203V34.769H27.4668C27.3645 34.769 27.2623 34.769 27.16 34.8199C27.1088 34.8709 27.0577 34.9219 27.0577 34.9729C27.0577 35.0239 27.0065 35.1768 27.0065 35.3807V38.1337C27.0065 38.3376 27.0065 38.4905 27.0577 38.5415C27.0577 38.5925 27.1088 38.6435 27.2111 38.6945C27.2623 38.7455 27.3645 38.7455 27.4668 38.7455H27.6203V38.7455Z" fill="#1B1B1A"/>
<path d="M32.3772 37.369L32.2237 38.8474H28.4899V38.7455H28.6433C28.7456 38.7455 28.8479 38.7455 28.9502 38.6945C29.0014 38.6435 29.0525 38.5925 29.0525 38.5415C29.0525 38.4905 29.1037 38.3376 29.1037 38.1337V35.3807C29.1037 35.1768 29.1037 35.0239 29.0525 34.9729C29.0525 34.9219 29.0014 34.8709 28.8991 34.8199C28.8479 34.769 28.7456 34.769 28.6433 34.769H28.4899V34.667H30.7404V34.769H30.5358C30.4335 34.769 30.3312 34.769 30.2289 34.8199C30.1778 34.8709 30.1266 34.9219 30.1266 34.9729C30.1266 35.0239 30.0755 35.1768 30.0755 35.3807V38.0317C30.0755 38.2356 30.0755 38.3886 30.1266 38.4396C30.1266 38.4905 30.1778 38.5415 30.2801 38.5925C30.3312 38.5925 30.4335 38.6435 30.6381 38.6435H30.9962C31.2007 38.6435 31.4053 38.5925 31.5588 38.5415C31.7122 38.4396 31.8145 38.3376 31.968 38.1847C32.0703 38.0317 32.1726 37.7768 32.2749 37.42H32.3772V37.369Z" fill="#1B1B1A"/>
<path d="M35.5994 38.7455V38.8474H33.4V38.7455H33.5534C33.6557 38.7455 33.758 38.7455 33.8603 38.6945C33.9114 38.6435 33.9626 38.5925 33.9626 38.5415C33.9626 38.4905 34.0137 38.3376 34.0137 38.1337V35.3807C34.0137 35.1768 34.0137 35.0239 33.9626 34.9729C33.9626 34.9219 33.9114 34.8709 33.8092 34.8199C33.758 34.769 33.6557 34.769 33.5534 34.769H33.4V34.667H35.5994V34.769H35.4459C35.3436 34.769 35.2413 34.769 35.139 34.8199C35.0879 34.8709 35.0367 34.9219 35.0367 34.9729C35.0367 35.0239 34.9856 35.1768 34.9856 35.3807V38.1337C34.9856 38.3376 34.9856 38.4905 35.0367 38.5415C35.0367 38.5925 35.0879 38.6435 35.1902 38.6945C35.2413 38.7455 35.3436 38.7455 35.4459 38.7455H35.5994V38.7455Z" fill="#1B1B1A"/>
<path d="M39.0264 37.6753H37.5431L37.3385 38.0831C37.2874 38.236 37.2362 38.338 37.2362 38.44C37.2362 38.5419 37.2874 38.6439 37.3897 38.6949C37.4408 38.7458 37.5943 38.7458 37.7989 38.7458V38.8478H36.4178V38.7458C36.5713 38.7458 36.6736 38.6439 36.7759 38.5419C36.8782 38.44 36.9805 38.236 37.1339 37.9302L38.6172 34.5654H38.6684L40.2029 37.9811C40.3563 38.287 40.4586 38.4909 40.5609 38.5929C40.612 38.6439 40.7143 38.6949 40.8678 38.6949V38.7968H38.8218V38.7458H38.9241C39.0776 38.7458 39.1799 38.7458 39.2822 38.6949C39.3333 38.6439 39.3333 38.5929 39.3333 38.5419C39.3333 38.4909 39.3333 38.4909 39.3333 38.44C39.3333 38.44 39.2822 38.338 39.231 38.1851L39.0264 37.6753ZM38.873 37.4203L38.2592 35.9929L37.5943 37.4203H38.873Z" fill="#1B1B1A"/>
<path d="M43.2718 36.9611V38.1337C43.2718 38.3376 43.2718 38.4905 43.3229 38.5415C43.3741 38.5925 43.4252 38.6435 43.4764 38.6945C43.5275 38.7455 43.681 38.7455 43.8856 38.7455V38.8474H41.7373V38.7455C41.9419 38.7455 42.0442 38.7455 42.1465 38.6945C42.1976 38.6435 42.2488 38.5925 42.2999 38.5415C42.3511 38.4905 42.3511 38.3376 42.3511 38.1337V35.4317C42.3511 35.2278 42.3511 35.0748 42.2999 35.0239C42.2488 34.9729 42.1976 34.9219 42.1465 34.8709C42.0953 34.8199 41.9419 34.8199 41.7373 34.8199V34.667H43.681C44.1924 34.667 44.5505 34.718 44.8062 34.769C45.062 34.8199 45.2154 34.9729 45.3689 35.1768C45.5223 35.3807 45.5735 35.5846 45.5735 35.8396C45.5735 36.1454 45.4712 36.4003 45.2154 36.6043C45.062 36.7572 44.8574 36.8082 44.6016 36.9101L45.6246 38.3376C45.7781 38.5415 45.8292 38.6435 45.9315 38.6945C46.0338 38.7455 46.1361 38.7964 46.2384 38.7964V38.8984H44.9085L43.5787 37.0121H43.2718V36.9611ZM43.2718 34.8709V36.7062H43.4252C43.7321 36.7062 43.9367 36.6552 44.0901 36.6043C44.2436 36.5533 44.3459 36.4513 44.4482 36.2984C44.5505 36.1454 44.5505 35.9925 44.5505 35.7376C44.5505 35.4317 44.4993 35.1768 44.3459 35.0239C44.1924 34.8709 43.9367 34.8199 43.6298 34.8199H43.2718V34.8709Z" fill="#1B1B1A"/>
<path d="M49.1539 38.7455V38.8474H46.9545V38.7455H47.0568C47.1591 38.7455 47.2614 38.7455 47.3637 38.6945C47.4148 38.6435 47.466 38.5925 47.466 38.5415C47.466 38.4905 47.5171 38.3376 47.5171 38.1337V35.3807C47.5171 35.1768 47.5171 35.0239 47.466 34.9729C47.466 34.9219 47.4148 34.8709 47.3125 34.8199C47.2614 34.769 47.1591 34.769 47.0056 34.769H46.8522V34.667H49.0516V34.769H48.8981C48.7958 34.769 48.6935 34.769 48.5912 34.8199C48.5401 34.8709 48.4889 34.9219 48.4889 34.9729C48.4889 35.0239 48.4378 35.1768 48.4378 35.3807V38.1337C48.4378 38.3376 48.4378 38.4905 48.4889 38.5415C48.4889 38.5925 48.5401 38.6435 48.6424 38.6945C48.6935 38.7455 48.7958 38.7455 48.8981 38.7455H49.1539V38.7455Z" fill="#1B1B1A"/>
<path d="M52.5296 37.6753H51.0463L50.8928 38.0831C50.8417 38.236 50.7906 38.338 50.7906 38.44C50.7906 38.5419 50.8417 38.6439 50.944 38.6949C50.9951 38.7458 51.1486 38.7458 51.3532 38.7458V38.8478H49.9722V38.7458C50.1256 38.7458 50.2279 38.6439 50.3302 38.5419C50.4325 38.44 50.5348 38.236 50.6883 37.9302L52.1716 34.5654H52.2227L53.7572 37.9811C53.9106 38.287 54.0129 38.4909 54.1152 38.5929C54.1664 38.6439 54.2687 38.6949 54.4221 38.6949V38.7968H52.3762V38.7458H52.4785C52.6319 38.7458 52.7342 38.7458 52.8365 38.6949C52.8876 38.6439 52.8876 38.5929 52.8876 38.5419C52.8876 38.4909 52.8876 38.4909 52.8876 38.44C52.8876 38.44 52.8365 38.338 52.7853 38.1851L52.5296 37.6753ZM52.4273 37.4203L51.8135 35.9929L51.1486 37.4203H52.4273Z" fill="#1B1B1A"/>
<path fill-rule="evenodd" clip-rule="evenodd" d="M45.0621 25.235L46.3408 22.0742C46.9034 22.4821 47.4661 22.788 47.9264 22.9919C48.3867 23.1958 48.7959 23.2978 49.2051 23.2978C49.512 23.2978 49.7166 23.2468 49.87 23.1448C50.0235 23.0429 50.1258 22.8899 50.1258 22.737C50.1258 22.4311 49.7166 22.1762 48.8982 22.0233C48.6425 21.9723 48.4379 21.9213 48.2844 21.8703C47.4149 21.6664 46.8011 21.3095 46.3408 20.7487C45.8804 20.2389 45.6759 19.5762 45.6759 18.7605C45.6759 17.537 46.1362 16.5683 47.0057 15.8036C47.8752 15.0389 49.0517 14.682 50.4327 14.682C51.0976 14.682 51.7114 14.784 52.3763 14.9369C52.9901 15.0899 53.655 15.3448 54.2688 15.7017L53.0413 18.6585C52.6321 18.3526 52.274 18.1487 51.8648 17.9958C51.4557 17.8428 51.0976 17.7919 50.6884 17.7919C50.3815 17.7919 50.1769 17.8428 50.0235 17.9448C49.87 18.0468 49.7677 18.1487 49.7677 18.3526C49.7677 18.6585 50.3304 18.9644 51.4557 19.2193C51.6602 19.2703 51.7625 19.2703 51.8648 19.3213C52.6321 19.4742 53.2459 19.8311 53.7062 20.3919C54.1665 20.9527 54.3711 21.5644 54.3711 22.3801C54.3711 23.6546 53.9108 24.6743 52.9901 25.439C52.0694 26.2547 50.893 26.6115 49.4609 26.6115C48.6936 26.6115 47.9775 26.5096 47.2103 26.3056C46.5454 25.9997 45.7781 25.6429 45.0621 25.235ZM44.346 20.5448C44.346 21.3605 44.1925 22.1252 43.8856 22.8389C43.5788 23.5527 43.1696 24.2154 42.6069 24.7762C42.0443 25.337 41.3794 25.7448 40.6633 26.0507C39.896 26.3566 39.1288 26.5096 38.3104 26.5096C37.4409 26.5096 36.6737 26.3566 35.9064 26.0507C35.1392 25.7448 34.5254 25.337 33.9116 24.7762C33.349 24.2154 32.9398 23.6037 32.6329 22.8899C32.326 22.1762 32.1726 21.4115 32.1726 20.5448C32.1726 19.7291 32.326 18.9134 32.6329 18.1997C32.9398 17.486 33.349 16.8742 33.9116 16.3134C34.4743 15.7526 35.1392 15.3448 35.8553 15.0389C36.5714 14.733 37.3898 14.5801 38.2593 14.5801C39.1288 14.5801 39.896 14.733 40.6633 15.0389C41.4305 15.3448 42.0443 15.7526 42.6581 16.3134C43.2207 16.8742 43.6299 17.486 43.9368 18.1997C44.1925 18.9644 44.346 19.7291 44.346 20.5448ZM38.2593 22.686C38.8219 22.686 39.2823 22.4821 39.6403 22.1252C39.9983 21.7174 40.1518 21.2076 40.1518 20.5958C40.1518 19.9331 39.9983 19.4232 39.6403 19.0154C39.2823 18.6076 38.8219 18.4036 38.2593 18.4036C37.6967 18.4036 37.2363 18.6076 36.8783 19.0154C36.5202 19.4232 36.3668 19.9331 36.3668 20.5958C36.3668 21.2585 36.5202 21.7684 36.8783 22.1252C37.2363 22.4821 37.6967 22.686 38.2593 22.686ZM20.7153 26.2037V14.886H24.7049V19.7291L27.3135 14.886H31.968L28.541 20.4429L32.4795 26.2037H27.5181L24.756 21.4625V26.2037H20.7153V26.2037ZM14.3728 14.886H18.5159V26.2037H14.3728V14.886ZM12.5826 20.5448C12.5826 21.3605 12.4292 22.1252 12.1223 22.8389C11.8154 23.5527 11.4062 24.2154 10.8436 24.7762C10.2809 25.337 9.61601 25.7448 8.84878 26.0507C8.08155 26.3566 7.31432 26.5096 6.49594 26.5096C5.62641 26.5096 4.80803 26.3566 4.09195 26.0507C3.32472 25.7448 2.71093 25.337 2.09715 24.7762C1.53451 24.2154 1.12532 23.6037 0.818432 22.8899C0.511539 22.1762 0.358093 21.4115 0.358093 20.5448C0.358093 19.7291 0.511539 18.9134 0.818432 18.1997C1.12532 17.486 1.53451 16.8742 2.09715 16.3134C2.65979 15.7526 3.32472 15.3448 4.0408 15.0389C4.75688 14.733 5.57526 14.5801 6.44479 14.5801C7.31432 14.5801 8.08155 14.733 8.84878 15.0389C9.61601 15.3448 10.2298 15.7526 10.8436 16.3134C11.4062 16.8742 11.8154 17.486 12.1223 18.1997C12.4292 18.9644 12.5826 19.7291 12.5826 20.5448ZM6.49594 22.686C7.05857 22.686 7.51891 22.4821 7.87695 22.1252C8.23499 21.7174 8.38844 21.2076 8.38844 20.5958C8.38844 19.9331 8.23499 19.4232 7.87695 19.0154C7.51891 18.6076 7.05857 18.4036 6.49594 18.4036C5.9333 18.4036 5.47296 18.6076 5.11492 19.0154C4.75688 19.4232 4.60344 19.9331 4.60344 20.5958C4.60344 21.2585 4.75688 21.7684 5.11492 22.1252C5.42182 22.4821 5.88215 22.686 6.49594 22.686Z" fill="#1B1B1A"/>
<path fill-rule="evenodd" clip-rule="evenodd" d="M0.460388 8.00434V10.9612L21.5848 2.75333L39.2311 10.9102H54.3711L29.8709 0.15332H19.6923L0.460388 8.00434Z" fill="#1A41E5"/>
<path d="M54.4734 28.5493H0.40918V32.118H54.4734V28.5493Z" fill="#1A41E5"/>
<path d="M51.4045 0C50.2793 0 49.3074 0.917652 49.3074 2.09021C49.3074 3.21178 50.2281 4.18042 51.4045 4.18042C52.5298 4.18042 53.5016 3.26276 53.5016 2.09021C53.4505 0.917652 52.5298 0 51.4045 0ZM51.4045 4.02747C50.3304 4.02747 49.4609 3.1608 49.4609 2.09021C49.4609 1.01961 50.3304 0.152942 51.4045 0.152942C52.4786 0.152942 53.3482 1.01961 53.3482 2.09021C53.297 3.1608 52.4275 4.02747 51.4045 4.02747Z" fill="#1F140F"/>
<path d="M50.4838 3.21161V0.91748H51.4557C51.7114 0.91748 51.8648 0.91748 51.9671 0.968461C52.0694 1.01944 52.1717 1.07042 52.2229 1.17238C52.274 1.27435 52.3252 1.37631 52.3252 1.52925C52.3252 1.68219 52.274 1.83513 52.1717 1.93709C52.0694 2.03906 51.916 2.14102 51.7114 2.14102C51.8137 2.192 51.916 2.24298 51.9671 2.34494C52.0183 2.39592 52.1206 2.54886 52.2229 2.7018L52.4786 3.16063H51.916L51.558 2.65082C51.4557 2.49788 51.3481 2.3612 51.3022 2.29396C51.2563 2.22672 51.2522 2.20072 51.2001 2.17154C51.148 2.14236 51.1043 2.14102 51.0465 2.14102H50.9951V3.16063H50.5348L50.4838 3.21161ZM50.9442 1.88611H51.3022C51.5068 1.88611 51.6602 1.88611 51.7114 1.83513C51.7625 1.83513 51.8137 1.78415 51.8648 1.73317C51.916 1.68219 51.916 1.63121 51.916 1.58023C51.916 1.47827 51.916 1.42729 51.8648 1.37631C51.8137 1.32533 51.7625 1.27435 51.7114 1.27435C51.6602 1.27435 51.558 1.27435 51.3534 1.27435H50.9953V1.88611H50.9442Z" fill="#1F140F"/>
<path d="M18.4074 0.800781L21.6088 2.66821L17.6071 4.26886L14.139 2.40143L18.4074 0.800781Z" fill="url(#paint0_linear_739_6779)"/>
<defs>
<linearGradient id="paint0_linear_739_6779" x1="18.6742" y1="-1.06665" x2="17.3403" y2="3.20176" gradientUnits="userSpaceOnUse">
<stop/>
<stop offset="1" stop-opacity="0"/>
</linearGradient>
</defs>
</svg>
