<svg width="51" height="38" viewBox="0 0 51 38" fill="none" xmlns="http://www.w3.org/2000/svg">
<path d="M50.9229 31.0874H0.926758V37.4956H50.9229V31.0874Z" fill="black"/>
<path fill-rule="evenodd" clip-rule="evenodd" d="M50.9019 22.2091L41.9998 21.8111L38.5247 18.8026L34.7511 18.9638L32.8506 21.8111C32.8506 21.8111 31.3103 19.4098 29.6122 18.9364C27.156 18.2503 24.2606 19.4098 24.2606 19.4098L23.0325 19.1868L20.0445 21.8111L16.4391 18.7854L11.7427 19.1868H6.83711L3.3037 18.6413L0.902344 20.0787V9.44416L20.4356 1.80786L36.8609 9.39956L50.9019 10.0514V22.2091Z" fill="#FFED00"/>
<path fill-rule="evenodd" clip-rule="evenodd" d="M18.4806 21.8145C18.4806 22.4251 18.2995 23.0221 17.9602 23.5298C17.621 24.0375 17.1388 24.4333 16.5746 24.6669C16.0105 24.9006 15.3897 24.9618 14.7908 24.8426C14.1919 24.7235 13.6417 24.4295 13.21 23.9977C12.7782 23.5659 12.4841 23.0157 12.365 22.4168C12.2459 21.8179 12.307 21.1971 12.5407 20.633C12.7744 20.0688 13.1701 19.5866 13.6778 19.2474C14.1855 18.9081 14.7825 18.7271 15.3931 18.7271C16.212 18.7271 16.9973 19.0523 17.5763 19.6313C18.1553 20.2104 18.4806 20.9957 18.4806 21.8145Z" fill="#FFED00"/>
<path fill-rule="evenodd" clip-rule="evenodd" d="M31.3624 21.8145C31.3624 22.4251 31.1813 23.0221 30.8421 23.5298C30.5028 24.0375 30.0206 24.4333 29.4565 24.6669C28.8923 24.9006 28.2715 24.9618 27.6726 24.8426C27.0737 24.7235 26.5236 24.4295 26.0918 23.9977C25.66 23.5659 25.366 23.0157 25.2468 22.4168C25.1277 21.8179 25.1888 21.1971 25.4225 20.633C25.6562 20.0688 26.0519 19.5866 26.5597 19.2474C27.0674 18.9081 27.6643 18.7271 28.275 18.7271C29.0938 18.7271 29.8791 19.0523 30.4581 19.6313C31.0371 20.2104 31.3624 20.9957 31.3624 21.8145Z" fill="#FFED00"/>
<path fill-rule="evenodd" clip-rule="evenodd" d="M40.6036 21.8145C40.6036 22.4251 40.4225 23.0221 40.0833 23.5298C39.744 24.0375 39.2618 24.4333 38.6977 24.6669C38.1335 24.9006 37.5127 24.9618 36.9138 24.8426C36.3149 24.7235 35.7648 24.4295 35.333 23.9977C34.9012 23.5659 34.6072 23.0157 34.488 22.4168C34.3689 21.8179 34.43 21.1971 34.6637 20.633C34.8974 20.0688 35.2931 19.5866 35.8009 19.2474C36.3086 18.9081 36.9055 18.7271 37.5162 18.7271C38.335 18.7271 39.1203 19.0523 39.6993 19.6313C40.2783 20.2104 40.6036 20.9957 40.6036 21.8145Z" fill="#FFED00"/>
<path fill-rule="evenodd" clip-rule="evenodd" d="M46.398 19.3618C45.5792 19.3618 44.7939 19.6871 44.2148 20.2661C43.6358 20.8451 43.3105 21.6304 43.3105 22.4493H49.4855C49.4855 21.6304 49.1602 20.8451 48.5812 20.2661C48.0022 19.6871 47.2168 19.3618 46.398 19.3618Z" fill="#FFED00"/>
<path d="M4.9882 19.952C4.97105 19.4992 4.73777 19.0326 3.9419 19.0326C3.25579 19.0326 2.9299 19.4683 2.9299 19.8903C2.9299 20.4357 3.5714 20.7307 4.381 20.964C5.7532 21.3379 7.23175 21.7427 7.24547 23.5815C7.27634 25.3413 5.7978 26.4631 4.00707 26.4631C2.6829 26.4631 0.888748 25.777 0.734375 23.7187H2.79268C2.81558 24.0321 2.96078 24.324 3.19696 24.5313C3.43315 24.7386 3.74136 24.8447 4.0551 24.8268C4.69318 24.8268 5.23863 24.4048 5.22147 23.8285C5.22147 23.0978 4.5834 22.8954 3.0088 22.3499C1.839 21.976 0.9059 21.3379 0.888748 20.1064C0.888748 18.4254 2.30898 17.3826 3.9762 17.3826C5.12885 17.3826 6.8441 17.8971 7.01563 19.952H4.9882Z" fill="black"/>
<path d="M8.24395 19.2109H6.82715V17.6466H8.24395V14.6724H10.2851V17.6466H11.7499V19.2109H10.2851V26.1989H8.24395V19.2109Z" fill="black"/>
<path d="M10.8434 21.9003C10.8372 21.3006 10.952 20.7059 11.1809 20.1516C11.4098 19.5974 11.7482 19.095 12.1757 18.6745C12.6032 18.254 13.1112 17.9241 13.6692 17.7044C14.2272 17.4847 14.8237 17.3798 15.4232 17.396C16.0281 17.3793 16.6302 17.4841 17.1939 17.7041C17.7577 17.9241 18.2716 18.2548 18.7054 18.6768C19.1391 19.0988 19.4839 19.6034 19.7193 20.1609C19.9548 20.7184 20.076 21.3174 20.076 21.9226C20.076 22.5277 19.9548 23.1267 19.7193 23.6842C19.4839 24.2417 19.1391 24.7463 18.7054 25.1683C18.2716 25.5903 17.7577 25.921 17.1939 26.141C16.6302 26.361 16.0281 26.4658 15.4232 26.4491C14.8211 26.4654 14.2219 26.3596 13.6619 26.138C13.1018 25.9164 12.5924 25.5837 12.1644 25.1599C11.7365 24.7361 11.3988 24.23 11.1717 23.6721C10.9447 23.1143 10.833 22.5162 10.8434 21.914V21.9003ZM12.9017 21.9311C12.9219 22.4267 13.0872 22.9054 13.377 23.3078C13.6669 23.7103 14.0686 24.0187 14.5322 24.1949C14.9958 24.371 15.501 24.4071 15.9849 24.2986C16.4689 24.1902 16.9103 23.942 17.2545 23.5848C17.5986 23.2277 17.8302 22.7773 17.9207 22.2897C18.0111 21.802 17.9562 21.2986 17.763 20.8418C17.5698 20.385 17.2466 19.9951 16.8337 19.7204C16.4208 19.4456 15.9363 19.2983 15.4403 19.2965C15.0986 19.2958 14.7602 19.3642 14.4456 19.4975C14.1309 19.6309 13.8465 19.8265 13.6093 20.0726C13.3722 20.3187 13.1873 20.6102 13.0657 20.9296C12.9441 21.249 12.8883 21.5896 12.9017 21.9311Z" fill="black"/>
<path d="M20.0039 17.6467H21.9387V18.7684C22.3092 18.0034 23.0125 17.3962 24.3058 17.3962V19.4545H24.2131C22.7792 19.4545 22.0451 20.1406 22.0451 21.6055V26.1989H20.0039V17.6467Z" fill="black"/>
<path d="M32.8577 26.199H30.7994V24.9674C30.2539 25.9657 29.1184 26.4631 27.9177 26.4631C25.1733 26.4631 23.5713 24.3293 23.5713 21.9143C23.5713 19.2213 25.5198 17.3826 27.9177 17.3826C29.4752 17.3826 30.4254 18.2059 30.7994 18.892V17.6467H32.8577V26.199ZM25.6296 21.9554C25.6245 22.2983 25.6883 22.6387 25.8172 22.9565C25.946 23.2743 26.1374 23.563 26.3799 23.8055C26.6224 24.048 26.911 24.2393 27.2288 24.3682C27.5466 24.4971 27.887 24.5608 28.2299 24.5558C28.702 24.5762 29.1696 24.4569 29.5741 24.2128C29.9787 23.9687 30.3023 23.6107 30.5043 23.1836C30.702 22.812 30.8189 22.4028 30.8474 21.9829C30.8617 21.5698 30.7807 21.159 30.6107 20.7822C30.4108 20.321 30.077 19.9305 29.6525 19.6613C29.2279 19.3921 28.7323 19.2568 28.2299 19.2728C27.8802 19.2682 27.5332 19.3351 27.2102 19.4694C26.8872 19.6037 26.595 19.8025 26.3516 20.0537C26.1081 20.3048 25.9185 20.603 25.7944 20.9301C25.6702 21.2571 25.6142 21.606 25.6296 21.9554Z" fill="black"/>
<path d="M41.9862 25.1869C41.9862 26.59 41.7221 27.4922 41.1903 28.2092C40.4596 29.1903 39.0257 29.9691 37.2658 29.9691C34.6038 29.9691 33.3242 28.3807 33.012 27.0566H35.3825C35.5723 27.4375 35.8837 27.7441 36.2676 27.9279C36.6527 28.1351 37.0857 28.237 37.5229 28.2234C37.96 28.2098 38.3858 28.0812 38.7574 27.8506C39.129 27.6199 39.4332 27.2953 39.6393 26.9096C39.8454 26.5239 39.9461 26.0906 39.9313 25.6535V24.9365C39.6532 25.421 39.2472 25.8196 38.7577 26.0889C38.2682 26.3581 37.7142 26.4876 37.1561 26.4631C34.6964 26.4631 32.7959 24.5935 32.7959 21.9554C32.7959 19.1664 34.789 17.3894 37.1561 17.3894C38.3876 17.3894 39.4476 17.952 39.9313 18.7925V17.6467H41.9896L41.9862 25.1869ZM34.837 21.9142C34.8226 22.2571 34.8781 22.5994 35.0002 22.9201C35.1223 23.2409 35.3084 23.5334 35.5472 23.7799C35.786 24.0264 36.0724 24.2217 36.3892 24.3539C36.7059 24.4861 37.0462 24.5524 37.3893 24.5489C37.7279 24.5601 38.065 24.5006 38.3793 24.3742C38.6935 24.2478 38.9779 24.0573 39.2144 23.8147C39.6853 23.3255 39.9474 22.6722 39.9451 21.9931C39.9561 21.327 39.7367 20.6775 39.3241 20.1544C39.0908 19.8705 38.7944 19.6451 38.4584 19.4962C38.1225 19.3473 37.7564 19.279 37.3893 19.2968C37.0493 19.2948 36.7123 19.3612 36.3983 19.492C36.0844 19.6228 35.8 19.8154 35.5619 20.0583C35.3239 20.3011 35.137 20.5893 35.0125 20.9058C34.888 21.2223 34.8283 21.5605 34.837 21.9005V21.9142Z" fill="black"/>
<path d="M43.9968 22.6001C44.0894 23.9723 45.3038 24.7338 46.4736 24.7201C46.8908 24.7434 47.3059 24.6473 47.6704 24.4432C48.0349 24.239 48.3338 23.9353 48.5319 23.5675H50.6348C50.2845 24.4351 49.6883 25.1815 48.9196 25.715C48.2013 26.2113 47.3467 26.4726 46.4736 26.4628C45.2908 26.4346 44.1657 25.9459 43.3377 25.1008C42.5096 24.2556 42.0441 23.1207 42.0401 21.9376C42.036 20.7544 42.4939 19.6164 43.3161 18.7656C44.1384 17.9149 45.2601 17.4186 46.4427 17.3823C47.036 17.3718 47.6251 17.4822 48.1742 17.7069C48.7233 17.9317 49.2209 18.2659 49.6365 18.6893C50.1348 19.1993 50.5081 19.8178 50.7272 20.4964C50.9462 21.1749 51.005 21.895 50.899 22.6001H43.9968ZM48.8715 21.0426C48.7705 20.4805 48.4683 19.9745 48.0213 19.619C47.5743 19.2636 47.0131 19.0831 46.4427 19.1113C44.9299 19.1113 44.1066 20.2022 44.0414 21.0426H48.8715Z" fill="black"/>
<path d="M33.0641 13.7665C33.0641 15.3274 31.8566 16.2639 30.3746 16.2639C28.8926 16.2639 27.6816 15.3274 27.6816 13.7665C27.6816 12.2057 28.896 11.2451 30.3746 11.2451C31.8531 11.2451 33.0641 12.2365 33.0641 13.7665ZM29.4621 13.794C29.4544 13.9183 29.4723 14.0428 29.5147 14.16C29.557 14.2771 29.6228 14.3843 29.7081 14.4751C29.7935 14.5658 29.8965 14.6381 30.0108 14.6875C30.1251 14.7369 30.2483 14.7624 30.3729 14.7624C30.4974 14.7624 30.6206 14.7369 30.735 14.6875C30.8493 14.6381 30.9523 14.5658 31.0376 14.4751C31.1229 14.3843 31.1888 14.2771 31.2311 14.16C31.2734 14.0428 31.2913 13.9183 31.2837 13.794C31.2913 13.6697 31.2734 13.5451 31.2311 13.428C31.1888 13.3109 31.1229 13.2036 31.0376 13.1129C30.9523 13.0222 30.8493 12.9499 30.735 12.9005C30.6206 12.851 30.4974 12.8255 30.3729 12.8255C30.2483 12.8255 30.1251 12.851 30.0108 12.9005C29.8965 12.9499 29.7935 13.0222 29.7081 13.1129C29.6228 13.2036 29.557 13.3109 29.5147 13.428C29.4723 13.5451 29.4544 13.6697 29.4621 13.794Z" fill="black"/>
<path d="M33.5713 11.3206H35.338V16.185H33.5713V11.3206Z" fill="black"/>
<path d="M36.041 11.3206H37.7563L37.7185 13.4303H37.7563C37.8108 13.2361 37.8941 13.0511 38.0033 12.8814L38.8609 11.3206H40.7888L39.2691 13.6876L40.9501 16.185H38.8918L38.0547 14.7133C37.9287 14.5398 37.8282 14.3492 37.7563 14.1473H37.7185L37.7563 16.185H36.041V11.3206Z" fill="black"/>
<path d="M45.8864 13.7665C45.8864 15.3274 44.6788 16.2639 43.1968 16.2639C41.7149 16.2639 40.5039 15.3274 40.5039 13.7665C40.5039 12.2057 41.7183 11.2451 43.1968 11.2451C44.6754 11.2451 45.8864 12.2365 45.8864 13.7665ZM42.2843 13.794C42.2767 13.9183 42.2946 14.0428 42.3369 14.16C42.3792 14.2771 42.4451 14.3843 42.5304 14.4751C42.6157 14.5658 42.7187 14.6381 42.833 14.6875C42.9474 14.7369 43.0706 14.7624 43.1951 14.7624C43.3197 14.7624 43.4429 14.7369 43.5572 14.6875C43.6715 14.6381 43.7745 14.5658 43.8599 14.4751C43.9452 14.3843 44.011 14.2771 44.0534 14.16C44.0957 14.0428 44.1136 13.9183 44.1059 13.794C44.1136 13.6697 44.0957 13.5451 44.0534 13.428C44.011 13.3109 43.9452 13.2036 43.8599 13.1129C43.7745 13.0222 43.6715 12.9499 43.5572 12.9005C43.4429 12.851 43.3197 12.8255 43.1951 12.8255C43.0706 12.8255 42.9474 12.851 42.833 12.9005C42.7187 12.9499 42.6157 13.0222 42.5304 13.1129C42.4451 13.2036 42.3792 13.3109 42.3369 13.428C42.2946 13.5451 42.2767 13.6697 42.2843 13.794Z" fill="black"/>
<path d="M46.6725 14.4423L46.7616 14.5143C47.0703 14.7812 47.4588 14.9381 47.8663 14.9603C48.0412 14.9603 48.3157 14.8883 48.3157 14.6687C48.3157 14.4491 48.0858 14.432 47.9246 14.3977L47.5815 14.3325C46.8954 14.2124 46.3123 13.8042 46.3123 13.0426C46.3123 11.89 47.362 11.2451 48.422 11.2451C48.96 11.239 49.4889 11.384 49.9486 11.6636L49.4717 12.9089C49.1739 12.6848 48.815 12.5568 48.4426 12.5418C48.2882 12.5418 48.0618 12.6001 48.0618 12.7991C48.0618 12.998 48.2814 13.0049 48.4049 13.0358L48.8028 13.1284C49.5506 13.2965 50.0927 13.6944 50.0927 14.5212C50.0927 15.6807 49.0361 16.257 47.9829 16.257C47.3344 16.2486 46.6958 16.0963 46.1133 15.8111L46.6725 14.4423Z" fill="black"/>
<path fill-rule="evenodd" clip-rule="evenodd" d="M0.922852 7.32412L18.7477 0L28.1748 0.006861L50.919 10.0514L36.8779 10.0548L20.4493 2.45967L0.926282 10.0891L0.922852 7.32412Z" fill="black"/>
<path d="M48.8363 0.109875C48.4466 0.111908 48.0662 0.229322 47.7432 0.447299C47.4202 0.665277 47.169 0.974051 47.0212 1.33466C46.8735 1.69527 46.8359 2.09155 46.9132 2.47351C46.9905 2.85546 47.1791 3.20597 47.4554 3.48081C47.7317 3.75564 48.0832 3.94249 48.4655 4.01777C48.8479 4.09305 49.2439 4.05339 49.6038 3.9038C49.9636 3.7542 50.2711 3.50138 50.4874 3.17722C50.7037 2.85307 50.8191 2.47211 50.8191 2.08241C50.8187 1.82264 50.767 1.5655 50.6671 1.32571C50.5671 1.08592 50.4209 0.868193 50.2367 0.684981C50.0526 0.501768 49.8341 0.35667 49.5938 0.257986C49.3535 0.159303 49.096 0.108973 48.8363 0.109875ZM48.8363 3.91773C48.4733 3.91773 48.1184 3.81009 47.8166 3.60843C47.5148 3.40676 47.2796 3.12012 47.1407 2.78476C47.0017 2.4494 46.9654 2.08038 47.0362 1.72436C47.107 1.36834 47.2818 1.04132 47.5385 0.784648C47.7952 0.527974 48.1222 0.353177 48.4782 0.28236C48.8342 0.211544 49.2033 0.24789 49.5386 0.386801C49.874 0.525712 50.1606 0.760949 50.3623 1.06277C50.564 1.36458 50.6716 1.71942 50.6716 2.08241C50.6707 2.56889 50.477 3.03519 50.133 3.37918C49.789 3.72317 49.3228 3.91683 48.8363 3.91773Z" fill="#1E120D"/>
<path d="M47.9766 3.15956V1.00177H48.8925C49.0626 0.994345 49.2329 1.01403 49.3968 1.06009C49.4999 1.10056 49.5875 1.17261 49.6472 1.26592C49.7101 1.36912 49.7423 1.48813 49.7398 1.60897C49.7462 1.75585 49.6958 1.89955 49.5992 2.01034C49.4852 2.12464 49.3346 2.19509 49.1738 2.20931C49.2599 2.25693 49.3375 2.31835 49.4036 2.39113C49.4966 2.49823 49.5804 2.61299 49.6541 2.73418L49.9182 3.1527H49.3968L49.0812 2.68272C49.011 2.57301 48.9342 2.46762 48.8513 2.36711C48.8154 2.32765 48.7708 2.29711 48.721 2.27792C48.6496 2.25811 48.5754 2.25 48.5014 2.25391H48.4191V3.15956H47.9766ZM48.4191 1.91429H48.7416C48.8724 1.92098 49.0036 1.91292 49.1326 1.89027C49.1816 1.87152 49.2244 1.83944 49.2561 1.79765C49.2861 1.74925 49.3015 1.69331 49.3007 1.63642C49.3029 1.57298 49.2822 1.51088 49.2424 1.46146C49.199 1.41056 49.1375 1.37857 49.0709 1.37227C49.0332 1.37227 48.9302 1.37227 48.7519 1.37227H48.4088L48.4191 1.91429Z" fill="#1E120D"/>
<path fill-rule="evenodd" clip-rule="evenodd" d="M32.4599 27.0256L32.5011 27.1388C32.6545 27.597 32.8655 28.0339 33.1289 28.439H0.926758V27.0256H32.4599ZM42.2918 27.0256H50.9195V28.439H41.6365C41.8204 28.1688 41.9756 27.8803 42.0997 27.5779C42.1443 27.4682 42.1854 27.3584 42.2232 27.2555C42.2609 27.1526 42.2712 27.1011 42.2918 27.0256Z" fill="#EDD700"/>
<path fill-rule="evenodd" clip-rule="evenodd" d="M32.7369 27.7324C32.8487 27.9778 32.9795 28.2141 33.128 28.4391H0.898438V27.7324H32.7369ZM42.0302 27.7324H50.9495V28.4391H41.6357C41.7871 28.2153 41.9191 27.9788 42.0302 27.7324Z" fill="#1E120D"/>
<path d="M9.00195 36.1301V32.4561H9.9968L10.947 35.0941L11.8767 32.4561H12.8853V36.1301H12.1992L12.2163 33.1868L11.1872 36.1301H10.7035L9.67433 33.1868L9.69148 36.1301H9.00195Z" fill="white"/>
<path d="M13.4893 32.4561H14.2337V36.1301H13.4893V32.4561Z" fill="white"/>
<path d="M17.2001 34.9912V32.4424H17.8862V36.1165H17.2241L15.5088 33.5744V36.1165H14.8262V32.4561H15.4848L17.2001 34.9912Z" fill="white"/>
<path d="M18.4863 32.4561H19.2273V36.1301H18.4863V32.4561Z" fill="white"/>
<path d="M19.8213 32.4559H21.0323C21.325 32.4373 21.6159 32.5131 21.8624 32.672C21.9807 32.7613 22.075 32.8786 22.1367 33.0134C22.1985 33.1481 22.2259 33.2961 22.2163 33.444C22.2068 33.5919 22.1607 33.7352 22.0822 33.8609C22.0037 33.9866 21.8951 34.0908 21.7664 34.1643C21.9576 34.218 22.1252 34.3345 22.2422 34.4951C22.3592 34.6556 22.4187 34.8508 22.4113 35.0493C22.4164 35.2089 22.3826 35.3672 22.3126 35.5107C22.2427 35.6542 22.1388 35.7784 22.0099 35.8726C21.7053 36.0884 21.3301 36.1804 20.9602 36.1299H19.8213V32.4559ZM20.5657 33.9241H20.9739C21.0823 33.9277 21.1905 33.9114 21.293 33.8761C21.3611 33.8435 21.4177 33.7909 21.4551 33.7253C21.4925 33.6597 21.5089 33.5843 21.5022 33.509C21.5055 33.4384 21.4881 33.3683 21.4522 33.3073C21.4162 33.2464 21.3633 33.1973 21.2998 33.166C21.1907 33.1236 21.0737 33.1049 20.9568 33.1111H20.5657V33.9241ZM20.5657 35.4816H21.0871C21.2039 35.4849 21.3203 35.4663 21.4302 35.4267C21.5133 35.3934 21.5836 35.3347 21.6311 35.2588C21.6786 35.183 21.7007 35.094 21.6943 35.0047C21.6996 34.9179 21.6772 34.8316 21.6304 34.7582C21.5835 34.6849 21.5147 34.6283 21.4336 34.5965C21.3139 34.5536 21.1866 34.536 21.0597 34.545H20.5657V35.4816Z" fill="white"/>
<path d="M22.6483 34.3222C22.6367 33.9363 22.7406 33.5557 22.9467 33.2293C23.1528 32.9028 23.4517 32.6453 23.8051 32.4898C24.1585 32.3343 24.5503 32.2879 24.9302 32.3566C25.3102 32.4252 25.6609 32.6057 25.9376 32.875C26.2143 33.1443 26.4042 33.4901 26.4831 33.868C26.5619 34.246 26.5261 34.6389 26.3802 34.9963C26.2343 35.3538 25.985 35.6595 25.6642 35.8744C25.3434 36.0892 24.9658 36.2033 24.5797 36.2021C24.3292 36.2067 24.0802 36.1615 23.8472 36.0693C23.6141 35.9771 23.4017 35.8396 23.2221 35.6648C23.0426 35.49 22.8994 35.2814 22.8009 35.0509C22.7024 34.8205 22.6506 34.5728 22.6483 34.3222ZM23.3928 34.2948C23.4048 34.5286 23.4852 34.7537 23.6239 34.9423C23.7625 35.1309 23.9535 35.2747 24.173 35.3559C24.3926 35.4371 24.6311 35.4522 24.8591 35.3993C25.0872 35.3463 25.2947 35.2277 25.456 35.0581C25.6173 34.8884 25.7254 34.6752 25.7668 34.4448C25.8082 34.2144 25.7811 33.9769 25.689 33.7617C25.5968 33.5465 25.4436 33.3631 25.2483 33.2341C25.053 33.105 24.8241 33.0361 24.59 33.0358C24.4271 33.0374 24.2662 33.072 24.117 33.1372C23.9677 33.2025 23.8332 33.2973 23.7214 33.4158C23.6096 33.5343 23.5229 33.6741 23.4664 33.8269C23.41 33.9797 23.3849 34.1424 23.3928 34.3051V34.2948Z" fill="white"/>
<path d="M26.958 32.4559H28.1312C28.4239 32.4264 28.7194 32.4688 28.992 32.5794C29.2646 32.69 29.5061 32.8654 29.6955 33.0905C29.9556 33.4342 30.0889 33.8571 30.0729 34.2878C30.0729 35.3169 29.5275 36.1299 28.1861 36.1299H26.958V32.4559ZM27.7024 35.4816H28.2239C29.0232 35.4816 29.3319 34.9601 29.3319 34.2981C29.3389 34.0039 29.2511 33.7152 29.0815 33.4747C28.9803 33.3487 28.85 33.2492 28.7018 33.1846C28.5536 33.1201 28.3919 33.0925 28.2307 33.1042H27.7024V35.4816Z" fill="white"/>
<path d="M30.5078 32.4561H32.5661V33.1044H31.266V33.9415H32.5695V34.5898H31.266V35.4818H32.5936V36.1301H30.5353L30.5078 32.4561Z" fill="white"/>
<path d="M35.8216 33.5813C35.747 33.4666 35.6543 33.3647 35.5472 33.2795C35.3464 33.1199 35.097 33.0339 34.8405 33.0359C34.5184 33.0527 34.215 33.1925 33.993 33.4265C33.771 33.6604 33.6472 33.9706 33.6472 34.2932C33.6472 34.6157 33.771 34.9259 33.993 35.1599C34.215 35.3938 34.5184 35.5336 34.8405 35.5504C35.1026 35.5552 35.3595 35.4772 35.5746 35.3275C35.761 35.1916 35.8944 34.9951 35.952 34.7717H34.5798V34.1748H36.813C36.8267 34.4908 36.7704 34.8059 36.6484 35.0976C36.4848 35.4344 36.2283 35.7173 35.9092 35.913C35.5901 36.1087 35.2217 36.2091 34.8474 36.2022C34.5022 36.1948 34.1655 36.0941 33.873 35.9106C33.5806 35.7272 33.3433 35.4679 33.1863 35.1604C33.0294 34.8529 32.9587 34.5087 32.9818 34.1642C33.0049 33.8198 33.1208 33.488 33.3174 33.2041C33.5139 32.9203 33.7836 32.695 34.098 32.5522C34.4123 32.4094 34.7594 32.3545 35.1025 32.3931C35.4455 32.4318 35.7717 32.5627 36.0463 32.7719C36.3209 32.9812 36.5337 33.2609 36.6621 33.5813H35.8216Z" fill="white"/>
<path d="M37.4614 36.1301H36.6553L38.151 32.4561H38.8131L40.2745 36.1301H39.4614L39.1938 35.4097H37.7359L37.4614 36.1301ZM38.446 33.3308L37.9211 34.8197H38.9846L38.446 33.3308Z" fill="white"/>
<path d="M41.0919 34.9909C41.1193 35.4883 41.4349 35.5843 41.6099 35.5843C41.7409 35.5853 41.8672 35.5348 41.9615 35.4437C42.0557 35.3526 42.1106 35.2282 42.1141 35.0972C42.1141 34.785 41.85 34.7027 41.3389 34.5003C41.0576 34.4008 40.416 34.1572 40.416 33.4711C40.4221 33.3185 40.4588 33.1686 40.5239 33.0304C40.5891 32.8922 40.6814 32.7685 40.7954 32.6667C40.9093 32.5649 41.0426 32.4871 41.1872 32.4379C41.3319 32.3887 41.4849 32.3691 41.6373 32.3802C41.7855 32.3695 41.9343 32.3891 42.0745 32.4381C42.2148 32.487 42.3435 32.5642 42.4528 32.6648C42.5621 32.7654 42.6496 32.8873 42.71 33.0231C42.7703 33.1588 42.8022 33.3054 42.8037 33.454H42.0696C42.0387 33.2859 41.9769 33.0012 41.6099 33.0012C41.5524 32.9979 41.4949 33.0063 41.4408 33.0257C41.3866 33.0452 41.3369 33.0753 41.2947 33.1144C41.2524 33.1534 41.2185 33.2006 41.1948 33.253C41.1712 33.3055 41.1583 33.3622 41.157 33.4197C41.157 33.6941 41.3526 33.7627 41.9769 34.02C42.5395 34.2636 42.8517 34.5346 42.8517 35.0492C42.8582 35.2087 42.8301 35.3677 42.7693 35.5153C42.7084 35.663 42.6163 35.7956 42.4992 35.9042C42.3822 36.0128 42.243 36.0947 42.0912 36.1443C41.9394 36.1939 41.7787 36.21 41.6202 36.1915C41.4538 36.21 41.2855 36.1918 41.127 36.138C40.9686 36.0843 40.8238 35.9964 40.7031 35.8805C40.5823 35.7647 40.4885 35.6237 40.4282 35.4676C40.368 35.3115 40.3427 35.1441 40.3543 34.9771L41.0919 34.9909Z" fill="white"/>
</svg>
