<svg width="20" height="20" viewBox="0 0 20 20" fill="none" xmlns="http://www.w3.org/2000/svg">
<path d="M6 7.33334L6.53333 7.73334C6.60762 7.63429 6.65285 7.51652 6.66397 7.39321C6.67509 7.2699 6.65165 7.14593 6.59628 7.0352C6.54092 6.92446 6.4558 6.83133 6.35049 6.76624C6.24517 6.70115 6.12381 6.66667 6 6.66667V7.33334ZM4 10L3.46667 9.60001C3.39238 9.69905 3.34715 9.81683 3.33603 9.94014C3.32491 10.0634 3.34835 10.1874 3.40372 10.2981C3.45908 10.4089 3.5442 10.502 3.64951 10.5671C3.75483 10.6322 3.87619 10.6667 4 10.6667V10ZM16.9813 3.80534L17.4907 4.23601L16.9813 3.80534ZM2.66667 8.00001H6V6.66667H2.66667V8.00001ZM5.46667 6.93334L3.46667 9.60001L4.53333 10.4L6.53333 7.73334L5.46667 6.93334ZM4 10.6667H4.66667V9.33334H4V10.6667ZM4.66667 12H2.66667V13.3333H4.66667V12ZM5.33333 11.3333C5.33333 11.5101 5.2631 11.6797 5.13807 11.8047C5.01305 11.9298 4.84348 12 4.66667 12V13.3333C5.1971 13.3333 5.70581 13.1226 6.08088 12.7476C6.45595 12.3725 6.66667 11.8638 6.66667 11.3333H5.33333ZM4.66667 10.6667C4.84348 10.6667 5.01305 10.7369 5.13807 10.8619C5.2631 10.987 5.33333 11.1565 5.33333 11.3333H6.66667C6.66667 10.8029 6.45595 10.2942 6.08088 9.91913C5.70581 9.54405 5.1971 9.33334 4.66667 9.33334V10.6667ZM10.6667 6.66667H10V8.00001H10.6667V6.66667ZM8 8.66667V10H9.33333V8.66667H8ZM8 10V11.3333H9.33333V10H8ZM10 9.33334H8.66667V10.6667H10V9.33334ZM12 11.3333C12 10.8029 11.7893 10.2942 11.4142 9.91913C11.0391 9.54405 10.5304 9.33334 10 9.33334V10.6667C10.1768 10.6667 10.3464 10.7369 10.4714 10.8619C10.5964 10.987 10.6667 11.1565 10.6667 11.3333H12ZM10 13.3333C10.5304 13.3333 11.0391 13.1226 11.4142 12.7476C11.7893 12.3725 12 11.8638 12 11.3333H10.6667C10.6667 11.5101 10.5964 11.6797 10.4714 11.8047C10.3464 11.9298 10.1768 12 10 12V13.3333ZM10 12C9.82319 12 9.65362 11.9298 9.5286 11.8047C9.40357 11.6797 9.33333 11.5101 9.33333 11.3333H8C8 11.8638 8.21071 12.3725 8.58579 12.7476C8.96086 13.1226 9.46957 13.3333 10 13.3333V12ZM10 6.66667C9.46957 6.66667 8.96086 6.87739 8.58579 7.25246C8.21071 7.62753 8 8.13624 8 8.66667H9.33333C9.33333 8.48986 9.40357 8.32029 9.5286 8.19527C9.65362 8.07024 9.82319 8.00001 10 8.00001V6.66667ZM16 8.66667V11.3333H17.3333V8.66667H16ZM14.6667 11.3333V8.66667H13.3333V11.3333H14.6667ZM15.3333 12C15.1565 12 14.987 11.9298 14.8619 11.8047C14.7369 11.6797 14.6667 11.5101 14.6667 11.3333H13.3333C13.3333 11.8638 13.544 12.3725 13.9191 12.7476C14.2942 13.1226 14.8029 13.3333 15.3333 13.3333V12ZM16 11.3333C16 11.5101 15.9298 11.6797 15.8047 11.8047C15.6797 11.9298 15.5101 12 15.3333 12V13.3333C15.8638 13.3333 16.3725 13.1226 16.7475 12.7476C17.1226 12.3725 17.3333 11.8638 17.3333 11.3333H16ZM15.3333 8.00001C15.5101 8.00001 15.6797 8.07024 15.8047 8.19527C15.9298 8.32029 16 8.48986 16 8.66667H17.3333C17.3333 8.13624 17.1226 7.62753 16.7475 7.25246C16.3725 6.87739 15.8638 6.66667 15.3333 6.66667V8.00001ZM15.3333 6.66667C14.8029 6.66667 14.2942 6.87739 13.9191 7.25246C13.544 7.62753 13.3333 8.13624 13.3333 8.66667H14.6667C14.6667 8.48986 14.7369 8.32029 14.8619 8.19527C14.987 8.07024 15.1565 8.00001 15.3333 8.00001V6.66667ZM10 18.6667C7.70146 18.6667 5.49706 17.7536 3.87174 16.1283C2.24643 14.5029 1.33333 12.2985 1.33333 10H0C0 12.6522 1.05357 15.1957 2.92893 17.0711C4.8043 18.9464 7.34784 20 10 20V18.6667ZM18.6667 10C18.6667 11.1381 18.4425 12.2651 18.007 13.3166C17.5714 14.3681 16.933 15.3235 16.1283 16.1283C15.3235 16.933 14.3681 17.5714 13.3166 18.007C12.2651 18.4425 11.1381 18.6667 10 18.6667V20C12.6522 20 15.1957 18.9464 17.0711 17.0711C18.9464 15.1957 20 12.6522 20 10H18.6667ZM10 5.52513e-06C7.34784 5.52513e-06 4.8043 1.05357 2.92893 2.92894C1.05357 4.8043 0 7.34784 0 10H1.33333C1.33333 7.70146 2.24643 5.49706 3.87174 3.87175C5.49706 2.24643 7.70146 1.33334 10 1.33334V5.52513e-06ZM18 4.00001C18.1768 4.00001 18.3464 4.07024 18.4714 4.19527C18.5964 4.32029 18.6667 4.48986 18.6667 4.66667H20C20 4.13624 19.7893 3.62753 19.4142 3.25246C19.0391 2.87739 18.5304 2.66667 18 2.66667V4.00001ZM18 5.33334C17.8232 5.33334 17.6536 5.2631 17.5286 5.13808C17.4036 5.01305 17.3333 4.84348 17.3333 4.66667H16C16 5.19711 16.2107 5.70581 16.5858 6.08089C16.9609 6.45596 17.4696 6.66667 18 6.66667V5.33334ZM17.3333 4.66667C17.3333 4.50267 17.392 4.35334 17.4907 4.23601L16.4733 3.37467C16.1787 3.72267 16 4.17467 16 4.66667H17.3333ZM17.4907 4.23601C17.5532 4.16186 17.6312 4.10231 17.7192 4.06153C17.8072 4.02076 17.903 3.99976 18 4.00001V2.66667C17.3867 2.66667 16.8387 2.94267 16.4733 3.37467L17.4907 4.23601ZM10 1.33334C12.5787 1.33334 14.8947 2.45867 16.4827 4.24801L17.48 3.36267C16.5426 2.30418 15.391 1.457 14.1015 0.877272C12.8119 0.297546 11.4139 -0.00148234 10 5.52513e-06V1.33334ZM17.8053 6.22667C18.3573 7.36801 18.6667 8.64667 18.6667 10H20C20 8.44001 19.6427 6.96401 19.0053 5.64667L17.8053 6.22801V6.22667ZM18.6667 4.66667C18.6669 4.80821 18.622 4.94613 18.5386 5.06048C18.4552 5.17482 18.3375 5.25964 18.2027 5.30267L18.608 6.57201C19.0121 6.44306 19.3647 6.18899 19.6149 5.8465C19.8651 5.504 20 5.09083 20 4.66667H18.6667ZM18.2027 5.30267C18.1371 5.32328 18.0687 5.33363 18 5.33334V6.66667C18.2063 6.6671 18.4114 6.63562 18.608 6.57334L18.2027 5.30267Z" fill="white"/>
</svg>
