<svg width="20" height="69" viewBox="0 0 20 69" fill="none" xmlns="http://www.w3.org/2000/svg">
<g opacity="0.44">
<circle cx="17.5171" cy="2.07831" r="2.07831" transform="rotate(90 17.5171 2.07831)" fill="#ADADAD"/>
<circle cx="9.79778" cy="2.07831" r="2.07831" transform="rotate(90 9.79778 2.07831)" fill="#ADADAD"/>
<circle cx="2.0783" cy="2.07831" r="2.07831" transform="rotate(90 2.0783 2.07831)" fill="#ADADAD"/>
<g opacity="0.8">
<circle cx="17.5171" cy="12.8854" r="2.07831" transform="rotate(90 17.5171 12.8854)" fill="#ADADAD"/>
<circle cx="9.79778" cy="12.8854" r="2.07831" transform="rotate(90 9.79778 12.8854)" fill="#ADADAD"/>
<circle cx="2.0783" cy="12.8854" r="2.07831" transform="rotate(90 2.0783 12.8854)" fill="#ADADAD"/>
</g>
<g opacity="0.7">
<circle cx="17.5171" cy="23.6927" r="2.07831" transform="rotate(90 17.5171 23.6927)" fill="#ADADAD"/>
<circle cx="9.79778" cy="23.6927" r="2.07831" transform="rotate(90 9.79778 23.6927)" fill="#ADADAD"/>
<circle cx="2.0783" cy="23.6927" r="2.07831" transform="rotate(90 2.0783 23.6927)" fill="#ADADAD"/>
</g>
<g opacity="0.6">
<circle cx="17.5171" cy="34.4999" r="2.07831" transform="rotate(90 17.5171 34.4999)" fill="#ADADAD"/>
<circle cx="9.79778" cy="34.4999" r="2.07831" transform="rotate(90 9.79778 34.4999)" fill="#ADADAD"/>
<circle cx="2.0783" cy="34.4999" r="2.07831" transform="rotate(90 2.0783 34.4999)" fill="#ADADAD"/>
</g>
<g opacity="0.5">
<circle cx="17.5171" cy="45.3072" r="2.07831" transform="rotate(90 17.5171 45.3072)" fill="#ADADAD"/>
<circle cx="9.79778" cy="45.3072" r="2.07831" transform="rotate(90 9.79778 45.3072)" fill="#ADADAD"/>
<circle cx="2.0783" cy="45.3072" r="2.07831" transform="rotate(90 2.0783 45.3072)" fill="#ADADAD"/>
</g>
<g opacity="0.3">
<circle cx="17.5171" cy="56.1143" r="2.07831" transform="rotate(90 17.5171 56.1143)" fill="#ADADAD"/>
<circle cx="9.79778" cy="56.1143" r="2.07831" transform="rotate(90 9.79778 56.1143)" fill="#ADADAD"/>
<circle cx="2.0783" cy="56.1143" r="2.07831" transform="rotate(90 2.0783 56.1143)" fill="#ADADAD"/>
</g>
<g opacity="0.1">
<circle cx="17.5171" cy="66.9216" r="2.07831" transform="rotate(90 17.5171 66.9216)" fill="#ADADAD"/>
<circle cx="9.79778" cy="66.9216" r="2.07831" transform="rotate(90 9.79778 66.9216)" fill="#ADADAD"/>
<circle cx="2.0783" cy="66.9216" r="2.07831" transform="rotate(90 2.0783 66.9216)" fill="#ADADAD"/>
</g>
</g>
</svg>
