<svg width="49" height="49" viewBox="0 0 49 49" fill="none" xmlns="http://www.w3.org/2000/svg">
<path d="M24.4539 0C10.9481 0 0 10.9688 0 24.5C0 38.0312 10.9481 49 24.4539 49C37.9596 49 48.9078 38.0312 48.9078 24.5C48.9078 10.9688 37.9596 0 24.4539 0ZM24.4539 45.4779C12.9068 45.4779 3.51544 36.0664 3.51544 24.5C3.51544 12.9337 12.9093 3.52206 24.4539 3.52206C35.9985 3.52206 45.3923 12.9337 45.3923 24.5C45.3923 36.0664 35.9985 45.4779 24.4539 45.4779Z" fill="#182360"/>
<path d="M18.4736 18.9233C18.9436 17.0908 17.8418 15.2235 16.0127 14.7527C14.1837 14.2818 12.3199 15.3857 11.85 17.2182C11.38 19.0507 12.4818 20.918 14.3108 21.3888C16.1399 21.8597 18.0037 20.7558 18.4736 18.9233Z" fill="#182360"/>
<path d="M35.0408 21.2335C36.7879 20.5152 37.6231 18.514 36.9062 16.7636C36.1893 15.0132 34.1918 14.1764 32.4447 14.8947C30.6976 15.6129 29.8624 17.6142 30.5793 19.3646C31.2962 21.115 33.2937 21.9517 35.0408 21.2335Z" fill="#182360"/>
<path d="M24.4539 38.0438C20.0843 38.0438 16.0786 35.8359 13.7358 32.1417C13.0357 31.0352 13.3617 29.5716 14.4662 28.8703C15.568 28.1689 17.0313 28.4955 17.7314 29.602C19.1997 31.9188 21.7119 33.3039 24.4514 33.3039C27.191 33.3039 29.7031 31.9188 31.1714 29.602C31.8715 28.4955 33.3348 28.1689 34.4367 28.8703C35.5411 29.5716 35.8671 31.0377 35.167 32.1417C32.8268 35.8384 28.8185 38.0438 24.4489 38.0438H24.4539Z" fill="#182360"/>
</svg>
