<svg width="45" height="45" viewBox="0 0 45 45" fill="none" xmlns="http://www.w3.org/2000/svg">
<path d="M9.17841 44.3461C8.42644 44.0494 8.15992 43.518 8.16349 42.7473C8.18609 37.8855 8.1742 33.0249 8.17539 28.163C8.17539 27.0506 8.65251 26.5981 9.82092 26.597C11.6782 26.5958 13.5356 26.5958 15.3929 26.597C16.528 26.597 17.0265 27.0697 17.0265 28.1405C17.0265 32.9741 17.0146 37.8066 17.0384 42.6402C17.042 43.4243 16.8195 44.0076 16.0485 44.3461H9.17722H9.17841Z" fill="white"/>
<path d="M22.8316 0.655024C23.2698 0.850091 23.5442 1.2056 23.7787 1.62805C24.1859 2.3633 24.6119 3.08932 25.0611 3.79687C25.1751 3.97693 25.3887 4.14314 25.5878 4.1997C26.4797 4.45363 27.3836 4.65563 28.2788 4.89455C29.3244 5.17388 29.6541 6.23924 28.9637 7.10146C28.3883 7.82056 27.8052 8.53388 27.211 9.23566C27.0251 9.45612 26.9399 9.66965 26.9665 9.97091C27.0517 10.9035 27.1026 11.8385 27.1756 12.7723C27.2675 13.9427 26.4033 14.6121 25.3521 14.17C24.4946 13.8088 23.6482 13.4232 22.7862 13.0758C22.6169 13.0077 22.3801 13.0089 22.2109 13.077C21.3489 13.4244 20.5025 13.8111 19.6449 14.1712C18.5927 14.6121 17.7307 13.9427 17.8226 12.7723C17.8967 11.8385 17.9476 10.9035 18.0317 9.97091C18.0594 9.67081 17.9753 9.45612 17.7883 9.23566C17.2018 8.54542 16.6331 7.83902 16.0611 7.13494C15.3319 6.23694 15.6671 5.16465 16.7603 4.88647C17.6455 4.66255 18.534 4.45479 19.4115 4.20316C19.6106 4.14661 19.8242 3.97809 19.9382 3.79687C20.394 3.07547 20.8255 2.33791 21.2416 1.58996C21.4695 1.1802 21.7439 0.843165 22.1666 0.65387H22.8305L22.8316 0.655024Z" fill="white"/>
<path d="M44.3462 11.3273C43.6155 12.215 42.8942 13.1108 42.1473 13.9859C41.9254 14.2453 41.829 14.484 41.8685 14.8356C41.9707 15.751 42.0346 16.6722 42.0834 17.5922C42.1461 18.7809 41.2505 19.3908 40.1319 18.9354C39.2468 18.5757 38.3698 18.1964 37.4789 17.8539C37.3011 17.7859 37.0525 17.7871 36.8748 17.8551C35.9827 18.1975 35.1069 18.5791 34.2206 18.9354C33.0509 19.4058 32.1471 18.7175 32.2633 17.4643C32.3493 16.5465 32.4317 15.6277 32.4817 14.7076C32.4921 14.5059 32.405 14.2545 32.2761 14.0966C31.6744 13.3576 31.0378 12.6462 30.421 11.9187C29.6509 11.0102 29.9994 9.95415 31.1551 9.67629C32.0705 9.45609 32.9823 9.21974 33.9023 9.02144C34.2032 8.95687 34.3774 8.81045 34.5272 8.55681C34.9989 7.7636 35.489 6.98077 35.9781 6.19794C36.6181 5.173 37.739 5.17876 38.3826 6.20832C38.8867 7.01536 39.3734 7.83508 39.8926 8.63175C39.996 8.79085 40.1993 8.93497 40.384 8.98454C41.2227 9.20936 42.0671 9.42035 42.9186 9.59213C43.5714 9.72356 44.0837 9.99796 44.345 10.6344V11.3261L44.3462 11.3273Z" fill="white"/>
<path d="M0.65387 10.6322C0.909376 10.0169 1.39716 9.73114 2.03825 9.60094C2.90349 9.4258 3.76176 9.21264 4.61538 8.98451C4.80005 8.93496 5.00329 8.79094 5.10665 8.63078C5.6258 7.83345 6.11242 7.01539 6.61647 6.20885C7.25872 5.17877 8.38062 5.17301 9.02055 6.19732C9.5246 7.00387 10.0077 7.82424 10.5304 8.61926C10.6407 8.78748 10.8614 8.93381 11.0588 8.98681C11.996 9.23684 12.9449 9.44308 13.8856 9.68044C14.9901 9.95812 15.335 11.0158 14.6057 11.8823C13.982 12.622 13.3351 13.3433 12.7242 14.0922C12.5953 14.2501 12.5071 14.5013 12.5175 14.7029C12.5651 15.6074 12.6429 16.5119 12.7312 17.414C12.859 18.716 11.9496 19.4085 10.7359 18.9142C9.86488 18.5593 9.00197 18.1849 8.12396 17.8484C7.94626 17.7804 7.69772 17.7804 7.52003 17.8484C6.65595 18.1803 5.78491 18.5052 4.95335 18.9084C3.8268 19.4557 2.73741 18.6769 2.90697 17.4544C3.03008 16.5718 3.03473 15.6742 3.13461 14.7882C3.17061 14.4655 3.08583 14.2455 2.88026 14.015C2.30305 13.3686 1.73977 12.7096 1.18114 12.0471C0.989512 11.8189 0.82924 11.5654 0.655031 11.3235C0.655031 11.093 0.655031 10.8626 0.655031 10.6322H0.65387Z" fill="white"/>
<path d="M27.7279 27.2369C27.9515 27.2369 28.1158 27.2369 28.2812 27.2369C30.1811 27.2369 32.081 27.2267 33.9798 27.2402C35.8026 27.2538 37.2052 28.3685 37.4801 30.1201C37.5796 30.7536 37.4701 31.4378 37.365 32.0836C36.9348 34.7076 36.4911 37.3294 36.0116 39.9433C35.6059 42.1547 33.8379 43.6268 31.558 43.6482C28.7506 43.6753 25.9431 43.6595 23.1346 43.6527C21.9455 43.6494 20.8815 43.2796 20.0076 42.4444C19.8846 42.3261 19.7796 42.1175 19.7784 41.9507C19.7662 37.3858 19.7662 32.8219 19.7784 28.2569C19.7784 28.1217 19.9059 27.9199 20.0277 27.8636C21.2582 27.2932 22.0528 26.3588 22.4484 25.057C22.9748 23.3223 23.5168 21.5932 24.0522 19.8608C24.4634 18.5285 25.4715 18.072 26.731 18.6491C28.4678 19.4437 29.4066 21.3734 28.9115 23.2377C28.5617 24.5531 28.1415 25.8505 27.7279 27.2369Z" fill="white"/>
</svg>
