<svg width="49" height="49" viewBox="0 0 49 49" fill="none" xmlns="http://www.w3.org/2000/svg">
<path d="M24.4539 0C10.9481 0 0 10.9688 0 24.5C0 38.0312 10.9481 49 24.4539 49C37.9596 49 48.9078 38.0312 48.9078 24.5C48.9078 10.9688 37.9596 0 24.4539 0ZM24.4539 45.4779C12.9068 45.4779 3.51544 36.0664 3.51544 24.5C3.51544 12.9337 12.9093 3.52206 24.4539 3.52206C35.9985 3.52206 45.3923 12.9337 45.3923 24.5C45.3923 36.0664 35.9985 45.4779 24.4539 45.4779Z" fill="#182360"/>
<path d="M17.5805 20.4926C18.9159 19.1548 18.9159 16.9856 17.5805 15.6478C16.2452 14.3099 14.0801 14.3099 12.7448 15.6478C11.4094 16.9856 11.4094 19.1548 12.7448 20.4926C14.0801 21.8305 16.2452 21.8305 17.5805 20.4926Z" fill="#182360"/>
<path d="M35.2085 21.1628C36.9149 20.3521 37.6422 18.309 36.8331 16.5995C36.0239 14.8899 33.9847 14.1612 32.2784 14.9718C30.572 15.7825 29.8447 17.8256 30.6538 19.5352C31.4629 21.2447 33.5022 21.9734 35.2085 21.1628Z" fill="#182360"/>
<path d="M33.1756 38.0439C32.3922 38.0439 31.6264 37.6539 31.174 36.9424C29.7057 34.6256 27.1935 33.2406 24.454 33.2406C21.7144 33.2406 19.2023 34.6256 17.734 36.9424C17.0339 38.0489 15.5706 38.3756 14.4687 37.6742C13.3643 36.9728 13.0383 35.5068 13.7383 34.4028C16.0786 30.706 20.0869 28.5006 24.4565 28.5006C28.8262 28.5006 32.8319 30.7085 35.1747 34.4028C35.8747 35.5093 35.5487 36.9728 34.4443 37.6742C34.05 37.9249 33.6128 38.0439 33.1781 38.0439H33.1756Z" fill="#182360"/>
</svg>
