<svg width="51" height="40" viewBox="0 0 51 40" fill="none" xmlns="http://www.w3.org/2000/svg">
<path d="M4.61578 34.9971V36.3314H4.50141C4.42517 35.9883 4.27268 35.7214 4.04394 35.5308C3.81521 35.3402 3.54835 35.2639 3.28149 35.2639C3.05275 35.2639 2.82402 35.3402 2.59528 35.4927C2.40467 35.6452 2.25218 35.7976 2.13781 36.0264C2.02344 36.3314 1.9472 36.6363 1.9472 36.9795C1.9472 37.3226 1.98532 37.6275 2.06156 37.9325C2.13781 38.1994 2.2903 38.4281 2.48091 38.5806C2.67153 38.7331 2.90026 38.8093 3.20524 38.8093C3.43398 38.8093 3.66272 38.7712 3.89145 38.6568C4.08207 38.5425 4.3108 38.3519 4.53954 38.085V38.4281C4.3108 38.6568 4.08207 38.8093 3.85333 38.9237C3.62459 39.0381 3.35773 39.0762 3.01463 39.0762C2.59528 39.0762 2.21405 39 1.90907 38.8093C1.60409 38.6187 1.33723 38.39 1.14662 38.085C0.956006 37.78 0.879761 37.4369 0.879761 37.0938C0.879761 36.7126 0.994129 36.3695 1.18474 36.0264C1.37536 35.6833 1.64221 35.4164 1.98532 35.2639C2.32842 35.0733 2.67153 34.9971 3.05275 34.9971C3.31961 34.9971 3.62459 35.0733 3.92957 35.1877C4.12019 35.2639 4.23456 35.3021 4.27268 35.3021C4.34892 35.3021 4.38705 35.2639 4.42517 35.2258C4.46329 35.1877 4.50141 35.1114 4.50141 34.9971H4.61578Z" fill="#2A3C7F"/>
<path d="M7.2081 35.0351C7.81806 34.9969 8.31366 35.1876 8.73301 35.5688C9.11423 35.95 9.30485 36.4456 9.30485 37.0174C9.30485 37.513 9.15236 37.9324 8.8855 38.3136C8.50427 38.8092 7.97055 39.0761 7.24622 39.0761C6.56001 39.0761 5.98817 38.8473 5.60695 38.3517C5.30197 37.9705 5.14948 37.5512 5.14948 37.0174C5.14948 36.4456 5.34009 35.95 5.75944 35.5688C6.17879 35.1876 6.63626 34.9969 7.2081 35.0351ZM7.24622 35.2257C6.90312 35.2257 6.63626 35.4163 6.44565 35.7594C6.29316 36.0644 6.21691 36.4837 6.21691 37.0556C6.21691 37.7036 6.33128 38.1992 6.56001 38.5423C6.7125 38.7711 6.94124 38.8855 7.24622 38.8855C7.43684 38.8855 7.58933 38.8473 7.74182 38.733C7.89431 38.6186 8.0468 38.428 8.12304 38.1611C8.19929 37.8943 8.27553 37.5512 8.27553 37.0937C8.27553 36.5981 8.23741 36.1787 8.12304 35.95C8.00868 35.6831 7.89431 35.5307 7.74182 35.4163C7.62745 35.2638 7.43684 35.2257 7.24622 35.2257Z" fill="#2A3C7F"/>
<path d="M10.9823 35.0732L12.8885 37.475V35.7976C12.8885 35.5688 12.8504 35.4163 12.7741 35.3401C12.6979 35.2257 12.5454 35.1876 12.3166 35.1876V35.0732H13.6128V35.1876C13.4603 35.2257 13.346 35.2257 13.2697 35.2639C13.2316 35.302 13.1553 35.3401 13.1553 35.4163C13.1172 35.4926 13.1172 35.607 13.1172 35.7976V39.038H13.0028L10.3724 35.7976V38.2755C10.3724 38.5043 10.4105 38.6568 10.5249 38.733C10.6392 38.8093 10.7536 38.8474 10.868 38.8474H10.9442V38.9618H9.57181V38.8474C9.80054 38.8474 9.95303 38.8093 10.0293 38.733C10.1055 38.6568 10.1436 38.5043 10.1436 38.2755V35.5307L10.0674 35.4163C9.99116 35.302 9.91491 35.2639 9.83867 35.2257C9.76242 35.1876 9.68618 35.1876 9.57181 35.1876V35.0732H10.9823Z" fill="#2A3C7F"/>
<path d="M16.5481 34.9967L16.5862 36.2929H16.4719C16.4337 35.9498 16.2812 35.721 16.0525 35.4923C15.8238 35.2636 15.595 35.1873 15.3663 35.1873C15.1757 35.1873 15.0232 35.2254 14.9088 35.3398C14.7945 35.4542 14.7563 35.5685 14.7563 35.6829C14.7563 35.7591 14.7945 35.8354 14.8326 35.9116C14.8707 35.9879 14.9851 36.1022 15.0994 36.1785C15.1757 36.2547 15.4044 36.3691 15.7094 36.5216C16.1669 36.7503 16.4719 36.9409 16.6243 37.1697C16.7768 37.3603 16.8531 37.589 16.8531 37.8559C16.8531 38.199 16.7387 38.4659 16.4719 38.6946C16.205 38.9233 15.9 39.0377 15.5188 39.0377C15.4044 39.0377 15.29 39.0377 15.1757 38.9996C15.0613 38.9614 14.9469 38.9233 14.7563 38.8471C14.6801 38.809 14.6038 38.7708 14.5276 38.7708C14.4895 38.7708 14.4132 38.809 14.3751 38.8471C14.337 38.8852 14.2607 38.9614 14.2226 39.0377H14.1082V37.5509H14.2226C14.2989 37.9703 14.4514 38.2752 14.7182 38.504C14.9469 38.7327 15.2138 38.8471 15.4807 38.8471C15.7094 38.8471 15.8619 38.7708 15.9763 38.6565C16.0906 38.5421 16.1669 38.3896 16.1669 38.2371C16.1669 38.1609 16.1287 38.0465 16.0906 37.9703C16.0525 37.894 15.9763 37.8178 15.8619 37.7415C15.7475 37.6653 15.595 37.5509 15.3282 37.4365C14.9851 37.2459 14.7182 37.1316 14.5657 36.9791C14.4132 36.8647 14.2989 36.7122 14.2226 36.5597C14.1464 36.4072 14.1082 36.2547 14.1082 36.0641C14.1082 35.7591 14.2226 35.4923 14.4514 35.2636C14.6801 35.0348 14.9851 34.9204 15.3282 34.9204C15.4425 34.9204 15.595 34.9204 15.7094 34.9586C15.7856 34.9967 15.9 35.0348 16.0525 35.0729C16.1669 35.1492 16.2812 35.1492 16.3194 35.1492C16.3575 35.1492 16.3956 35.1492 16.4337 35.1111C16.4719 35.0729 16.4719 34.9967 16.51 34.8823L16.5481 34.9967Z" fill="#2A3C7F"/>
<path d="M20.7416 35.1881V36.2555H20.6273C20.551 36.0268 20.5129 35.8361 20.4367 35.7218C20.3604 35.6074 20.246 35.5312 20.1317 35.4549C20.0554 35.4168 19.9411 35.4168 19.7504 35.4168H19.4455V38.4285C19.4455 38.6191 19.4455 38.7335 19.4836 38.8097C19.5217 38.8478 19.5598 38.886 19.598 38.9241C19.6742 38.9622 19.7504 38.9622 19.8648 38.9622H19.9792V39.0766H17.9587V38.9622H18.073C18.1874 38.9622 18.2637 38.9241 18.3399 38.886C18.378 38.8478 18.4161 38.8097 18.4543 38.7335C18.4924 38.6953 18.4924 38.581 18.4924 38.3904V35.3787H18.2255C17.9587 35.3787 17.7681 35.4168 17.6537 35.5312C17.5012 35.6837 17.3868 35.9124 17.3487 36.1792H17.2343V35.1118L20.7416 35.1881Z" fill="#2A3C7F"/>
<path d="M22.5333 37.2842V38.3897C22.5333 38.6185 22.5333 38.7328 22.5714 38.771C22.6096 38.8091 22.6477 38.8853 22.7239 38.8853C22.8002 38.9234 22.9145 38.9234 23.1052 38.9234V39.0378H21.1228V38.9616C21.3134 38.9616 21.4278 38.9616 21.504 38.9234C21.5802 38.8853 21.6184 38.8472 21.6565 38.8091C21.6946 38.771 21.6946 38.6185 21.6946 38.4279V35.9118C21.6946 35.683 21.6946 35.5687 21.6565 35.5305C21.6184 35.4924 21.5802 35.4162 21.504 35.4162C21.4278 35.378 21.3134 35.378 21.1228 35.378V35.2637H22.9145C23.372 35.2637 23.7151 35.3018 23.9438 35.378C24.1726 35.4543 24.3251 35.5687 24.4776 35.7211C24.6301 35.9118 24.6682 36.1024 24.6682 36.3311C24.6682 36.6361 24.5538 36.8648 24.3632 37.0554C24.2488 37.1698 24.0582 37.246 23.7914 37.3223L24.7444 38.6566C24.8588 38.8091 24.935 38.9234 25.0113 38.9616C25.0875 39.0378 25.1638 39.0378 25.2781 39.0759V39.1903H24.0582L22.8002 37.3985H22.5333V37.2842ZM22.5333 35.378V37.0936H22.6858C22.9527 37.0936 23.1433 37.0554 23.2958 37.0173C23.4101 36.9792 23.5245 36.8648 23.6007 36.7505C23.677 36.6361 23.7151 36.4455 23.7151 36.2549C23.7151 35.9499 23.6389 35.7211 23.5245 35.6068C23.372 35.4543 23.1433 35.378 22.8383 35.378H22.5333Z" fill="#2A3C7F"/>
<path d="M25.3545 35.0733H27.3368V35.1877H27.2225C27.07 35.1877 26.9556 35.1877 26.9175 35.2258C26.8794 35.2639 26.8031 35.3021 26.8031 35.3402C26.765 35.3783 26.765 35.5308 26.765 35.7595V37.6657C26.765 38.0088 26.8031 38.2375 26.8412 38.3519C26.8794 38.4662 26.9937 38.5425 27.1081 38.6187C27.2225 38.695 27.375 38.7331 27.5656 38.7331C27.7943 38.7331 27.9468 38.695 28.0993 38.5806C28.2518 38.5044 28.3662 38.3519 28.4424 38.1994C28.5186 38.0469 28.5568 37.7419 28.5568 37.3226V35.7214C28.5568 35.5308 28.5568 35.4164 28.5186 35.3402C28.4805 35.2639 28.4424 35.2258 28.3662 35.1877C28.2899 35.1496 28.1755 35.1114 27.9849 35.1114V34.9971H29.3192V35.1114H29.243C29.1286 35.1114 29.0524 35.1496 28.9761 35.1877C28.8999 35.2258 28.8617 35.3021 28.8236 35.3783C28.7855 35.4545 28.7855 35.5689 28.7855 35.7214V37.2082C28.7855 37.6657 28.7474 38.0088 28.7093 38.1994C28.633 38.39 28.5186 38.5806 28.2518 38.7712C28.023 38.9237 27.7181 39.0381 27.2987 39.0381C26.9556 39.0381 26.6888 39 26.5363 38.8856C26.2694 38.7712 26.1169 38.6187 26.0025 38.4281C25.8882 38.2375 25.8501 37.9706 25.8501 37.6657V35.7595C25.8501 35.5308 25.8501 35.3783 25.8119 35.3402C25.7738 35.3021 25.7357 35.2258 25.6976 35.2258C25.6213 35.1877 25.507 35.1877 25.3545 35.1877V35.0733Z" fill="#2A3C7F"/>
<path d="M33.3604 34.9971V36.3314H33.2461C33.1698 35.9883 33.0173 35.7214 32.7886 35.5308C32.5599 35.3402 32.293 35.2639 32.0261 35.2639C31.7974 35.2639 31.5687 35.3402 31.3399 35.4927C31.1493 35.6452 30.9968 35.7976 30.8825 36.0264C30.7681 36.3314 30.6919 36.6363 30.6919 36.9795C30.6919 37.3226 30.73 37.6275 30.8062 37.9325C30.8825 38.1994 31.035 38.4281 31.2256 38.5806C31.4162 38.7331 31.6449 38.8093 31.9499 38.8093C32.1786 38.8093 32.4074 38.7712 32.6361 38.6568C32.8267 38.5425 33.0555 38.3519 33.2842 38.085V38.4281C33.0555 38.6568 32.8267 38.8093 32.598 38.9237C32.3693 39.0381 32.1024 39.0762 31.7593 39.0762C31.3399 39.0762 30.9587 39 30.6537 38.8093C30.3487 38.6568 30.0819 38.39 29.8913 38.085C29.7007 37.78 29.6244 37.4369 29.6244 37.0938C29.6244 36.7126 29.7388 36.3695 29.9294 36.0264C30.12 35.6833 30.3869 35.4164 30.73 35.2639C31.0731 35.0733 31.4162 34.9971 31.7974 34.9971C32.0643 34.9971 32.3693 35.0733 32.6742 35.1877C32.8648 35.2639 32.9792 35.3021 33.0173 35.3021C33.0936 35.3021 33.1317 35.2639 33.1698 35.2258C33.208 35.1877 33.2461 35.1114 33.2461 34.9971H33.3604Z" fill="#2A3C7F"/>
<path d="M37.4016 35.1881V36.2555H37.2873C37.211 36.0268 37.1729 35.8361 37.0967 35.7218C37.0204 35.6074 36.906 35.5312 36.7917 35.4549C36.7154 35.4168 36.6011 35.4168 36.4104 35.4168H36.1055V38.4285C36.1055 38.6191 36.1055 38.7335 36.1436 38.8097C36.1817 38.8478 36.2198 38.886 36.258 38.9241C36.3342 38.9622 36.4104 38.9622 36.5248 38.9622H36.6392V39.0766H34.6187V38.9622H34.733C34.8474 38.9622 34.9237 38.9241 34.9999 38.886C35.038 38.8478 35.0762 38.8097 35.1143 38.7335C35.1524 38.6953 35.1524 38.581 35.1524 38.3904V35.3787H34.8855C34.6187 35.3787 34.4281 35.4168 34.3137 35.5312C34.1612 35.6837 34.0468 35.9124 34.0087 36.1792H33.8943V35.1118L37.4016 35.1881Z" fill="#2A3C7F"/>
<path d="M39.7649 35.0351C40.3749 34.9969 40.8705 35.1876 41.2898 35.5688C41.671 35.95 41.8616 36.4456 41.8616 37.0174C41.8616 37.513 41.7092 37.9324 41.4423 38.3136C41.0611 38.8092 40.5273 39.0761 39.803 39.0761C39.1168 39.0761 38.545 38.8473 38.1637 38.3517C37.8588 37.9705 37.7063 37.5512 37.7063 37.0174C37.7063 36.4456 37.8969 35.95 38.3162 35.5688C38.7356 35.1876 39.1931 34.9969 39.7649 35.0351ZM39.803 35.2257C39.4599 35.2257 39.1931 35.4163 39.0024 35.7594C38.8499 36.0644 38.7737 36.4837 38.7737 37.0556C38.7737 37.7036 38.8881 38.1992 39.1168 38.5423C39.2693 38.7711 39.498 38.8855 39.803 38.8855C39.9936 38.8855 40.1461 38.8473 40.2986 38.733C40.4511 38.6186 40.6036 38.428 40.6798 38.1611C40.7561 37.8943 40.8323 37.5512 40.8323 37.0937C40.8323 36.5981 40.7942 36.1787 40.6798 35.95C40.5655 35.7213 40.4511 35.5307 40.2986 35.4163C40.1842 35.2638 39.9936 35.2257 39.803 35.2257Z" fill="#2A3C7F"/>
<path d="M43.6536 37.2842V38.3897C43.6536 38.6185 43.6536 38.7328 43.6917 38.771C43.7298 38.8091 43.7679 38.8853 43.8442 38.8853C43.9204 38.9234 44.0348 38.9234 44.2254 38.9234V39.0378H42.2049V38.9616C42.3955 38.9616 42.5099 38.9616 42.5861 38.9234C42.6624 38.8853 42.7005 38.8472 42.7386 38.8091C42.7767 38.771 42.7767 38.6185 42.7767 38.4279V35.9118C42.7767 35.683 42.7767 35.5687 42.7386 35.5305C42.7005 35.4924 42.6624 35.4162 42.5861 35.4162C42.5099 35.378 42.3955 35.378 42.2049 35.378V35.2637H43.9967C44.4541 35.2637 44.7972 35.3018 45.026 35.378C45.2547 35.4543 45.4072 35.5687 45.5597 35.7211C45.7122 35.9118 45.7503 36.1024 45.7503 36.3311C45.7503 36.6361 45.6359 36.8648 45.4453 37.0554C45.331 37.1698 45.1403 37.246 44.8735 37.3223L45.8265 38.6566C45.9409 38.8091 46.0172 38.9234 46.0934 38.9616C46.1697 39.0378 46.2459 39.0378 46.3603 39.0759V39.1903H45.1403L43.8823 37.3985H43.6536V37.2842ZM43.6536 35.378V37.0936H43.806C44.0729 37.0936 44.2635 37.0554 44.416 37.0173C44.5304 36.9792 44.6447 36.8648 44.721 36.7505C44.7972 36.6361 44.8354 36.4455 44.8354 36.2549C44.8354 35.9499 44.7591 35.7211 44.6447 35.6068C44.4923 35.4543 44.2635 35.378 43.9585 35.378H43.6536Z" fill="#2A3C7F"/>
<path d="M48.762 37.971H47.3896L47.2371 38.3522C47.199 38.4666 47.1608 38.581 47.1608 38.6572C47.1608 38.7716 47.199 38.8478 47.2752 38.886C47.3133 38.9241 47.4658 38.9241 47.6564 38.9622V39.0766H46.3603V38.9622C46.5128 38.9241 46.6271 38.886 46.7034 38.7716C46.7796 38.6953 46.894 38.4666 47.0465 38.1998L48.457 35.1118H48.4951L49.9057 38.3141C50.0582 38.6191 50.1344 38.8097 50.2488 38.886C50.325 38.9622 50.4013 38.9622 50.5156 39.0003V39.1147H48.6476V38.9622H48.7239C48.8764 38.9622 48.9907 38.9241 49.0288 38.886C49.067 38.8478 49.1051 38.8097 49.1051 38.7716C49.1051 38.7335 49.1051 38.6953 49.1051 38.6572C49.1051 38.6572 49.067 38.581 49.0288 38.4285L48.762 37.971ZM48.6857 37.7423L48.1139 36.408L47.5039 37.7423H48.6857Z" fill="#2A3C7F"/>
<path fill-rule="evenodd" clip-rule="evenodd" d="M41.9766 23.3312L43.1965 20.3958C43.7302 20.777 44.2258 21.0439 44.6451 21.2345C45.0645 21.4251 45.4838 21.5013 45.827 21.5013C46.0938 21.5013 46.2844 21.4632 46.4369 21.3488C46.5894 21.2345 46.6656 21.1201 46.6656 20.9676C46.6656 20.6626 46.2844 20.4339 45.5601 20.3195C45.3314 20.2814 45.1407 20.2433 44.9883 20.2052C44.1877 20.0145 43.6158 19.6714 43.1965 19.1758C42.7771 18.6803 42.5865 18.0703 42.5865 17.346C42.5865 16.2023 43.0059 15.2873 43.8064 14.6011C44.607 13.8768 45.6745 13.5337 47.0088 13.5337C47.6187 13.5337 48.1906 13.6099 48.8005 13.7624C49.3724 13.9149 49.9823 14.1437 50.5542 14.4868L49.4105 17.2316C49.0293 16.9647 48.6862 16.7741 48.3049 16.6216C47.9237 16.4691 47.5806 16.3929 47.2375 16.3929C46.9706 16.3929 46.78 16.431 46.6275 16.5073C46.475 16.5835 46.3988 16.736 46.3988 16.8885C46.3988 17.1935 46.9325 17.4603 47.9618 17.6891C48.1143 17.7272 48.2668 17.7653 48.343 17.7653C49.0674 17.9178 49.6392 18.2609 50.0586 18.7565C50.4779 19.2521 50.6685 19.8621 50.6685 20.5864C50.6685 21.7682 50.2492 22.6831 49.4105 23.4456C48.5718 24.1699 47.4662 24.5511 46.1319 24.5511C45.4457 24.5511 44.7595 24.4368 44.0733 24.2462C43.349 24.0174 42.6628 23.7124 41.9766 23.3312Z" fill="#1B1B1A"/>
<path fill-rule="evenodd" clip-rule="evenodd" d="M40.7947 16.8123C40.5279 16.1642 40.1466 15.5543 39.6129 15.0587C39.0792 14.525 38.4692 14.1437 37.783 13.8769C37.0968 13.61 36.3725 13.4575 35.5719 13.4575C34.7713 13.4575 34.047 13.61 33.3608 13.8769C32.6746 14.1437 32.0646 14.525 31.5309 15.0587C30.9972 15.5543 30.616 16.1642 30.3491 16.8123C30.0822 17.4985 29.9297 18.2229 29.9297 18.9853C29.9297 19.7478 30.0441 20.4721 30.3491 21.1583C30.616 21.8064 30.9972 22.4163 31.5309 22.9119C32.0646 23.4457 32.6746 23.8269 33.3608 24.0937C34.047 24.3606 34.7713 24.5131 35.5719 24.5131C36.3344 24.5131 37.0968 24.3606 37.783 24.0937C38.4692 23.8269 39.0792 23.4457 39.6129 22.9119C40.1466 22.3782 40.5279 21.8064 40.7947 21.1202C41.0616 20.4721 41.2141 19.7478 41.2141 18.9853C41.2141 18.1847 41.0616 17.4985 40.7947 16.8123ZM36.8681 20.434C36.525 20.7771 36.1056 20.9677 35.5719 20.9677C35.0382 20.9677 34.6188 20.7771 34.2757 20.434C33.9326 20.0527 33.7801 19.5953 33.7801 18.9853C33.7801 18.3753 33.9326 17.9179 34.2757 17.5366C34.6188 17.1554 35.0382 16.9648 35.5719 16.9648C36.1056 16.9648 36.525 17.1554 36.8681 17.4985C37.1731 17.8798 37.3637 18.3372 37.3637 18.9472C37.3637 19.5953 37.1731 20.0527 36.8681 20.434Z" fill="#1B1B1A"/>
<path fill-rule="evenodd" clip-rule="evenodd" d="M19.0648 24.5131V13.4575H22.7627V18.1466L25.2788 13.4575H29.7773L26.4606 18.9091L30.2347 24.5131H25.4313L22.7627 19.9003V24.5131H19.0648Z" fill="#1B1B1A"/>
<path fill-rule="evenodd" clip-rule="evenodd" d="M11.631 16.8123C11.3641 16.1642 10.9829 15.5543 10.4492 15.0587C9.91543 14.525 9.30547 14.1437 8.61926 13.8769C7.93305 13.61 7.20872 13.4575 6.40815 13.4575C5.60757 13.4575 4.88324 13.61 4.19703 13.8769C3.51082 14.1437 2.90086 14.525 2.36714 15.0587C1.83343 15.5543 1.4522 16.1642 1.18534 16.8123C0.918482 17.4985 0.765991 18.1847 0.765991 18.9853C0.765991 19.7478 0.918482 20.4721 1.18534 21.1583C1.4522 21.8064 1.83343 22.4163 2.36714 22.9119C2.90086 23.4457 3.51082 23.8269 4.19703 24.0937C4.88324 24.3606 5.60757 24.5131 6.40815 24.5131C7.1706 24.5131 7.93305 24.3606 8.61926 24.0937C9.30547 23.8269 9.91543 23.4457 10.4492 22.9119C10.9829 22.3782 11.3641 21.8064 11.6691 21.1202C11.9359 20.4721 12.0884 19.7478 12.0884 18.9853C12.0503 18.1847 11.8978 17.4985 11.631 16.8123ZM7.70432 20.434C7.36121 20.7771 6.94186 20.9677 6.40815 20.9677C5.87443 20.9677 5.45508 20.7771 5.11198 20.434C4.76887 20.0527 4.61638 19.5953 4.61638 18.9853C4.61638 18.3753 4.76887 17.9179 5.11198 17.5366C5.45508 17.1554 5.87443 16.9648 6.40815 16.9648C6.94186 16.9648 7.36121 17.1554 7.70432 17.4985C8.0093 17.8798 8.19991 18.3372 8.19991 18.9472C8.16179 19.5953 8.0093 20.0527 7.70432 20.434Z" fill="#1B1B1A"/>
<path fill-rule="evenodd" clip-rule="evenodd" d="M0.765991 7.28143L0.804114 10.0644L20.3229 2.43985L36.6775 10.0263H50.6686L27.9856 0H18.6074L0.765991 7.28143Z" fill="#2A3C7F"/>
<path d="M17.2738 13.4575H13.5759V24.5131H17.2738V13.4575Z" fill="#1B1B1A"/>
<path d="M48.7622 0C47.6947 0 46.856 0.876821 46.856 1.90613C46.856 2.97357 47.7328 3.81227 48.7622 3.81227C49.8296 3.81227 50.6683 2.93545 50.6683 1.90613C50.6683 0.876821 49.8296 0 48.7622 0ZM48.7622 3.6979C47.771 3.6979 46.9704 2.89732 46.9704 1.90613C46.9704 0.914944 47.771 0.114368 48.7622 0.114368C49.7533 0.114368 50.5539 0.914944 50.5539 1.90613C50.5539 2.89732 49.7533 3.6979 48.7622 3.6979Z" fill="#1F130E"/>
<path d="M47.9244 2.9737V0.876953H48.8013C49.03 0.876953 49.1825 0.915076 49.2969 0.953198C49.4112 0.991321 49.4875 1.06757 49.5256 1.14381C49.6018 1.25818 49.6018 1.33442 49.6018 1.48692C49.6018 1.63941 49.5637 1.7919 49.4493 1.86814C49.3731 1.98251 49.2206 2.02063 49.03 2.05876C49.1062 2.09688 49.1825 2.17312 49.2587 2.24937C49.335 2.32561 49.4112 2.43998 49.4875 2.59247L49.7543 3.01182H49.2587L48.9537 2.55435C48.8394 2.40186 48.7631 2.28749 48.725 2.24937C48.6869 2.21125 48.6488 2.17312 48.6106 2.17312C48.5725 2.17312 48.4963 2.135 48.3819 2.135H48.3057V3.01182L47.9244 2.9737ZM48.3438 1.75377H48.6488C48.8394 1.75377 48.9919 1.75377 49.03 1.71565C49.0681 1.71565 49.1062 1.67753 49.1444 1.63941C49.1825 1.60128 49.1825 1.56316 49.1825 1.48692C49.1825 1.41067 49.1444 1.37255 49.1444 1.33443C49.1062 1.2963 49.0681 1.25818 48.9919 1.25818C48.9538 1.25818 48.8394 1.25818 48.6869 1.25818H48.3438V1.75377Z" fill="#1F130E"/>
<path opacity="0.5" d="M20.3232 2.43968L14.6048 4.65079L12.6224 2.43968L16.9303 0.686035L20.3232 2.43968Z" fill="url(#paint0_linear_188_86)"/>
<path d="M50.7448 27.9058H0.689697V31.6037H50.7448V27.9058Z" fill="#1B1B1A"/>
<defs>
<linearGradient id="paint0_linear_188_86" x1="15.4723" y1="3.60021" x2="17.0874" y2="1.70921" gradientUnits="userSpaceOnUse">
<stop stop-color="#1D1D1B" stop-opacity="0"/>
<stop offset="0.8744" stop-color="#1D1D1B"/>
</linearGradient>
</defs>
</svg>
