<svg width="76" height="44" viewBox="0 0 76 44" fill="none" xmlns="http://www.w3.org/2000/svg">
<circle cx="1.33668" cy="1.33668" r="1.33668" fill="#4453A6"/>
<circle cx="1.33668" cy="11.6482" r="1.33668" fill="#4453A6"/>
<circle cx="1.33668" cy="21.9598" r="1.33668" fill="#4453A6"/>
<circle cx="1.33668" cy="32.2713" r="1.33668" fill="#4453A6"/>
<circle cx="1.33668" cy="42.5829" r="1.33668" fill="#4453A6"/>
<circle cx="13.5574" cy="1.33668" r="1.33668" fill="#4453A6"/>
<circle cx="13.5574" cy="11.6482" r="1.33668" fill="#4453A6"/>
<circle cx="13.5574" cy="21.9598" r="1.33668" fill="#4453A6"/>
<circle cx="13.5574" cy="32.2713" r="1.33668" fill="#4453A6"/>
<circle cx="13.5574" cy="42.5829" r="1.33668" fill="#4453A6"/>
<circle cx="25.7781" cy="1.33668" r="1.33668" fill="#4453A6"/>
<circle cx="25.7781" cy="11.6482" r="1.33668" fill="#4453A6"/>
<circle cx="25.7781" cy="21.9598" r="1.33668" fill="#4453A6"/>
<circle cx="25.7781" cy="32.2713" r="1.33668" fill="#4453A6"/>
<circle cx="25.7781" cy="42.5829" r="1.33668" fill="#4453A6"/>
<circle cx="37.9988" cy="1.33668" r="1.33668" fill="#4453A6"/>
<circle cx="37.9988" cy="11.6482" r="1.33668" fill="#4453A6"/>
<circle cx="37.9988" cy="21.9598" r="1.33668" fill="#4453A6"/>
<circle cx="37.9988" cy="32.2713" r="1.33668" fill="#4453A6"/>
<circle cx="37.9988" cy="42.5829" r="1.33668" fill="#4453A6"/>
<circle cx="50.2215" cy="1.33668" r="1.33668" fill="#4453A6"/>
<circle cx="50.2215" cy="11.6482" r="1.33668" fill="#4453A6"/>
<circle cx="50.2215" cy="21.9598" r="1.33668" fill="#4453A6"/>
<circle cx="50.2215" cy="32.2713" r="1.33668" fill="#4453A6"/>
<circle cx="50.2215" cy="42.5829" r="1.33668" fill="#4453A6"/>
<circle cx="62.4422" cy="1.33668" r="1.33668" fill="#4453A6"/>
<circle cx="62.4422" cy="11.6482" r="1.33668" fill="#4453A6"/>
<circle cx="62.4422" cy="21.9598" r="1.33668" fill="#4453A6"/>
<circle cx="62.4422" cy="32.2713" r="1.33668" fill="#4453A6"/>
<circle cx="62.4422" cy="42.5829" r="1.33668" fill="#4453A6"/>
<circle cx="74.6629" cy="1.33668" r="1.33668" fill="#4453A6"/>
<circle cx="74.6629" cy="11.6482" r="1.33668" fill="#4453A6"/>
<circle cx="74.6629" cy="21.9598" r="1.33668" fill="#4453A6"/>
<circle cx="74.6629" cy="32.2713" r="1.33668" fill="#4453A6"/>
<circle cx="74.6629" cy="42.5829" r="1.33668" fill="#4453A6"/>
</svg>
