<svg width="448" height="82" viewBox="0 0 448 82" fill="none" xmlns="http://www.w3.org/2000/svg">
<path fill-rule="evenodd" clip-rule="evenodd" d="M431.738 44.3896L431.788 50.9996L436.948 48.1896L437.048 48.0896L437.148 47.9896L437.198 47.8896V47.7896L437.148 41.2296V41.3296L437.098 41.4296L436.998 41.4796L436.898 41.5796L431.738 44.3896ZM417.408 58.2696L417.658 58.6196L417.908 58.9696L418.108 59.3196L418.258 59.6696L418.358 60.0196L418.458 60.3696V60.7196L418.408 54.1096V53.7596L418.308 53.4096L418.208 53.0596L418.058 52.7096L417.858 52.3596L417.608 52.0096L417.358 51.6596L417.058 51.3596L416.708 51.0596L416.358 50.7096L415.958 50.4096L415.508 50.1596L415.058 49.8596L414.608 49.6096L414.108 49.3596L413.558 49.1096L413.008 48.9096L412.458 48.6596L411.858 48.4596L411.208 48.3096L410.608 48.1096L409.958 47.9596L409.258 47.8096L408.608 47.7096L407.908 47.5596L407.208 47.4596L406.458 47.4096L405.758 47.3096L405.008 47.2596H404.258L403.508 47.2096H402.758L402.008 47.2596H401.208L400.458 47.3096L399.708 47.4096L398.908 47.4596L398.158 47.6096L397.458 47.7096L396.708 47.8596L396.008 48.0096L395.358 48.1596L394.708 48.3596L394.108 48.5596L393.508 48.7596L392.908 48.9596L392.408 49.2096L391.858 49.4596L391.358 49.7096L390.908 49.9596L390.458 50.2596L390.058 50.5096L389.708 50.8096L389.358 51.1096L389.058 51.4096L388.758 51.7596L388.508 52.0596L388.308 52.4096L388.108 52.7096L387.958 53.0596L387.858 53.4096L387.758 53.7096L387.708 54.0596V54.4096L387.758 61.0196V60.6696L387.808 60.3196L387.908 59.9696L388.008 59.6196L388.158 59.3196L388.308 58.9696L388.558 58.6196L388.808 58.3196L389.058 58.0196L389.408 57.7196L389.758 57.4196L390.108 57.1196L390.508 56.8196L390.958 56.5696L391.408 56.2696L391.908 56.0196L392.408 55.7696L392.958 55.5696L393.558 55.3196L394.158 55.1196L394.758 54.9196L395.408 54.7696L396.058 54.5696L396.758 54.4196L397.458 54.2696L398.208 54.1696L398.958 54.0696L399.758 53.9696L400.508 53.9196L401.258 53.8696L402.058 53.8196H404.308L405.058 53.8696L405.808 53.9196L406.508 53.9696L407.258 54.0696L407.958 54.1696L408.658 54.2696L409.308 54.4196L410.008 54.5696L410.658 54.7196L411.258 54.8696L411.908 55.0696L412.458 55.2696L413.058 55.4696L413.608 55.7196L414.158 55.9196L414.658 56.1696L415.108 56.4696L415.558 56.7196L416.008 57.0196L416.408 57.3196L416.758 57.6196L417.108 57.9196L417.408 58.2696ZM446.218 57.6696L446.418 57.6196L446.568 57.5696L446.718 57.4696L446.868 57.4196L446.918 57.3196L446.968 57.2196L446.918 50.6096L446.868 50.7096L446.818 50.8096L446.668 50.9096L446.518 50.9596L446.368 51.0596H446.168L438.648 52.3596L438.698 58.9196H438.748V61.0196L435.938 60.7696L435.738 60.9696L435.538 61.1696L435.338 61.3696L435.138 61.5696L434.938 61.7696L434.738 61.9696L434.488 62.1696L434.288 62.3196L434.038 62.5196L433.788 62.7196L433.538 62.9196L433.288 63.0696L433.038 63.2696L432.788 63.4696L432.538 63.6196L432.238 63.8196L432.288 69.7796H432.238L432.088 69.8796L431.888 69.9296H431.688L431.438 69.9796L431.238 69.9296H431.038L430.838 69.8796L430.638 69.8296L424.478 67.4796L424.078 67.6296L423.728 67.7296L423.328 67.8796L422.928 67.9796L422.528 68.0796L422.128 68.2296L421.728 68.3296L421.328 68.4296L420.928 68.5296L420.528 68.6796L420.078 68.7796L419.678 68.8796L419.278 68.9796L418.828 69.0796L418.428 69.1796L417.978 69.2296L418.028 73.5896L411.468 74.4396H410.818L410.618 74.3896L410.418 74.3396L410.268 74.2896L410.118 74.1896L410.018 74.0896L407.258 70.6296H406.808L406.308 70.6796H405.858L405.358 70.7296H400.648L400.148 70.6796H399.698L397.138 74.1396L397.038 74.2396L396.938 74.3396L396.788 74.3896L396.588 74.4396L396.388 74.4896L396.188 74.5396H395.938L395.738 74.4896L388.928 73.7396V69.3796L388.478 69.3296L388.078 69.2296L387.628 69.1296L387.178 69.0296L386.778 68.9296L386.378 68.8296L385.928 68.7296L385.528 68.6296L385.128 68.5296L384.728 68.4296L384.328 68.2796L383.928 68.1796L383.528 68.0796L383.128 67.9296L382.728 67.8296L382.328 67.6796L376.318 70.1396L376.168 70.1896L375.968 70.2396L375.718 70.2896H375.518L375.318 70.2396H375.118L374.918 70.1896L374.718 70.1396L374.418 69.9896L374.368 64.1296L374.118 63.9796L373.818 63.7796L373.568 63.5796L373.268 63.4296L373.018 63.2296L372.768 63.0796L372.518 62.8796L372.268 62.6796L372.068 62.4796L371.818 62.3296L371.568 62.1296L371.368 61.9296L371.168 61.7296L370.968 61.5296L370.718 61.3296L370.518 61.1796L367.558 61.4296L367.508 56.2196L367.458 56.0196V55.9196L367.408 52.7596L359.838 51.5596L359.638 51.5096L359.438 51.4596L359.288 51.3596L359.188 51.3096L359.088 51.2096L359.038 51.1096V51.0096L359.088 57.5696V57.6696L359.138 57.7696L359.238 57.8696L359.338 57.9696L359.488 58.0196L359.688 58.1196H359.888L367.308 59.3196V61.2696L367.358 61.4196L362.648 61.8696H362.248L361.998 61.8196L361.848 61.7696L361.648 61.7196L361.498 61.6696L361.398 61.5696L361.298 61.4696L359.248 58.1096V58.0096L359.298 64.6196V64.7196L361.348 68.0296L361.448 68.1296L361.548 68.2296L361.698 68.3296L361.848 68.3796L362.048 68.4296H362.698L368.958 67.8796L369.008 73.8896L369.058 73.9896L369.108 74.0896L369.208 74.1896L369.358 74.2896L374.768 76.6996L374.968 76.7496L375.118 76.7996L375.368 76.8496H375.768L375.968 76.7996H376.168L376.368 76.6996L382.378 74.2896L382.778 74.3896L383.178 74.5396L383.578 74.6396L383.928 74.7396L384.378 74.8896L384.778 74.9896L385.178 75.0896L385.578 75.1896L385.978 75.3396L386.428 75.4396L386.828 75.5396L387.228 75.6396L387.578 75.6896V79.6996L387.628 79.7996L387.678 79.8996L387.778 79.9996L387.928 80.0996L388.078 80.1496L388.278 80.1996L388.478 80.2496L395.798 81.0996H396.448L396.648 81.0496L396.798 80.9996L396.998 80.8996L397.098 80.8496L397.198 80.7496L399.758 77.2396L400.208 77.2896H401.658L402.108 77.3396H404.008L404.458 77.2896H405.908L406.358 77.2396H406.858L407.308 77.1896L410.068 80.6496L410.168 80.7496L410.318 80.8496L410.468 80.8996L410.668 80.9496L410.868 80.9996H411.518L418.788 80.0496H418.988L419.188 79.9996L419.338 79.8996L419.438 79.8496L419.538 79.7496L419.638 79.6496V79.5496L419.588 75.4896L419.738 75.4396L420.138 75.3396L420.588 75.2396L420.988 75.1396L421.388 75.0396L421.788 74.8896L422.188 74.7896L422.588 74.6896L422.988 74.5396L423.388 74.4396L423.788 74.3396L424.138 74.1896L424.538 74.0396L430.698 76.3896L430.898 76.4896H431.098L431.298 76.5396H431.748L431.948 76.4896L432.098 76.4396L432.298 76.3896L437.558 73.8796L437.708 73.8296L437.808 73.7296L437.858 73.6296L437.908 73.5296L437.858 67.5196L443.918 67.9696H444.568L444.768 67.9196L444.918 67.8196L445.068 67.7696L445.168 67.6696L445.268 67.5696L447.118 64.2096L447.168 64.1096L447.118 57.5496L447.068 57.6496L445.218 61.0096L445.118 61.1096L445.018 61.1596L444.868 61.2596L444.718 61.3096L444.518 61.3596L444.318 61.4096H443.868L438.908 61.0096V58.8596L446.228 57.6596L446.218 57.6696ZM437.198 67.4896L434.638 68.6896L434.788 68.5396L434.988 68.3396L435.188 68.1896L435.388 67.9896L435.588 67.7896L435.788 67.5896L435.988 67.3896L437.188 67.4896H437.198ZM371.658 68.7896L369.558 67.8396L370.508 67.7396L370.708 67.9396L370.908 68.1396L371.158 68.3396L371.358 68.5396L371.558 68.6896L371.658 68.7896ZM368.598 48.5496L373.858 51.3596L373.808 44.7496L368.548 41.9896L368.398 41.8896L368.298 41.7896L368.248 41.6896V41.5896L368.298 48.1996V48.2996L368.348 48.3996L368.448 48.4496L368.598 48.5496ZM386.588 42.2896L388.138 45.8996L388.088 39.2896L386.538 35.6796V35.5796L386.588 42.1896V42.2896ZM418.608 42.0896V41.9896L418.558 35.4296V35.5296L417.158 39.1396L417.208 45.7496L418.608 42.0896Z" fill="#082742"/>
<path fill-rule="evenodd" clip-rule="evenodd" d="M435.648 47.3996C434.598 46.3496 433.298 45.3496 431.738 44.3896L436.898 41.5796C437.298 41.3796 437.248 41.0296 436.798 40.8296L431.438 38.4296C430.988 38.2296 430.288 38.2296 429.838 38.4296L423.778 40.8296C421.728 40.1796 419.518 39.5796 417.168 39.1296L418.568 35.5196C418.668 35.2196 418.318 34.9696 417.718 34.8696L410.398 34.0096C409.798 33.9596 409.198 34.1096 408.998 34.3596L406.388 37.8696C403.878 37.7696 401.328 37.7696 398.818 37.9196L396.058 34.4596C395.858 34.1596 395.258 34.0096 394.658 34.1096L387.388 35.0596C386.788 35.1096 386.438 35.4096 386.538 35.6596L388.088 39.2696C385.788 39.7696 383.628 40.3696 381.578 41.0696L375.468 38.7096C374.968 38.5096 374.268 38.5096 373.868 38.7096L368.608 41.2196C368.158 41.4196 368.158 41.7196 368.558 41.9696L373.818 44.7296C372.368 45.6796 371.108 46.6796 370.108 47.7896L362.238 47.1396C361.638 47.0896 361.038 47.2396 360.888 47.5396L359.038 50.8996C358.888 51.1496 359.188 51.4496 359.788 51.5496L367.358 52.7496C367.158 53.8996 367.158 55.0496 367.458 56.2096L359.938 57.4596C359.388 57.5596 359.038 57.8596 359.188 58.1096L361.238 61.4696C361.388 61.7696 361.988 61.9196 362.588 61.8696L370.458 61.1696C371.508 62.2196 372.808 63.2196 374.318 64.1296L369.208 66.9896C368.808 67.1896 368.858 67.4896 369.258 67.6896L374.668 70.1496C375.118 70.3496 375.818 70.3496 376.268 70.1496L382.278 67.6896C384.328 68.3896 386.538 68.9396 388.888 69.3896L387.538 73.0496C387.438 73.3496 387.788 73.5996 388.388 73.6496L395.708 74.4996C396.308 74.5996 396.908 74.4496 397.108 74.1496L399.668 70.6896C402.178 70.7896 404.728 70.7896 407.238 70.6396L409.998 74.0996C410.248 74.3496 410.848 74.4996 411.448 74.4496L418.718 73.4996C419.318 73.3996 419.668 73.1496 419.568 72.8496L417.968 69.2396C420.268 68.7896 422.478 68.1896 424.478 67.4896L430.638 69.8396C431.088 70.0396 431.788 69.9896 432.238 69.7896L437.498 67.3296C437.948 67.1296 437.948 66.7796 437.548 66.5796L432.238 63.8196C433.688 62.8696 434.948 61.8696 435.948 60.7596L443.868 61.4096C444.468 61.4596 445.068 61.2596 445.218 61.0096L447.068 57.6496C447.218 57.3496 446.868 57.0996 446.318 56.9996L438.698 55.7996C438.948 54.6496 438.948 53.4996 438.648 52.3396L446.168 51.0396C446.718 50.9396 447.068 50.6896 446.868 50.3896L444.868 47.0796C444.668 46.7796 444.068 46.6296 443.468 46.6796L435.648 47.3796V47.3996ZM417.858 52.3596C420.158 56.1196 415.398 60.0296 407.188 61.0796C399.018 62.1296 390.548 59.9796 388.248 56.2196C385.948 52.4096 390.698 48.5496 398.868 47.4496C407.088 46.3996 415.558 48.5996 417.858 52.3596Z" fill="#536F90"/>
<path fill-rule="evenodd" clip-rule="evenodd" d="M406.639 38.0296C403.929 37.8796 401.229 37.9296 398.619 38.0796L395.809 34.5196C395.609 34.3196 395.159 34.2196 394.709 34.2696L387.489 35.1696C387.039 35.2696 386.739 35.4696 386.839 35.6696L388.439 39.3796C385.979 39.8796 383.729 40.5296 381.579 41.2796L375.269 38.8196C374.919 38.6696 374.369 38.6696 374.069 38.8196L368.809 41.3296C368.509 41.4796 368.459 41.7296 368.759 41.8796L374.219 44.7396C372.669 45.7396 371.359 46.7896 370.309 47.9496L362.189 47.2996C361.739 47.2496 361.289 47.3996 361.189 47.5996L359.339 50.9596C359.189 51.1596 359.439 51.3596 359.889 51.4096L367.709 52.6596C367.409 53.9096 367.459 55.1196 367.809 56.3196L360.039 57.6196C359.639 57.6696 359.389 57.9196 359.489 58.1196L361.539 61.4296C361.689 61.6296 362.089 61.7796 362.539 61.7296L370.659 60.9796C371.759 62.1296 373.109 63.1796 374.769 64.1396L369.459 67.0496C369.159 67.2496 369.159 67.4496 369.509 67.5996L374.869 70.0496C375.219 70.1996 375.719 70.1996 376.069 70.0496L382.279 67.5396C384.429 68.2396 386.739 68.8396 389.239 69.3396L387.839 73.0496C387.739 73.2996 388.039 73.4996 388.489 73.5496L395.759 74.3996C396.209 74.4496 396.659 74.2996 396.809 74.1496L399.519 70.5396C402.179 70.6396 404.829 70.6396 407.439 70.4896L410.299 74.0496C410.449 74.2496 410.949 74.3496 411.349 74.2996L418.619 73.3496C419.069 73.2996 419.319 73.0996 419.269 72.8996L417.619 69.1896C420.069 68.6896 422.379 68.0396 424.479 67.2896L430.839 69.7496C431.189 69.8996 431.689 69.8496 432.039 69.6996L437.299 67.2396C437.599 67.0896 437.599 66.8396 437.299 66.6896L431.889 63.8296C433.389 62.8296 434.749 61.7796 435.799 60.6196L443.919 61.2696C444.369 61.3196 444.819 61.1696 444.919 60.9696L446.769 57.6096C446.869 57.4096 446.619 57.2096 446.219 57.1096L438.399 55.9096C438.649 54.7096 438.649 53.4496 438.299 52.2496L446.069 50.9496C446.469 50.8496 446.719 50.6496 446.569 50.4496L444.569 47.0896C444.419 46.8896 443.969 46.7896 443.519 46.8396L435.449 47.5896C434.349 46.4396 432.989 45.3896 431.389 44.4296L436.649 41.4696C436.949 41.3196 436.949 41.0696 436.599 40.9196L431.189 38.5196C430.889 38.3696 430.339 38.3696 430.039 38.5196L423.829 41.0296C421.729 40.3296 419.369 39.7296 416.869 39.2296L418.269 35.4696C418.369 35.2696 418.069 35.0696 417.619 35.0196L410.299 34.1696C409.899 34.1196 409.399 34.2196 409.299 34.4196L406.639 38.0296ZM406.939 47.2996C398.519 46.2996 389.999 48.6496 387.849 52.5096C385.699 56.3696 390.759 60.2796 399.169 61.2796C407.589 62.2796 416.109 59.9296 418.259 56.0696C420.409 52.2096 415.299 48.2996 406.939 47.2996Z" fill="#0D3E69"/>
<path fill-rule="evenodd" clip-rule="evenodd" d="M427.179 52.0596C425.379 48.9496 421.119 46.3496 415.249 44.7896C409.389 43.2396 402.569 42.8396 396.109 43.6896C389.649 44.5396 384.229 46.5996 380.929 49.3996C377.669 52.2096 376.819 55.4596 378.679 58.5696C380.479 61.6796 384.739 64.2796 390.609 65.8396C396.419 67.3896 403.289 67.7896 409.749 66.9396C416.209 66.0896 421.629 64.0296 424.879 61.2296C428.189 58.4196 428.989 55.1696 427.179 52.0596ZM412.249 47.3496C416.659 48.5496 419.869 50.5096 421.219 52.8596C422.569 55.1596 421.969 57.6696 419.519 59.7696C417.009 61.8696 412.959 63.4296 408.049 64.0796C403.189 64.7296 398.029 64.4296 393.619 63.2796C389.209 62.0796 385.999 60.1196 384.599 57.7696C383.249 55.4696 383.849 52.9596 386.349 50.8596C388.799 48.7596 392.909 47.1996 397.769 46.5496C402.629 45.8996 407.789 46.1996 412.249 47.3496Z" fill="#082742"/>
<path d="M409.249 42.6896C402.539 41.9396 395.819 42.4396 390.309 43.9396C384.799 45.4396 380.589 47.8996 378.889 50.9996C377.189 54.0596 378.339 57.1596 381.599 59.6696C384.859 62.2296 390.219 64.1796 396.879 64.9296C403.589 65.7296 410.309 65.1796 415.819 63.6796C421.279 62.1796 425.539 59.7196 427.239 56.6696C428.939 53.6096 427.789 50.5096 424.529 47.9496C421.269 45.4396 415.909 43.4896 409.249 42.6896ZM393.119 46.0996C397.379 44.9496 402.639 44.4996 407.899 45.1496C413.109 45.7496 417.319 47.2496 419.829 49.2596C422.389 51.2096 423.289 53.6696 421.979 56.0696C420.629 58.4196 417.319 60.3796 413.009 61.5296C408.749 62.7296 403.439 63.1296 398.229 62.5296C393.019 61.9296 388.809 60.3796 386.249 58.4196C383.739 56.4196 382.789 54.0096 384.149 51.6096C385.499 49.1996 388.809 47.2996 393.119 46.0996Z" fill="#11548F"/>
<path fill-rule="evenodd" clip-rule="evenodd" d="M52.5077 7.49998L52.5438 12.2716L56.2686 10.2431L56.3408 10.1709L56.413 10.0987L56.4491 10.0265V9.95436L56.413 5.21886V5.29105L56.3769 5.36323L56.3047 5.39933L56.2325 5.47151L52.5077 7.49998ZM42.1632 17.5196L42.3437 17.7723L42.5241 18.0249L42.6685 18.2776L42.7768 18.5302L42.849 18.7829L42.9212 19.0355V19.2882L42.8851 14.5166V14.264L42.8129 14.0113L42.7407 13.7586L42.6324 13.506L42.488 13.2533L42.3076 13.0007L42.1271 12.748L41.9105 12.5315L41.6579 12.3149L41.4052 12.0622L41.1165 11.8457L40.7916 11.6652L40.4668 11.4486L40.1419 11.2682L39.781 11.0877L39.384 10.9072L38.9869 10.7629L38.5899 10.5824L38.1568 10.438L37.6876 10.3297L37.2544 10.1854L36.7852 10.0771L36.2799 9.96879L35.8107 9.89661L35.3054 9.78833L34.8001 9.71614L34.2587 9.68005L33.7533 9.60786L33.2119 9.57176H32.6705L32.1291 9.53567H31.5877L31.0463 9.57176H30.4688L29.9274 9.60786L29.386 9.68005L28.8085 9.71614L28.2671 9.82442L27.7618 9.89661L27.2204 10.0049L26.7151 10.1132L26.2458 10.2215L25.7766 10.3658L25.3435 10.5102L24.9104 10.6546L24.4772 10.799L24.1163 10.9794L23.7193 11.1599L23.3583 11.3404L23.0335 11.5208L22.7087 11.7374L22.4199 11.9179L22.1672 12.1344L21.9146 12.351L21.698 12.5675L21.4815 12.8202L21.301 13.0368L21.1566 13.2894L21.0123 13.506L20.904 13.7586L20.8318 14.0113L20.7596 14.2279L20.7235 14.4805V14.7332L20.7596 19.5048V19.2521L20.7957 18.9995L20.8679 18.7468L20.9401 18.4941L21.0483 18.2776L21.1566 18.0249L21.3371 17.7723L21.5176 17.5557L21.698 17.3391L21.9507 17.1226L22.2033 16.906L22.456 16.6895L22.7447 16.4729L23.0696 16.2924L23.3944 16.0759L23.7554 15.8954L24.1163 15.7149L24.5133 15.5705L24.9465 15.3901L25.3796 15.2457L25.8127 15.1013L26.2819 14.993L26.7512 14.8487L27.2565 14.7404L27.7618 14.6321L28.3032 14.5599L28.8446 14.4877L29.4221 14.4155L29.9635 14.3795L30.5049 14.3434L31.0824 14.3073H32.7066L33.248 14.3434L33.7894 14.3795L34.2948 14.4155L34.8362 14.4877L35.3415 14.5599L35.8468 14.6321L36.316 14.7404L36.8213 14.8487L37.2905 14.957L37.7237 15.0652L38.1929 15.2096L38.5899 15.354L39.023 15.4984L39.4201 15.6788L39.8171 15.8232L40.178 16.0037L40.5029 16.2202L40.8277 16.4007L41.1526 16.6173L41.4413 16.8338L41.694 17.0504L41.9466 17.267L42.1632 17.5196ZM62.9604 17.0865L63.1048 17.0504L63.2131 17.0143L63.3213 16.9421L63.4296 16.906L63.4657 16.8338L63.5018 16.7616L63.4657 11.99L63.4296 12.0622L63.3935 12.1344L63.2853 12.2066L63.177 12.2427L63.0687 12.3149H62.9243L57.4958 13.2533L57.5319 17.9888H57.568V19.5048L55.5395 19.3243L55.3952 19.4687L55.2508 19.613L55.1064 19.7574L54.962 19.9018L54.8177 20.0462L54.6733 20.1905L54.4928 20.3349L54.3484 20.4432L54.168 20.5876L53.9875 20.732L53.807 20.8763L53.6266 20.9846L53.4461 21.129L53.2656 21.2734L53.0852 21.3816L52.8686 21.526L52.9047 25.8284H52.8686L52.7603 25.9006L52.6159 25.9367H52.4716L52.2911 25.9728L52.1467 25.9367H52.0023L51.858 25.9006L51.7136 25.8645L47.2668 24.1681L46.9781 24.2764L46.7254 24.3485L46.4367 24.4568L46.1479 24.529L45.8592 24.6012L45.5704 24.7095L45.2817 24.7817L44.9929 24.8539L44.7042 24.926L44.4154 25.0343L44.0906 25.1065L43.8018 25.1787L43.5131 25.2509L43.1882 25.3231L42.8995 25.3953L42.5747 25.4314L42.6107 28.5787L37.8753 29.1923H37.406L37.2617 29.1562L37.1173 29.1201L37.009 29.084L36.9007 29.0119L36.8285 28.9397L34.8362 26.442H34.5113L34.1504 26.4781H33.8255L33.4646 26.5142H30.0646L29.7036 26.4781H29.3788L27.5308 28.9758L27.4586 29.048L27.3864 29.1201L27.2781 29.1562L27.1337 29.1923L26.9894 29.2284L26.845 29.2645H26.6645L26.5202 29.2284L21.6042 28.687V25.5396L21.2793 25.5035L20.9906 25.4314L20.6658 25.3592L20.3409 25.287L20.0522 25.2148L19.7634 25.1426L19.4386 25.0704L19.1498 24.9982L18.8611 24.926L18.5723 24.8539L18.2836 24.7456L17.9948 24.6734L17.7061 24.6012L17.4173 24.4929L17.1286 24.4207L16.8398 24.3125L12.5013 26.0883L12.3931 26.1244L12.2487 26.1605L12.0682 26.1965H11.9238L11.7795 26.1605H11.6351L11.4907 26.1244L11.3463 26.0883L11.1298 25.98L11.0937 21.7498L10.9132 21.6415L10.6967 21.4971L10.5162 21.3528L10.2996 21.2445L10.1192 21.1001L9.93869 20.9918L9.75822 20.8475L9.57775 20.7031L9.43338 20.5587L9.25291 20.4504L9.07244 20.306L8.92806 20.1617L8.78369 20.0173L8.63931 19.8729L8.45884 19.7285L8.31447 19.6203L6.17772 19.8007L6.14162 16.0398L6.10553 15.8954V15.8232L6.06944 13.5421L0.604844 12.6758L0.460469 12.6397L0.316094 12.6036L0.207813 12.5315L0.135625 12.4954L0.0634376 12.4232L0.0273438 12.351V12.2788L0.0634376 17.0143V17.0865L0.0995312 17.1587L0.171719 17.2309L0.243906 17.303L0.352188 17.3391L0.496563 17.4113H0.640937L5.99725 18.2776V19.6852L6.03334 19.7935L2.63331 20.1184H2.34456L2.16409 20.0823L2.05581 20.0462L1.91144 20.0101L1.80316 19.974L1.73097 19.9018L1.65878 19.8296L0.178938 17.4041V17.3319L0.215031 22.1035V22.1757L1.69488 24.5651L1.76706 24.6373L1.83925 24.7095L1.94753 24.7817L2.05581 24.8178L2.20019 24.8539H2.66941L7.18834 24.4568L7.22444 28.7953L7.26053 28.8675L7.29663 28.9397L7.36881 29.0119L7.47709 29.084L11.3824 30.8238L11.5268 30.8599L11.6351 30.896L11.8156 30.932H12.1043L12.2487 30.896H12.3931L12.5374 30.8238L16.8759 29.084L17.1647 29.1562L17.4534 29.2645L17.7422 29.3367L17.9948 29.4089L18.3197 29.5172L18.6084 29.5894L18.8972 29.6615L19.1859 29.7337L19.4747 29.842L19.7995 29.9142L20.0882 29.9864L20.377 30.0586L20.6297 30.0947V32.9894L20.6658 33.0616L20.7018 33.1338L20.774 33.206L20.8823 33.2781L20.9906 33.3142L21.135 33.3503L21.2793 33.3864L26.5635 34H27.0327L27.1771 33.9639L27.2853 33.9278L27.4297 33.8556L27.5019 33.8195L27.5741 33.7474L29.4221 31.2136L29.7469 31.2497H30.7937L31.1185 31.2858H32.4901L32.8149 31.2497H33.8616L34.1865 31.2136H34.5474L34.8722 31.1775L36.8646 33.6752L36.9368 33.7474L37.0451 33.8195L37.1534 33.8556L37.2977 33.8917L37.4421 33.9278H37.9113L43.1594 33.242H43.3038L43.4481 33.206L43.5564 33.1338L43.6286 33.0977L43.7008 33.0255L43.773 32.9533V32.8811L43.7369 29.9503L43.8452 29.9142L44.1339 29.842L44.4588 29.7698L44.7475 29.6976L45.0363 29.6255L45.325 29.5172L45.6138 29.445L45.9025 29.3728L46.1912 29.2645L46.48 29.1923L46.7687 29.1201L47.0214 29.0119L47.3102 28.9036L51.7569 30.6L51.9013 30.6722H52.0457L52.19 30.7083H52.5149L52.6593 30.6722L52.7675 30.6361L52.9119 30.6L56.709 28.7881L56.8173 28.752L56.8894 28.6798L56.9255 28.6076L56.9616 28.5354L56.9255 24.197L61.3001 24.5218H61.7693L61.9137 24.4857L62.022 24.4135L62.1302 24.3774L62.2024 24.3052L62.2746 24.233L63.6101 21.8075L63.6462 21.7354L63.6101 16.9999L63.574 17.072L62.2385 19.4975L62.1663 19.5697L62.0942 19.6058L61.9859 19.678L61.8776 19.7141L61.7332 19.7502L61.5888 19.7863H61.264L57.6835 19.4975V17.9455L62.9676 17.0793L62.9604 17.0865ZM56.4491 24.1753L54.6011 25.0415L54.7094 24.9333L54.8538 24.7889L54.9981 24.6806L55.1425 24.5362L55.2869 24.3919L55.4313 24.2475L55.5756 24.1031L56.4419 24.1753H56.4491ZM9.13741 25.1137L7.62147 24.428L8.30725 24.3558L8.45162 24.5001L8.596 24.6445L8.77647 24.7889L8.92084 24.9333L9.06522 25.0415L9.13741 25.1137ZM6.92847 10.503L10.7255 12.5315L10.6894 7.75986L6.89238 5.76748L6.78409 5.69529L6.71191 5.62311L6.67581 5.55092V5.47873L6.71191 10.2503V10.3225L6.748 10.3947L6.82019 10.4308L6.92847 10.503ZM19.915 5.98404L21.0339 8.59001L20.9978 3.81842L19.8789 1.21245V1.14026L19.915 5.91186V5.98404ZM43.0294 5.83967V5.76748L42.9933 1.03198V1.10417L41.9827 3.71014L42.0188 8.48173L43.0294 5.83967Z" fill="#082742"/>
<path fill-rule="evenodd" clip-rule="evenodd" d="M55.3304 9.67282C54.5725 8.91485 53.634 8.19298 52.5079 7.49998L56.2328 5.47151C56.5215 5.32713 56.4854 5.07448 56.1606 4.9301L52.2913 3.1976C51.9665 3.05323 51.4612 3.05323 51.1363 3.1976L46.7618 4.9301C45.2819 4.46088 43.6866 4.02776 41.9902 3.70292L43.0008 1.09695C43.073 0.880384 42.8203 0.699916 42.3872 0.627728L37.1031 0.00691562C36.67 -0.0291781 36.2368 0.0791031 36.0925 0.259572L34.2084 2.79335C32.3965 2.72117 30.5557 2.72117 28.7438 2.82945L26.7514 0.331759C26.607 0.115197 26.1739 0.00691562 25.7408 0.0791031L20.4928 0.764884C20.0596 0.800978 19.807 1.01754 19.8792 1.19801L20.9981 3.80398C19.3378 4.16492 17.7785 4.59804 16.2987 5.10335L11.888 3.39973C11.5271 3.25535 11.0217 3.25535 10.733 3.39973L6.93594 5.21163C6.61109 5.35601 6.61109 5.57257 6.89984 5.75304L10.6969 7.74542C9.65019 8.4312 8.74063 9.15307 8.01875 9.95435L2.33759 9.48513C1.90447 9.44904 1.47134 9.55732 1.36306 9.77388L0.0275937 12.1994C-0.0806875 12.3799 0.135875 12.5964 0.569 12.6686L6.03359 13.5349C5.88922 14.365 5.88922 15.1952 6.10578 16.0325L0.677281 16.9349C0.28025 17.0071 0.0275938 17.2236 0.135875 17.4041L1.61572 19.8296C1.724 20.0462 2.15712 20.1544 2.59025 20.1184L8.27141 19.613C9.02937 20.371 9.96781 21.0929 11.0578 21.7498L7.36906 23.8144C7.08031 23.9587 7.11641 24.1753 7.40516 24.3197L11.3105 26.0955C11.6353 26.2398 12.1407 26.2398 12.4655 26.0955L16.804 24.3197C18.2838 24.825 19.8792 25.222 21.5756 25.5469L20.601 28.1889C20.5288 28.4055 20.7815 28.5859 21.2146 28.622L26.4988 29.2356C26.9319 29.3078 27.365 29.1995 27.5094 28.983L29.3574 26.4853C31.1693 26.5575 33.0101 26.5575 34.822 26.4492L36.8143 28.9469C36.9948 29.1273 37.4279 29.2356 37.8611 29.1995L43.1091 28.5138C43.5422 28.4416 43.7949 28.2611 43.7227 28.0445L42.5677 25.4386C44.228 25.1137 45.8233 24.6806 47.2671 24.1753L51.7138 25.8717C52.0387 26.0161 52.544 25.98 52.8688 25.8356L56.6659 24.0598C56.9907 23.9154 56.9907 23.6628 56.702 23.5184L52.8688 21.526C53.9156 20.8402 54.8251 20.1184 55.547 19.3171L61.2643 19.7863C61.6974 19.8224 62.1305 19.678 62.2388 19.4975L63.5742 17.072C63.6825 16.8555 63.4299 16.675 63.0328 16.6028L57.5322 15.7366C57.7126 14.9064 57.7126 14.0763 57.4961 13.2389L62.9246 12.3004C63.3216 12.2283 63.5742 12.0478 63.4299 11.8312L61.9861 9.44182C61.8418 9.22526 61.4086 9.11698 60.9755 9.15307L55.3304 9.65838V9.67282ZM42.4883 13.2533C44.1486 15.9676 40.7125 18.7901 34.7859 19.5481C28.8882 20.306 22.7739 18.754 21.1136 16.0398C19.4533 13.2894 22.8822 10.503 28.7799 9.70891C34.7137 8.95095 40.828 10.5391 42.4883 13.2533Z" fill="#536F90"/>
<path fill-rule="evenodd" clip-rule="evenodd" d="M34.3891 2.90886C32.4328 2.80057 30.4837 2.83667 28.5996 2.94495L26.5712 0.375074C26.4268 0.230699 26.1019 0.158512 25.7771 0.194606L20.5651 0.844293C20.2403 0.916481 20.0237 1.06086 20.0959 1.20523L21.2509 3.88339C19.4751 4.24432 17.8509 4.71354 16.2989 5.25495L11.7438 3.47914C11.4912 3.37086 11.0942 3.37086 10.8776 3.47914L7.08053 5.29104C6.86396 5.39932 6.82787 5.57979 7.04443 5.68807L10.9859 7.75264C9.86696 8.47451 8.92131 9.23248 8.16334 10.0699L2.30171 9.60064C1.97687 9.56454 1.65203 9.67282 1.57984 9.8172L0.24437 12.2427C0.136089 12.3871 0.316558 12.5314 0.641401 12.5675L6.28646 13.4699C6.0699 14.3722 6.10599 15.2457 6.35865 16.1119L0.749683 17.0504C0.460933 17.0865 0.280464 17.267 0.352652 17.4113L1.8325 19.8007C1.94078 19.9451 2.22953 20.0534 2.55437 20.0173L8.41599 19.4759C9.21006 20.306 10.1846 21.064 11.3829 21.757L7.54974 23.8577C7.33318 24.002 7.33318 24.1464 7.58584 24.2547L11.4551 26.0233C11.7077 26.1316 12.0687 26.1316 12.3213 26.0233L16.8042 24.2114C18.3562 24.7167 20.0237 25.1498 21.8284 25.5108L20.8178 28.1889C20.7456 28.3694 20.9622 28.5138 21.287 28.5499L26.5351 29.1634C26.8599 29.1995 27.1847 29.0913 27.293 28.983L29.2493 26.377C31.1695 26.4492 33.0825 26.4492 34.9666 26.3409L37.0311 28.9108C37.1394 29.0552 37.5003 29.1274 37.7891 29.0913L43.0371 28.4055C43.362 28.3694 43.5424 28.225 43.5063 28.0806L42.3152 25.4025C44.0838 25.0415 45.7514 24.5723 47.2673 24.0309L51.8584 25.8067C52.1111 25.915 52.472 25.8789 52.7247 25.7706L56.5217 23.9948C56.7383 23.8865 56.7383 23.7061 56.5217 23.5978L52.6164 21.5332C53.6992 20.8114 54.681 20.0534 55.4389 19.216L61.3006 19.6852C61.6254 19.7213 61.9502 19.613 62.0224 19.4687L63.3579 17.0432C63.4301 16.8988 63.2496 16.7544 62.9609 16.6822L57.3158 15.816C57.4963 14.9497 57.4963 14.0402 57.2436 13.1739L62.8526 12.2355C63.1413 12.1633 63.3218 12.0189 63.2135 11.8745L61.7698 9.44904C61.6615 9.30467 61.3366 9.23248 61.0118 9.26857L55.1863 9.80998C54.3922 8.97982 53.4105 8.22186 52.2555 7.52886L56.0525 5.39211C56.2691 5.28382 56.2691 5.10336 56.0164 4.99507L52.1111 3.26257C51.8945 3.15429 51.4975 3.15429 51.2809 3.26257L46.7981 5.07448C45.2821 4.56917 43.5785 4.13604 41.7738 3.77511L42.7845 1.06086C42.8567 0.916481 42.6401 0.772106 42.3152 0.736012L37.0311 0.122418C36.7424 0.0863244 36.3814 0.158512 36.3092 0.302887L34.3891 2.90886ZM34.6056 9.60064C28.5274 8.87876 22.3771 10.5752 20.825 13.3616C19.273 16.148 22.9257 18.9706 28.9966 19.6924C35.0748 20.4143 41.2252 18.7179 42.7772 15.9315C44.3293 13.145 40.6405 10.3225 34.6056 9.60064Z" fill="#0D3E69"/>
<path fill-rule="evenodd" clip-rule="evenodd" d="M49.217 13.0368C47.9176 10.7917 44.8424 8.91485 40.605 7.78872C36.3748 6.66982 31.4516 6.38107 26.7883 6.99466C22.125 7.60826 18.2124 9.09532 15.8303 11.1166C13.4769 13.145 12.8633 15.4911 14.206 17.7362C15.5054 19.9812 18.5806 21.8581 22.818 22.9842C27.0121 24.1031 31.9714 24.3919 36.6347 23.7783C41.298 23.1647 45.2106 21.6776 47.5567 19.6564C49.9461 17.6279 50.5236 15.2818 49.217 13.0368ZM38.4394 9.63672C41.6228 10.503 43.9401 11.9179 44.9146 13.6143C45.8891 15.2746 45.456 17.0865 43.6874 18.6024C41.8755 20.1184 38.9519 21.2445 35.4075 21.7137C31.8992 22.1829 28.1743 21.9664 24.9908 21.1362C21.8074 20.2699 19.4902 18.8551 18.4795 17.1587C17.505 15.4984 17.9381 13.6864 19.7428 12.1705C21.5114 10.6546 24.4783 9.52844 27.9866 9.05922C31.4949 8.59001 35.2198 8.80657 38.4394 9.63672Z" fill="#082742"/>
<path d="M36.2732 6.27282C31.4294 5.73141 26.5784 6.09235 22.6009 7.17516C18.6233 8.25797 15.5842 10.0338 14.357 12.2716C13.1299 14.4805 13.96 16.7183 16.3133 18.5303C18.6666 20.3783 22.5359 21.7859 27.3436 22.3273C32.1874 22.9048 37.0384 22.5078 41.0159 21.425C44.9573 20.3422 48.0325 18.5663 49.2597 16.3646C50.4869 14.1557 49.6567 11.9179 47.3034 10.0699C44.9501 8.25797 41.0809 6.85032 36.2732 6.27282ZM24.6293 8.73441C27.7045 7.90425 31.5016 7.57941 35.2986 8.04863C39.0596 8.48175 42.0987 9.56457 43.9106 11.0155C45.7586 12.4232 46.4083 14.199 45.4626 15.9315C44.4881 17.6279 42.0987 19.0428 38.9874 19.8729C35.9122 20.7392 32.0791 21.0279 28.3181 20.5948C24.5571 20.1617 21.518 19.0428 19.67 17.6279C17.8581 16.1842 17.1724 14.4444 18.1541 12.7119C19.1286 10.9722 21.518 9.60066 24.6293 8.73441Z" fill="#11548F"/>
</svg>
