<svg width="49" height="49" viewBox="0 0 49 49" fill="none" xmlns="http://www.w3.org/2000/svg">
<path d="M24.4539 0C10.9481 0 0 10.9688 0 24.5C0 38.0312 10.9481 49 24.4539 49C37.9596 49 48.9078 38.0312 48.9078 24.5C48.9078 10.9688 37.9596 0 24.4539 0ZM24.4539 45.4779C12.9068 45.4779 3.51544 36.0664 3.51544 24.5C3.51544 12.9337 12.9093 3.52206 24.4539 3.52206C35.9985 3.52206 45.3923 12.9337 45.3923 24.5C45.3923 36.0664 35.9985 45.4779 24.4539 45.4779Z" fill="#182360"/>
<path d="M18.5096 18.7691C18.8942 16.9167 17.7071 15.1027 15.8582 14.7174C14.0093 14.3321 12.1987 15.5214 11.8141 17.3738C11.4296 19.2262 12.6166 21.0403 14.4655 21.4256C16.3145 21.8109 18.1251 20.6215 18.5096 18.7691Z" fill="#182360"/>
<path d="M37.0727 18.8593C37.5065 17.0178 36.3682 15.1727 34.5303 14.7381C32.6923 14.3035 30.8506 15.4439 30.4168 17.2854C29.983 19.1268 31.1213 20.972 32.9593 21.4066C34.7973 21.8412 36.6389 20.7007 37.0727 18.8593Z" fill="#182360"/>
<path d="M33.3119 28.8678H15.5957C14.0036 28.8678 12.8966 30.5592 13.6396 31.9721C13.67 32.0278 13.7028 32.086 13.7382 32.1417C16.0785 35.8385 20.0867 38.0439 24.4564 38.0439C28.826 38.0439 32.8317 35.836 35.1745 32.1417C35.2099 32.086 35.2428 32.0303 35.2731 31.9721C36.0136 30.5592 34.9092 28.8678 33.317 28.8678H33.3119Z" fill="#182360"/>
</svg>
