<svg width="40" height="48" viewBox="0 0 40 48" fill="none" xmlns="http://www.w3.org/2000/svg">
<path d="M3.76074 14.4129L7.2958 18.5542L9.45905 16.8023V29.1738H7.17269V30.6098H35.5851V29.1738H33.3017V16.8053L35.4678 18.5572L39.0029 14.4158L21.3804 0L3.76074 14.4129ZM24.1738 29.1767H18.5869V20.8501H24.1738V29.1767ZM31.8624 29.1767H25.616V19.4141H17.1477V29.1767H10.9012V15.6412L21.3804 7.16549L31.8595 15.6412V29.1767H31.8624ZM35.2832 16.5567L21.3804 5.31416L7.48047 16.5567L5.80967 14.5971L21.3804 1.8601L36.951 14.5971L35.2802 16.5567H35.2832Z" fill="#2B478B"/>
<path d="M20.8059 47.9971C23.8983 47.8128 37.3497 41.4545 38.2906 37.4565C38.5838 36.2164 38.446 35.2367 37.8861 34.5435C37.1563 33.6427 36.0365 33.6368 35.9105 33.6398H35.7756L35.6496 33.6924C33.1112 34.7365 30.2063 35.9357 28.6557 36.5879C28.2658 35.921 27.5741 35.38 26.5393 35.1811L16.4676 34.7395C12.7157 33.7041 9.90755 33.3122 7.17565 33.3181H0V34.7541H8.60609C10.7928 34.7541 14.064 35.5671 16.1628 36.1462L16.2419 36.1696L26.3166 36.6054C27.3337 36.8189 27.6532 37.5559 27.6122 38.1818C27.5741 38.7404 27.2223 39.3634 26.5335 39.4014C25.6395 39.457 23.1626 39.6091 20.671 39.7553C19.1116 39.846 17.5463 39.9337 16.3592 39.9922L12.1411 40.2028L16.1921 41.399C16.7432 41.5628 18.9826 42.0366 19.6422 42.0015L19.6041 41.2527C19.9617 41.2323 20.3251 41.2118 20.6857 41.1913C23.8074 41.01 26.9263 40.817 26.9732 40.814V40.7877C28.1134 40.5567 28.9664 39.5506 29.0514 38.2725C29.0573 38.176 29.0573 38.0795 29.0543 37.98C30.5346 37.3571 33.7179 36.0439 36.0453 35.0846C36.2212 35.108 36.5612 35.1869 36.7723 35.4531C37.0302 35.7806 37.0713 36.3597 36.8895 37.126C36.1567 40.232 23.6609 46.3856 20.7209 46.5611C19.094 46.6546 6.00316 43.4375 4.10665 42.8759C4.03337 42.8555 3.96595 42.835 3.84577 42.8408C3.49989 42.8613 2.70552 43.1041 0 44.1482V45.6895C1.56528 45.0812 3.32401 44.4173 3.83698 44.2944C5.86832 44.8618 18.8566 48.1082 20.8029 47.9942L20.8059 47.9971Z" fill="#2B478B"/>
</svg>
