<svg width="51" height="23" viewBox="0 0 51 23" fill="none" xmlns="http://www.w3.org/2000/svg">
<rect width="51" height="23" fill="url(#paint0_radial_628_8065)"/>
<path d="M35.3491 15.7857H30.0176C29.8501 15.7857 29.7148 15.6599 29.7148 15.504C29.7148 15.3481 29.8501 15.2223 30.0176 15.2223H35.3208C35.5227 15.1829 36.9236 14.8542 36.9862 13.3255C37.0488 11.8099 36.1141 11.6578 35.9627 11.6427C35.9627 11.6427 32.5451 11.6427 32.541 11.6427C31.1683 11.4305 30.8817 10.2812 30.922 9.67079C30.914 8.08383 32.3533 7.37393 33.1184 7.21993C33.1386 7.21617 33.1608 7.21429 33.183 7.21429H37.9835C38.151 7.21429 38.2863 7.34012 38.2863 7.496C38.2863 7.65188 38.151 7.77771 37.9835 7.77771H33.2193C32.9872 7.83217 31.5175 8.23783 31.5297 9.6783C31.5297 9.68581 31.5297 9.69144 31.5297 9.69896C31.5256 9.74779 31.463 10.884 32.6177 11.0793C32.6177 11.0793 35.9971 11.0793 35.995 11.0793C36.0112 11.0793 37.6827 11.1976 37.5959 13.3461C37.5272 15.0082 36.1343 15.6655 35.4056 15.782C35.3894 15.7838 35.3713 15.7857 35.3551 15.7857H35.3491Z" fill="white"/>
<path d="M44.4295 15.7838H40.0246C40.0156 15.7838 40.0047 15.7838 39.9957 15.7838C39.4155 15.7193 38.3093 15.2945 38.2858 14.1564C38.2605 12.9463 39.0323 9.27038 39.0648 9.11484C39.0684 9.10156 39.0702 9.09018 39.0756 9.07691C39.1028 9.00104 39.7499 7.21429 41.185 7.21429H44.3536C44.3789 7.21429 44.4042 7.21809 44.4295 7.22567C44.4856 7.24275 45.7852 7.65055 45.7852 8.82464C45.7852 9.81095 45.5104 11.4801 45.4978 11.5503C45.4761 11.6849 45.364 11.7855 45.2339 11.7855L39.1028 11.8386C38.9473 12.7528 38.819 13.6708 38.8298 14.1431C38.8497 15.0251 39.9053 15.1977 40.0427 15.2167H44.4313C44.5814 15.2167 44.7025 15.3438 44.7025 15.5012C44.7025 15.6586 44.5814 15.7857 44.4313 15.7857L44.4295 15.7838ZM39.589 9.2552C39.5583 9.40125 39.3775 10.2738 39.1986 11.2658L44.9971 11.2145C45.073 10.7195 45.2393 9.5473 45.2393 8.82084C45.2393 8.15508 44.4783 7.84212 44.3084 7.78142H41.1832C40.1819 7.78142 39.6504 9.09398 39.589 9.2552V9.2552Z" fill="white"/>
<path d="M22.494 18.9964C22.4773 18.9964 22.4606 18.9964 22.4439 18.9928C22.2918 18.9656 22.1917 18.8244 22.2195 18.6777C22.2195 18.6777 22.6628 16.286 23.108 13.8943C23.3306 12.6975 23.555 11.5026 23.7238 10.6045C23.8092 10.1555 23.8796 9.78074 23.9316 9.52002C23.9742 9.30275 24.0002 9.16153 24.0318 9.06738H24.0262C24.3397 8.22729 25.3191 7.32926 26.0406 7.21701C26.0666 7.21339 26.0907 7.21339 26.1167 7.21701C26.3003 7.22244 28.0644 7.21882 29.2293 7.21701C29.4982 7.21158 30.9414 7.74388 30.7726 8.85736C30.7726 8.86641 30.7726 8.87728 30.7689 8.88633L29.9935 13.5104C29.9935 13.5213 29.9898 13.5304 29.9861 13.5394C29.9694 13.5974 29.5613 14.9625 28.2054 15.3608C28.1812 15.3681 28.1571 15.3717 28.133 15.3717L25.2746 15.4513C25.2634 15.4513 25.2523 15.4513 25.2412 15.4513C25.1967 15.4477 24.2933 15.3536 23.5662 14.4592C23.2582 16.1104 22.9503 17.7652 22.763 18.7773C22.7389 18.9095 22.622 19 22.4903 19L22.494 18.9964ZM23.7146 13.6788C24.2803 14.7308 25.154 14.8883 25.2838 14.9064L28.0829 14.8285C29.0568 14.5225 29.4092 13.5249 29.45 13.4018L30.2198 8.8121C30.2996 8.29971 29.4964 7.75293 29.1662 7.75655C28.9622 7.75655 28.3111 7.76017 27.66 7.76017C27.2668 7.76017 26.8735 7.76017 26.5786 7.76017C26.3764 7.76017 26.2317 7.76017 26.1241 7.75293C25.653 7.83078 24.8145 8.56224 24.5548 9.243C24.5066 9.45665 24.1282 11.47 23.7146 13.6788V13.6788Z" fill="white"/>
<path d="M18.7891 6.97659C18.7891 7.35028 18.482 7.6528 18.1026 7.6528C17.7232 7.6528 17.416 7.35028 17.416 6.97659C17.416 6.6029 17.7232 6.29877 18.1026 6.29877C18.482 6.29877 18.7891 6.60128 18.7891 6.97659V6.97659Z" fill="#FDB718"/>
<path d="M16.5449 5.35241C16.9241 5.35241 17.2315 5.04966 17.2315 4.67621C17.2315 4.30275 16.9241 4 16.5449 4C16.1658 4 15.8584 4.30275 15.8584 4.67621C15.8584 5.04966 16.1658 5.35241 16.5449 5.35241Z" fill="#FDB718"/>
<path d="M15.67 6.97659C15.67 7.35028 15.3628 7.6528 14.9834 7.6528C14.604 7.6528 14.2969 7.35028 14.2969 6.97659C14.2969 6.6029 14.604 6.29877 14.9834 6.29877C15.3628 6.29877 15.67 6.60128 15.67 6.97659Z" fill="#FDB718"/>
<path d="M18.0215 16.8705C18.4007 16.8705 18.7081 16.5678 18.7081 16.1943C18.7081 15.8209 18.4007 15.5181 18.0215 15.5181C17.6423 15.5181 17.335 15.8209 17.335 16.1943C17.335 16.5678 17.6423 16.8705 18.0215 16.8705Z" fill="#FDB718"/>
<path d="M16.542 14.7093C16.9212 14.7093 17.2286 14.4065 17.2286 14.0331C17.2286 13.6596 16.9212 13.3569 16.542 13.3569C16.1628 13.3569 15.8555 13.6596 15.8555 14.0331C15.8555 14.4065 16.1628 14.7093 16.542 14.7093Z" fill="#FDB718"/>
<path d="M13.5087 14.5928C13.8226 14.5928 14.077 14.3422 14.077 14.0331C14.077 13.7239 13.8226 13.4733 13.5087 13.4733C13.1949 13.4733 12.9404 13.7239 12.9404 14.0331C12.9404 14.3422 13.1949 14.5928 13.5087 14.5928Z" fill="#FDB718"/>
<path d="M15.5946 16.1943C15.5946 16.5033 15.34 16.754 15.0263 16.754C14.7126 16.754 14.458 16.5033 14.458 16.1943C14.458 15.8853 14.7126 15.6346 15.0263 15.6346C15.34 15.6346 15.5946 15.8853 15.5946 16.1943Z" fill="#FDB718"/>
<path d="M11.9978 16.6279C12.2409 16.6279 12.438 16.4338 12.438 16.1944C12.438 15.9549 12.2409 15.7608 11.9978 15.7608C11.7547 15.7608 11.5576 15.9549 11.5576 16.1944C11.5576 16.4338 11.7547 16.6279 11.9978 16.6279Z" fill="#FDB718"/>
<path d="M6.58178 12.0918C6.82488 12.0918 7.02196 11.8977 7.02196 11.6583C7.02196 11.4188 6.82488 11.2247 6.58178 11.2247C6.33868 11.2247 6.1416 11.4188 6.1416 11.6583C6.1416 11.8977 6.33868 12.0918 6.58178 12.0918Z" fill="#FDB718"/>
<path d="M7.36987 9.78012C7.61297 9.78012 7.81004 9.58601 7.81004 9.34657C7.81004 9.10713 7.61297 8.91302 7.36987 8.91302C7.12676 8.91302 6.92969 9.10713 6.92969 9.34657C6.92969 9.58601 7.12676 9.78012 7.36987 9.78012Z" fill="#FDB718"/>
<path d="M9.30321 6.97658C9.30321 7.216 9.10611 7.41013 8.86303 7.41013C8.61995 7.41013 8.42285 7.216 8.42285 6.97658C8.42285 6.73716 8.61995 6.54303 8.86303 6.54303C9.10611 6.54303 9.30321 6.73716 9.30321 6.97658Z" fill="#FDB718"/>
<path d="M10.8179 4.72798C10.8179 4.9674 10.6208 5.16153 10.3777 5.16153C10.1346 5.16153 9.9375 4.9674 9.9375 4.72798C9.9375 4.48856 10.1346 4.29443 10.3777 4.29443C10.6208 4.29443 10.8179 4.48856 10.8179 4.72798Z" fill="#FDB718"/>
<path d="M8.906 16.6279C9.1491 16.6279 9.34618 16.4338 9.34618 16.1944C9.34618 15.9549 9.1491 15.7608 8.906 15.7608C8.66289 15.7608 8.46582 15.9549 8.46582 16.1944C8.46582 16.4338 8.66289 16.6279 8.906 16.6279Z" fill="#FDB718"/>
<path d="M7.34838 14.4666C7.59148 14.4666 7.78856 14.2725 7.78856 14.033C7.78856 13.7936 7.59148 13.5995 7.34838 13.5995C7.10528 13.5995 6.9082 13.7936 6.9082 14.033C6.9082 14.2725 7.10528 14.4666 7.34838 14.4666Z" fill="#FDB718"/>
<path d="M6.51767 16.4176C6.64285 16.4176 6.74433 16.3176 6.74433 16.1943C6.74433 16.071 6.64285 15.9711 6.51767 15.9711C6.39249 15.9711 6.29102 16.071 6.29102 16.1943C6.29102 16.3176 6.39249 16.4176 6.51767 16.4176Z" fill="#FDB718"/>
<path d="M5.09971 14.2563C5.22489 14.2563 5.32636 14.1564 5.32636 14.0331C5.32636 13.9098 5.22489 13.8098 5.09971 13.8098C4.97453 13.8098 4.87305 13.9098 4.87305 14.0331C4.87305 14.1564 4.97453 14.2563 5.09971 14.2563Z" fill="#FDB718"/>
<path d="M4.45332 11.6178C4.45332 11.7408 4.35149 11.8411 4.22666 11.8411C4.10183 11.8411 4 11.7408 4 11.6178C4 11.4949 4.10183 11.3946 4.22666 11.3946C4.35149 11.3946 4.45332 11.4949 4.45332 11.6178Z" fill="#FDB718"/>
<path d="M5.03721 9.57302C5.16239 9.57302 5.26386 9.47307 5.26386 9.34977C5.26386 9.22648 5.16239 9.12653 5.03721 9.12653C4.91203 9.12653 4.81055 9.22648 4.81055 9.34977C4.81055 9.47307 4.91203 9.57302 5.03721 9.57302Z" fill="#FDB718"/>
<path d="M6.57041 7.2209C6.69559 7.2209 6.79707 7.12095 6.79707 6.99766C6.79707 6.87436 6.69559 6.77441 6.57041 6.77441C6.44523 6.77441 6.34375 6.87436 6.34375 6.99766C6.34375 7.12095 6.44523 7.2209 6.57041 7.2209Z" fill="#FDB718"/>
<path d="M10.3993 14.5928C10.7132 14.5928 10.9676 14.3422 10.9676 14.0331C10.9676 13.7239 10.7132 13.4733 10.3993 13.4733C10.0855 13.4733 9.83105 13.7239 9.83105 14.0331C9.83105 14.3422 10.0855 14.5928 10.3993 14.5928Z" fill="#FDB718"/>
<path d="M8.79973 12.2244C9.11359 12.2244 9.36802 11.9738 9.36802 11.6647C9.36802 11.3556 9.11359 11.105 8.79973 11.105C8.48588 11.105 8.23145 11.3556 8.23145 11.6647C8.23145 11.9738 8.48588 12.2244 8.79973 12.2244Z" fill="#FDB718"/>
<path d="M10.9461 9.34653C10.9461 9.65552 10.6916 9.90626 10.3779 9.90626C10.0642 9.90626 9.80957 9.65552 9.80957 9.34653C9.80957 9.03755 10.0642 8.7868 10.3779 8.7868C10.6916 8.7868 10.9461 9.03755 10.9461 9.34653Z" fill="#FDB718"/>
<path d="M11.954 7.53633C12.2679 7.53633 12.5223 7.28573 12.5223 6.9766C12.5223 6.66747 12.2679 6.41687 11.954 6.41687C11.6402 6.41687 11.3857 6.66747 11.3857 6.9766C11.3857 7.28573 11.6402 7.53633 11.954 7.53633Z" fill="#FDB718"/>
<path d="M13.4472 5.24727C13.7611 5.24727 14.0155 4.99667 14.0155 4.68754C14.0155 4.37841 13.7611 4.12781 13.4472 4.12781C13.1333 4.12781 12.8789 4.37841 12.8789 4.68754C12.8789 4.99667 13.1333 5.24727 13.4472 5.24727Z" fill="#FDB718"/>
<path d="M11.9151 12.3409C12.2942 12.3409 12.6016 12.0382 12.6016 11.6647C12.6016 11.2913 12.2942 10.9885 11.9151 10.9885C11.5359 10.9885 11.2285 11.2913 11.2285 11.6647C11.2285 12.0382 11.5359 12.3409 11.9151 12.3409Z" fill="#FDB718"/>
<path d="M13.4483 10.0227C13.8274 10.0227 14.1348 9.71995 14.1348 9.34649C14.1348 8.97304 13.8274 8.67029 13.4483 8.67029C13.0691 8.67029 12.7617 8.97304 12.7617 9.34649C12.7617 9.71995 13.0691 10.0227 13.4483 10.0227Z" fill="#FDB718"/>
<path d="M22.4328 11.4253H12.2627V11.841H22.4328V11.4253Z" fill="#FDB718"/>
<path d="M17.1539 9.13947H13.9561V9.55522H17.1539V9.13947Z" fill="#FDB718"/>
<path d="M18.5293 11.8168L16.7686 9.13947H17.2596L19.0204 11.8168H18.5293Z" fill="#FDB718"/>
<path d="M18.7091 13.826H17.0781V14.2417H18.7091V13.826Z" fill="#FDB718"/>
<path d="M18.3203 14.2417L19.7805 11.8168H20.2026L18.7424 14.2417H18.3203Z" fill="#FDB718"/>
<defs>
<radialGradient id="paint0_radial_628_8065" cx="0" cy="0" r="1" gradientUnits="userSpaceOnUse" gradientTransform="translate(0 11.4588) scale(51.4555 23.2064)">
<stop stop-color="#2D5CA8"/>
<stop offset="0.333333" stop-color="#285496"/>
<stop offset="0.635417" stop-color="#1F4272"/>
<stop offset="1" stop-color="#0D2D4D"/>
</radialGradient>
</defs>
</svg>
